<svg width="70" height="67" viewBox="0 0 70 67" fill="none" xmlns="http://www.w3.org/2000/svg">
<rect x="5" y="7" width="60" height="60" rx="3" fill="black"/>
<mask id="path-2-inside-1_2083_3855" fill="white">
<path d="M0.543397 4.26305C0.0933624 2.24601 -0.118977 0.343035 0.0677671 0C1.56717 2.57155 4.67547 5.70487 7.00599 7.01755L8.44117 7.82604H14.1291C17.2575 7.82604 21.1827 7.97724 22.8518 8.16208C25.9144 8.50117 28.0654 9.99021 29.8196 11.2398C29.887 10.2356 30.3135 9.87121 32.266 9.03728C32.9381 8.7503 33.6305 9.19807 34.296 9.89352C34.7145 9.6505 35.0847 9.41178 35.3655 9.19791C35.8869 8.80106 36.4547 8.37785 36.6272 8.25759C36.8119 8.12872 36.7254 8.52045 36.4168 9.21028C36.079 9.9655 35.6552 10.7276 35.3497 11.1685C36.3206 12.4487 37.1644 13.6875 37.7026 13.0369C38.0126 12.6624 38.3053 12.4003 38.3529 12.4544C38.4008 12.5085 38.2321 13.151 37.9783 13.8822C38.7812 14.3976 39.4817 15.207 40.0055 15.7698L40.9081 14.4088L40.9837 15.439C41.0858 16.8306 40.7017 16.5179 40.0055 15.7698L39.8488 16.0061C39.2067 16.9745 38.4576 15.7709 37.6558 14.4811C37.1344 15.0477 36.4278 14.3199 35.8354 13.5061C35.4781 13.6345 35.1146 13.8738 34.7491 14.2555L33.6166 15.4385L31.1212 15.4231C30.9357 15.5525 30.7957 15.6284 30.7261 15.6284C30.5583 15.6284 30.4847 15.5462 30.4881 15.4192L9.55261 15.2906H9.5525C9.53925 15.2906 9.52604 15.2905 9.5129 15.2903L6.86806 15.2741C3.94793 12.7178 1.46598 8.39696 0.543397 4.26305Z"/>
</mask>
<path d="M0.543397 4.26305C0.0933624 2.24601 -0.118977 0.343035 0.0677671 0C1.56717 2.57155 4.67547 5.70487 7.00599 7.01755L8.44117 7.82604H14.1291C17.2575 7.82604 21.1827 7.97724 22.8518 8.16208C25.9144 8.50117 28.0654 9.99021 29.8196 11.2398C29.887 10.2356 30.3135 9.87121 32.266 9.03728C32.9381 8.7503 33.6305 9.19807 34.296 9.89352C34.7145 9.6505 35.0847 9.41178 35.3655 9.19791C35.8869 8.80106 36.4547 8.37785 36.6272 8.25759C36.8119 8.12872 36.7254 8.52045 36.4168 9.21028C36.079 9.9655 35.6552 10.7276 35.3497 11.1685C36.3206 12.4487 37.1644 13.6875 37.7026 13.0369C38.0126 12.6624 38.3053 12.4003 38.3529 12.4544C38.4008 12.5085 38.2321 13.151 37.9783 13.8822C38.7812 14.3976 39.4817 15.207 40.0055 15.7698L40.9081 14.4088L40.9837 15.439C41.0858 16.8306 40.7017 16.5179 40.0055 15.7698L39.8488 16.0061C39.2067 16.9745 38.4576 15.7709 37.6558 14.4811C37.1344 15.0477 36.4278 14.3199 35.8354 13.5061C35.4781 13.6345 35.1146 13.8738 34.7491 14.2555L33.6166 15.4385L31.1212 15.4231C30.9357 15.5525 30.7957 15.6284 30.7261 15.6284C30.5583 15.6284 30.4847 15.5462 30.4881 15.4192L9.55261 15.2906H9.5525C9.53925 15.2906 9.52604 15.2905 9.5129 15.2903L6.86806 15.2741C3.94793 12.7178 1.46598 8.39696 0.543397 4.26305Z" fill="#100405"/>
<path d="M9.5129 15.2903L9.45052 20.2899L9.4663 20.2901L9.48208 20.2902L9.5129 15.2903ZM30.4881 15.4192L25.49 15.2835L25.3514 20.3877L30.4574 20.4191L30.4881 15.4192ZM31.1212 15.4231L31.0905 20.423L32.6787 20.4328L33.9815 19.5242L31.1212 15.4231ZM35.8354 13.5061L31.7929 16.4486L33.9988 19.4792L37.5263 18.2115L35.8354 13.5061ZM37.9783 13.8822L42.7017 15.5222L43.9934 11.8016L40.6789 9.67436L37.9783 13.8822ZM37.6558 14.4811L33.4095 17.121L36.8818 22.7063L41.335 17.8668L37.6558 14.4811ZM29.8196 11.2398L32.7206 7.16748L25.4295 1.97356L24.8308 10.9055L29.8196 11.2398ZM5.14992 7.35467L2.24902 11.4271L2.24947 11.4274L5.14992 7.35467ZM10.5973 11.2319L5.59753 11.2837L5.59754 11.2845L10.5973 11.2319ZM4.28303 8.48466L1.0095 12.2641L1.01025 12.2647L4.28303 8.48466ZM3.6306 8.70044L8.19939 6.66913L8.1992 6.66871L3.6306 8.70044ZM3.77019 9.30579L0.0986957 12.6999L0.100931 12.7023L3.77019 9.30579ZM1.9364 4.98517L6.83189 3.96824L6.83177 3.96764L1.9364 4.98517ZM1.77193 4.19391L5.43469 0.790345L-6.77305 -12.3471L-3.12344 5.21143L1.77193 4.19391ZM2.80921 5.31018L-0.853544 8.71374L-0.85308 8.71424L2.80921 5.31018ZM34.7738 11.9968L31.9022 16.09L31.9026 16.0902L34.7738 11.9968ZM33.9119 12.763L29.9308 9.73792L29.9299 9.73921L33.9119 12.763ZM31.2775 14.4295L34.0291 18.6043L34.0309 18.6031L31.2775 14.4295ZM33.4694 12.6899L36.7438 16.4686L36.7438 16.4686L33.4694 12.6899ZM34.966 11.5394L31.2922 14.9311L31.299 14.9384L34.966 11.5394ZM35.3497 11.1685L39.4593 14.0165L41.5247 11.0361L39.3334 8.14693L35.3497 11.1685ZM34.296 9.89352L37.9084 6.43655L35.1879 3.59377L31.7852 5.56963L34.296 9.89352ZM30.6851 11.5429L32.1652 16.3188L32.1666 16.3184L30.6851 11.5429ZM29.813 11.3691L24.8164 11.1835L24.8164 11.1837L29.813 11.3691ZM6.96285 12.5556L10.3579 8.88493L10.3575 8.88456L6.96285 12.5556ZM9.30783 14.3461L6.89251 18.724L6.89261 18.7241L9.30783 14.3461ZM9.01064 15.0903L13.402 17.4812L17.426 10.0903H9.01064V15.0903ZM5.96704 12.1631L9.98395 9.18574L9.98383 9.18558L5.96704 12.1631ZM18.5988 13.5358L18.7411 8.53778L18.7411 8.53777L18.5988 13.5358ZM9.48208 20.2902L9.52168 20.2905L9.58333 10.2907L9.54373 10.2904L9.48208 20.2902ZM30.4574 20.4191L31.0905 20.423L31.1519 10.4232L30.5188 10.4193L30.4574 20.4191ZM38.8797 14.969L38.1855 13.4075L29.0477 17.4694L29.7418 19.031L38.8797 14.969ZM37.5263 18.2115C36.9283 18.4264 36.332 18.4225 35.8709 18.3172L38.0985 8.5684C36.894 8.29318 35.5276 8.30363 34.1444 8.80071L37.5263 18.2115ZM35.8709 18.3172C35.4963 18.2316 35.2924 18.0996 35.2776 18.0901L40.6789 9.67436C40.0307 9.25828 39.1613 8.81125 38.0985 8.56841L35.8709 18.3172ZM41.902 11.8412C41.6979 11.5129 41.3999 11.0308 41.0797 10.5738L32.8897 16.3118C33.0234 16.5025 33.1734 16.7414 33.4095 17.121L41.902 11.8412ZM41.0797 10.5738C40.7395 10.0882 39.9592 9.00157 38.7587 8.23276C38.0834 7.80029 37.027 7.30566 35.6725 7.28452C34.2347 7.26208 32.9996 7.78118 32.0762 8.49156L38.174 16.4173C37.5637 16.8868 36.6417 17.3009 35.5164 17.2833C34.4745 17.267 33.7301 16.8873 33.3656 16.6538C33.0103 16.4263 32.827 16.2193 32.8107 16.2012C32.7802 16.1673 32.8043 16.1899 32.8897 16.3118L41.0797 10.5738ZM32.0763 8.49152C32.1289 8.45106 32.2669 8.35465 32.4916 8.26261C32.724 8.16738 32.9978 8.09806 33.2939 8.07582L34.0426 18.0478C35.6477 17.9272 37.035 17.2936 38.174 16.4173L32.0763 8.49152ZM33.2939 8.07582C33.5368 8.05758 33.7484 8.07448 33.9146 8.103L32.2238 17.959C32.79 18.0562 33.4 18.096 34.0426 18.0478L33.2939 8.07582ZM33.9146 8.103C34.2391 8.15867 34.3564 8.25318 34.1785 8.15545C34.1013 8.11301 33.9888 8.04586 33.8279 7.94055C33.6667 7.83501 33.483 7.70845 33.2571 7.549L27.4911 15.7193C28.316 16.3014 30.0799 17.5913 32.2239 17.959L33.9146 8.103ZM33.2571 7.54899C33.0884 7.42997 32.92 7.30951 32.7206 7.16748L26.9186 15.3122C27.0977 15.4398 27.2985 15.5833 27.4911 15.7193L33.2571 7.54899ZM2.24947 11.4274C3.23617 12.1301 4.55744 12.8559 5.6325 13.3821C6.19093 13.6553 6.78085 13.9228 7.32602 14.1352C7.5949 14.2399 7.91508 14.3556 8.25162 14.4525C8.47328 14.5163 9.1474 14.7094 9.96166 14.7094V4.70936C10.355 4.70936 10.6461 4.76057 10.7586 4.78204C10.895 4.80806 10.9865 4.83366 11.017 4.84243C11.0749 4.85911 11.0611 4.8582 10.9552 4.81695C10.7508 4.73735 10.4281 4.59566 10.0281 4.39993C9.6377 4.20887 9.22833 3.99308 8.85765 3.78191C8.47291 3.56274 8.19958 3.38816 8.05037 3.28191L2.24947 11.4274ZM9.96166 14.7094C8.00576 14.7094 6.83938 13.5859 6.47587 13.1817C6.04538 12.7031 5.85037 12.2717 5.78095 12.1053C5.62918 11.7417 5.59955 11.479 5.59753 11.2837L15.597 11.1801C15.5869 10.2078 15.3977 9.18377 15.0092 8.25318C14.8214 7.80335 14.4888 7.13692 13.9108 6.49424C13.3997 5.92604 12.0758 4.70936 9.96166 4.70936V14.7094ZM5.59754 11.2845C5.59058 10.623 5.71985 9.84037 6.11265 9.05499C6.50742 8.26567 7.06643 7.67772 7.63413 7.27104C8.66104 6.53541 9.65636 6.42434 9.98197 6.39725C10.397 6.36273 10.7001 6.39783 10.8065 6.4117C10.9372 6.42874 11.0134 6.44738 11.0181 6.4485C11.0239 6.44989 10.9352 6.42745 10.7388 6.3566C10.5545 6.29011 10.3253 6.19908 10.0627 6.08483C9.53169 5.85381 8.9538 5.56683 8.44591 5.27791C8.19442 5.13485 7.98223 5.00387 7.81535 4.8921C7.733 4.83695 7.66913 4.79145 7.62222 4.75639C7.57428 4.72055 7.55406 4.70308 7.55581 4.70459L1.01025 12.2647C2.42096 13.4861 4.55495 14.594 6.073 15.2545C6.86577 15.5994 7.8047 15.9607 8.67826 16.1709C9.02181 16.2536 9.85191 16.4426 10.811 16.3628C11.2664 16.3249 12.3626 16.1849 13.4577 15.4004C14.8514 14.402 15.6142 12.8131 15.597 11.1793L5.59754 11.2845ZM7.55655 4.70524C7.29749 4.48085 6.94219 4.17898 6.58054 3.92304C6.41536 3.80614 6.06209 3.56343 5.59866 3.3507C5.36329 3.24266 4.95075 3.07238 4.41442 2.96701C3.90199 2.86632 2.94672 2.75926 1.83538 3.12693C-1.14749 4.11375 -1.59234 6.89427 -1.62777 7.7314C-1.66436 8.59622 -1.46849 9.28029 -1.41392 9.47195C-1.26762 9.98575 -1.05279 10.474 -0.937993 10.7322L8.1992 6.66871C8.08116 6.40327 8.13567 6.49414 8.20382 6.73349C8.21932 6.78793 8.39667 7.36551 8.36329 8.15418C8.34557 8.573 8.25731 9.40256 7.75831 10.3088C7.18385 11.352 6.2151 12.211 4.97627 12.6209C3.8889 12.9806 2.96333 12.8731 2.48649 12.7794C1.98576 12.681 1.61471 12.5252 1.42686 12.4389C1.05849 12.2698 0.824441 12.1003 0.803849 12.0857C0.731376 12.0345 0.766752 12.0538 1.0095 12.2641L7.55655 4.70524ZM-0.93818 10.7317C-0.853215 10.9229 -0.951819 10.7458 -1.04027 10.3622C-1.06463 10.2565 -1.13439 9.94331 -1.15268 9.5237C-1.16182 9.31396 -1.16597 8.92497 -1.07989 8.44507C-1.00334 8.01825 -0.781831 7.08885 -0.0322664 6.17348C0.866796 5.07554 2.20341 4.40036 3.64975 4.3492C4.85691 4.3065 5.74633 4.70986 6.13926 4.91647C6.90715 5.32023 7.36374 5.82745 7.43945 5.90925L0.100931 12.7023C0.21089 12.8211 0.695482 13.3522 1.48532 13.7675C1.88923 13.9799 2.78811 14.3859 4.00324 14.343C5.45755 14.2915 6.80065 13.6131 7.70473 12.509C8.45931 11.5875 8.68437 10.6491 8.76303 10.2105C8.85122 9.71886 8.84773 9.31534 8.83784 9.08841C8.81806 8.63441 8.74113 8.27615 8.70412 8.11564C8.56507 7.51251 8.32818 6.95881 8.19939 6.66913L-0.93818 10.7317ZM7.44169 5.91166C7.67054 6.15922 7.80864 6.3645 7.84376 6.41687C7.89577 6.49442 7.92378 6.54335 7.92498 6.54543C7.92706 6.54904 7.89819 6.49811 7.83703 6.37452C7.7181 6.13419 7.55897 5.78544 7.38973 5.38671C7.22212 4.99183 7.06605 4.59853 6.94862 4.27676C6.8899 4.11586 6.84873 3.99443 6.8232 3.91348C6.79088 3.81101 6.80634 3.84524 6.83189 3.96824L-2.9591 6.00209C-2.74862 7.01535 -2.18071 8.43319 -1.81537 9.2939C-1.59579 9.81124 -1.35505 10.3461 -1.12552 10.8099C-1.01244 11.0384 -0.879921 11.2947 -0.737091 11.5423C-0.656844 11.6814 -0.360261 12.2035 0.0986965 12.6999L7.44169 5.91166ZM6.83177 3.96764L6.6673 3.17638L-3.12344 5.21143L-2.95897 6.00269L6.83177 3.96764ZM-1.89083 7.59747L-0.853544 8.71374L6.47197 1.90662L5.43469 0.790345L-1.89083 7.59747ZM-0.85308 8.71424C-0.0409728 9.58795 1.27006 10.7298 2.24902 11.4271L8.05082 3.28223C7.59602 2.95826 6.80024 2.2598 6.4715 1.90612L-0.85308 8.71424ZM33.2548 12.2423C33.2773 12.1777 33.3305 12.0368 33.4317 11.8504C33.5322 11.6655 33.7036 11.392 33.9765 11.0955L41.335 17.8668C42.0892 17.0473 42.483 16.1519 42.7017 15.5222L33.2548 12.2423ZM39.8779 10.5636C39.803 10.4607 39.7184 10.3374 39.6172 10.1849C39.5669 10.1092 39.5172 10.0335 39.4622 9.94947C39.4104 9.87045 39.349 9.7766 39.2898 9.68748L30.9605 15.2213C31.0739 15.392 31.4391 15.9625 31.7929 16.4486L39.8779 10.5636ZM39.2898 9.68754C39.2051 9.56008 39.0682 9.35581 38.9158 9.15313C38.8924 9.12205 38.416 8.44415 37.645 7.90336L31.9026 16.0902C31.6588 15.9192 31.4795 15.7596 31.3713 15.6575C31.2576 15.5501 31.1713 15.4576 31.1156 15.3955C31.0086 15.2761 30.9405 15.186 30.9224 15.162C30.8884 15.1167 30.89 15.1152 30.9605 15.2213L39.2898 9.68754ZM37.6453 7.90362C36.1435 6.85002 34.6046 6.9348 33.8659 7.06337C33.1139 7.19424 32.5593 7.46527 32.2919 7.60822C31.7322 7.90744 31.3238 8.25391 31.1228 8.4326C30.662 8.8424 30.2555 9.31073 29.9308 9.73792L37.8929 15.7882C37.942 15.7235 37.9162 15.7735 37.7678 15.9055C37.723 15.9453 37.4537 16.188 37.0066 16.427C36.7956 16.5399 36.2907 16.7917 35.5806 16.9153C34.8838 17.0365 33.3789 17.126 31.9022 16.09L37.6453 7.90362ZM29.9299 9.73921C29.9348 9.73277 29.9333 9.73487 29.9242 9.74604C29.9153 9.75697 29.9013 9.77379 29.8816 9.79665L37.4549 16.3269C37.5957 16.1637 37.7462 15.9813 37.8939 15.7869L29.9299 9.73921ZM29.8816 9.79666C29.7026 10.0043 29.3738 10.3418 28.9877 10.6988C28.8043 10.8683 28.6326 11.0194 28.4886 11.1399C28.3327 11.2704 28.2583 11.3239 28.2609 11.322L33.9815 19.5242C35.038 18.7873 36.5518 17.3743 37.4549 16.3269L29.8816 9.79666ZM35.4863 15.5549C35.4631 16.4067 35.2144 17.0244 35.0823 17.309C34.9303 17.6361 34.7696 17.8681 34.6595 18.0103C34.4411 18.2922 34.2234 18.4763 34.0291 18.6043L28.526 10.2547C27.8562 10.6962 27.2472 11.2498 26.7546 11.8855C26.4151 12.3237 25.5372 13.5447 25.49 15.2835L35.4863 15.5549ZM34.0309 18.6031C34.6458 18.1975 35.5823 17.4497 36.2845 16.8601L29.854 9.20191C29.5502 9.45698 29.2364 9.71109 28.9684 9.92051C28.6674 10.1556 28.5242 10.2559 28.5242 10.2559L34.0309 18.6031ZM36.2845 16.8601C36.4389 16.7305 36.5932 16.599 36.7438 16.4686L30.1951 8.91115C30.0876 9.00425 29.9729 9.10203 29.8539 9.20193L36.2845 16.8601ZM36.7438 16.4686C37.0843 16.1735 37.3701 15.9406 37.5426 15.808C37.6437 15.7303 37.6352 15.7416 37.5526 15.7953C37.5388 15.8043 37.3402 15.9367 37.0449 16.0752C36.9314 16.1284 36.5198 16.3208 35.9479 16.4371C35.6633 16.495 35.0808 16.5898 34.3473 16.4992C33.5841 16.4049 32.334 16.0596 31.2922 14.9311L38.6397 8.14775C37.5954 7.0165 36.3414 6.66947 35.5732 6.57458C34.8348 6.48337 34.246 6.57852 33.9541 6.63793C33.3674 6.7573 32.9362 6.95693 32.7989 7.02132C32.4558 7.18223 32.1917 7.35296 32.0967 7.41481C31.8519 7.5742 31.6184 7.7489 31.4482 7.87968C31.0782 8.16412 30.6364 8.52877 30.1951 8.91115L36.7438 16.4686ZM31.299 14.9384C32.2151 15.9268 33.4592 16.4788 34.7354 16.5436C35.8434 16.5998 36.6901 16.2793 37.1219 16.0792C37.944 15.6983 38.4679 15.1828 38.6168 15.0359C39.021 14.6371 39.3161 14.2231 39.4593 14.0165L31.24 8.32046C31.1932 8.3881 31.3211 8.18619 31.5933 7.91762C31.6762 7.83576 32.1429 7.36491 32.9181 7.00575C33.3265 6.81655 34.1524 6.50113 35.2423 6.55644C36.5004 6.6203 37.7292 7.16536 38.633 8.14043L31.299 14.9384ZM31.7852 5.56963C30.885 6.09237 29.7697 6.59183 29.2036 6.76745L32.1666 16.3184C33.651 15.8579 35.4673 14.9952 36.8068 14.2174L31.7852 5.56963ZM29.205 6.76702C29.1621 6.78032 29.1307 6.78978 29.1081 6.79643C29.0851 6.80317 29.077 6.80531 29.0803 6.80444L31.6679 16.4638C31.8473 16.4158 32.0199 16.3638 32.1652 16.3188L29.205 6.76702ZM29.0802 6.80445C29.0814 6.80413 29.1262 6.79201 29.2009 6.77665C29.2713 6.76217 29.4181 6.73436 29.6161 6.71603C29.8824 6.69138 30.9773 6.60016 32.2024 7.23413C33.7271 8.0232 34.4091 9.35332 34.6558 10.2739C34.8465 10.9853 34.8098 11.5484 34.8095 11.5545L24.8164 11.1837C24.8101 11.3546 24.7789 12.0498 24.9967 12.8624C25.2705 13.8842 26.0013 15.2847 27.6062 16.1153C28.9115 16.7908 30.1183 16.7123 30.5378 16.6735C31.0416 16.6268 31.464 16.5185 31.668 16.4638L29.0802 6.80445ZM34.8095 11.5547C34.8095 11.5547 34.8095 11.5564 34.8093 11.5596C34.8091 11.5628 34.8089 11.5677 34.8084 11.5742L24.8308 10.9055C24.8243 11.0022 24.8197 11.0951 24.8164 11.1835L34.8095 11.5547ZM30.6836 13.3505C30.8309 13.5044 31.0367 13.756 31.3659 14.19L39.3334 8.14693C38.986 7.68892 38.4843 7.0384 37.9084 6.43655L30.6836 13.3505ZM-0.0707427 12.3695C-0.195217 12.1409 -0.494473 11.548 -0.584125 10.6851C-0.621545 10.3249 -0.703001 9.23633 -0.102742 8.01736C0.23531 7.33087 0.81062 6.57216 1.71158 6.00679C2.61639 5.43899 3.56098 5.24746 4.34844 5.24746V15.2475C5.15218 15.2475 6.11064 15.0521 7.02693 14.4771C7.93935 13.9046 8.52375 13.1353 8.86853 12.4351C9.48224 11.1888 9.40483 10.0607 9.36234 9.65175C9.26256 8.69127 8.91673 7.96391 8.71168 7.58733L-0.0707427 12.3695ZM4.34844 5.24746C5.73059 5.24746 6.68124 5.82192 6.96377 6.00064C7.36094 6.25187 7.63346 6.50695 7.78439 6.66022C8.09372 6.97435 8.31396 7.29213 8.4747 7.58733L-0.307728 12.3695C-0.0664121 12.8127 0.253717 13.265 0.659088 13.6766C0.858032 13.8787 1.17761 14.1733 1.61798 14.4518C1.94371 14.6579 2.9337 15.2475 4.34844 15.2475V5.24746ZM8.4747 7.58733C8.59917 7.81593 8.89843 8.40878 8.98808 9.27173C9.0255 9.63192 9.10695 10.7205 8.50669 11.9395C8.16864 12.626 7.59332 13.3847 6.69237 13.95C5.78756 14.5178 4.84297 14.7094 4.05552 14.7094V4.70936C3.25177 4.70936 2.29332 4.90468 1.37704 5.47967C0.464612 6.05223 -0.119781 6.82155 -0.464563 7.52171C-1.07828 8.76801 -1.00087 9.89611 -0.958388 10.3051C-0.858604 11.2655 -0.512778 11.9929 -0.307728 12.3695L8.4747 7.58733ZM4.05552 14.7094C2.67336 14.7094 1.7227 14.1349 1.44018 13.9562C1.04301 13.705 0.770489 13.4499 0.619566 13.2966C0.310236 12.9825 0.0899982 12.6647 -0.0707427 12.3695L8.71168 7.58733C8.47037 7.14416 8.15024 6.69185 7.74487 6.28019C7.54593 6.07816 7.22635 5.78356 6.78598 5.50501C6.46026 5.29897 5.47026 4.70936 4.05552 4.70936V14.7094ZM3.56784 16.2263C4.45074 17.0429 5.84144 18.1442 6.89251 18.724L11.7231 9.96819C11.7798 9.99947 11.7561 9.98993 11.636 9.90758C11.5302 9.8351 11.3932 9.73605 11.2355 9.61565C10.9113 9.3682 10.5885 9.09827 10.3579 8.88493L3.56784 16.2263ZM6.89261 18.7241C7.0716 18.8228 7.04337 18.8205 6.91355 18.7213C6.84891 18.6719 6.65834 18.5226 6.43184 18.2734C6.25137 18.0749 5.74274 17.4867 5.44565 16.5356C5.08277 15.3738 5.09551 13.7784 6.06828 12.3442C6.8711 11.1607 7.92684 10.7009 8.33017 10.549C8.79967 10.3721 9.16877 10.3233 9.29657 10.3084C9.4545 10.29 9.55014 10.2906 9.55249 10.2906L9.55274 20.2906C9.89675 20.2906 10.8482 20.2865 11.8558 19.9069C12.3689 19.7135 13.4998 19.2024 14.3441 17.9577C15.3583 16.4624 15.3788 14.7962 14.9909 13.5541C14.6687 12.5227 14.1021 11.8447 13.8318 11.5473C13.5154 11.1992 13.203 10.942 12.9855 10.7757C12.5498 10.4428 12.0915 10.1714 11.723 9.96814L6.89261 18.7241ZM9.57529 10.2907C9.61471 10.2912 9.7102 10.2935 9.84724 10.3088C9.95387 10.3207 10.2615 10.3585 10.6591 10.4876C10.8823 10.56 12.0713 10.9373 13.0012 12.168C13.552 12.8969 13.963 13.8704 13.9948 15C14.025 16.0762 13.7016 16.9309 13.402 17.4812L4.61933 12.6994C4.29991 13.2861 3.96762 14.1741 3.99873 15.2809C4.03133 16.4411 4.45294 17.4425 5.0228 18.1967C5.9909 19.4778 7.25207 19.8953 7.57189 19.9991C8.42304 20.2754 9.20155 20.2868 9.45052 20.2899L9.57529 10.2907ZM9.01064 10.0903C9.66069 10.0903 10.1635 10.2194 10.4246 10.2984C10.7115 10.385 10.9323 10.4812 11.0655 10.5439C11.3255 10.6662 11.5034 10.7808 11.5629 10.8197C11.6927 10.9046 11.7427 10.9506 11.6809 10.9C11.579 10.8166 11.3801 10.6407 11.1157 10.3864C10.8615 10.1419 10.5983 9.87461 10.3724 9.63078C10.2603 9.50978 10.1667 9.4047 10.0937 9.3193C10.0577 9.27716 10.0301 9.24372 10.0101 9.21889C9.98958 9.19342 9.98173 9.18276 9.98395 9.18574L1.95014 15.1404C2.56263 15.9667 3.49279 16.9293 4.18371 17.5938C4.55423 17.9502 4.96342 18.3244 5.34711 18.6384C5.5281 18.7865 5.7903 18.9931 6.0896 19.1889C6.23388 19.2832 6.48589 19.4408 6.80785 19.5922C6.97607 19.6714 7.83738 20.0903 9.01064 20.0903V10.0903ZM9.98383 9.18558C9.75875 8.88195 9.82904 8.9472 9.9587 9.19252C10.001 9.27253 10.1108 9.48545 10.2163 9.78491C10.2694 9.9356 10.5922 10.8114 10.4571 11.9719C10.3788 12.6448 10.1162 13.6574 9.31741 14.6039C8.47783 15.5988 7.41027 16.0895 6.49653 16.2736C5.01476 16.5721 3.87607 16.0931 3.72217 16.0325C3.36368 15.8912 3.11262 15.7409 3.0238 15.6866C2.91047 15.6174 2.83371 15.5627 2.80565 15.5424C2.75124 15.5031 2.74929 15.4981 2.82152 15.5585C2.96041 15.6746 3.20043 15.8865 3.56824 16.2267L10.3575 8.88456C9.94595 8.50403 9.56359 8.1606 9.23434 7.88543C9.07249 7.75017 8.87504 7.59063 8.66334 7.43762C8.55608 7.3601 8.06071 6.99377 7.38928 6.72911C7.19479 6.65245 6.02498 6.16765 4.52152 6.47055C3.59693 6.65683 2.52088 7.15229 1.67517 8.15441C0.870207 9.10823 0.603892 10.1306 0.524139 10.8158C0.386181 12.0011 0.715463 12.9117 0.7844 13.1074C0.905745 13.4519 1.04078 13.72 1.11757 13.8653C1.38524 14.3717 1.74236 14.8601 1.95026 15.1406L9.98383 9.18558ZM14.2501 18.414L18.4566 18.5337L18.7411 8.53777L14.5346 8.41805L14.2501 18.414ZM18.4565 18.5337C20.3045 18.5863 21.154 18.6343 21.6578 18.6989C21.8627 18.7253 21.9325 18.7456 21.9394 18.7476C21.9428 18.7485 21.9797 18.7576 22.1211 18.8201L26.1661 9.67471C23.9783 8.70701 22.2011 8.63629 18.7411 8.53778L18.4565 18.5337ZM0.0677671 0L8.70653 -5.03704L-0.231184 -20.3656L-8.71512 -4.78131L0.0677671 0ZM0.543397 4.26305L-9.21662 6.44067L-9.2165 6.44121L0.543397 4.26305ZM6.86806 15.2741L0.281412 22.7984L3.08314 25.251L6.80661 25.2739L6.86806 15.2741ZM9.5129 15.2903L9.63778 5.2911L9.60607 5.2907L9.57436 5.29051L9.5129 15.2903ZM9.55261 15.2906L9.61407 5.29075L9.58334 5.29056H9.55261V15.2906ZM30.4881 15.4192L40.4844 15.6906L40.7616 5.48217L30.5496 5.41941L30.4881 15.4192ZM31.1212 15.4231L31.1826 5.42331L28.0061 5.40378L25.4006 7.22099L31.1212 15.4231ZM33.6166 15.4385L33.5551 25.4383L37.8617 25.4647L40.84 22.3538L33.6166 15.4385ZM34.7491 14.2555L27.5261 7.33968L27.5258 7.34006L34.7491 14.2555ZM35.8354 13.5061L43.9204 7.62111L39.5085 1.55996L32.4535 4.09532L35.8354 13.5061ZM37.9783 13.8822L28.5311 10.6033L25.9486 18.0439L32.5769 22.298L37.9783 13.8822ZM40.9837 15.439L50.957 14.7077L50.9569 14.7071L40.9837 15.439ZM40.9081 14.4088L50.8813 13.6769L48.7405 -15.4949L32.5743 8.88188L40.9081 14.4088ZM39.8488 16.0061L31.515 10.4792L31.5145 10.4799L39.8488 16.0061ZM37.6558 14.4811L46.1483 9.20131L39.2036 -1.96917L30.2971 7.70982L37.6558 14.4811ZM29.8196 11.2398L24.0176 19.3846L38.5996 29.7722L39.7972 11.9088L29.8196 11.2398ZM22.8518 8.16208L21.7511 18.1013L21.7513 18.1013L22.8518 8.16208ZM8.44117 7.82604L3.53304 16.5387L5.81827 17.826H8.44117V7.82604ZM7.00599 7.01755L11.9141 -1.6951L11.9136 -1.69538L7.00599 7.01755ZM35.3497 11.1685L27.1304 5.47249L22.9996 11.4333L27.3821 17.2115L35.3497 11.1685ZM36.4168 9.21028L27.2883 5.12723L27.2883 5.12726L36.4168 9.21028ZM36.6272 8.25759L42.3458 16.4611L42.3513 16.4573L36.6272 8.25759ZM35.3655 9.19791L29.3088 1.24074L29.3069 1.24221L35.3655 9.19791ZM34.296 9.89352L27.0712 16.8075L32.5122 22.493L39.3176 18.5413L34.296 9.89352ZM32.266 9.03728L28.3392 -0.159469L28.3382 -0.159038L32.266 9.03728ZM37.7026 13.0369L29.9991 6.66078L29.9979 6.66222L37.7026 13.0369ZM38.3529 12.4544L30.8489 19.0642L30.857 19.0734L30.8652 19.0827L38.3529 12.4544ZM-8.71512 -4.78131C-9.6586 -3.04821 -9.85437 -1.45641 -9.90546 -1.05092C-9.98898 -0.387904 -10.0009 0.183172 -9.99995 0.553424C-9.99796 1.31213 -9.93556 2.03889 -9.87154 2.61263C-9.73872 3.80309 -9.50588 5.14424 -9.21662 6.44067L10.3034 2.08543C10.1426 1.36482 10.0443 0.745962 10.0051 0.394908C9.98314 0.197903 9.99934 0.258533 9.99998 0.500921C10.0003 0.613013 9.99886 0.963383 9.93772 1.44879C9.90633 1.6979 9.84537 2.0962 9.71972 2.58275C9.60478 3.02783 9.36141 3.84308 8.85065 4.78131L-8.71512 -4.78131ZM-9.2165 6.44121C-7.87566 12.4493 -4.3851 18.7135 0.281412 22.7984L13.4547 7.7497C12.281 6.72222 10.8076 4.34466 10.3033 2.08489L-9.2165 6.44121ZM6.80661 25.2739L9.45145 25.2901L9.57436 5.29051L6.92952 5.27425L6.80661 25.2739ZM9.5525 25.2906H9.55261V5.29056H9.5525V25.2906ZM9.49116 25.2904L30.4267 25.419L30.5496 5.41941L9.61407 5.29075L9.49116 25.2904ZM31.0597 25.4229L33.5551 25.4383L33.678 5.43864L31.1826 5.42331L31.0597 25.4229ZM40.84 22.3538L41.9725 21.1708L27.5258 7.34006L26.3932 8.52306L40.84 22.3538ZM41.9722 21.1712C41.4903 21.6745 40.5917 22.423 39.2173 22.9169L32.4535 4.09532C30.3646 4.846 28.739 6.07297 27.5261 7.33968L41.9722 21.1712ZM32.5769 22.298C32.3411 22.1467 32.1881 22.0229 32.122 21.9673C32.054 21.91 32.0325 21.8864 32.0657 21.9193C32.0991 21.9523 32.1572 22.0118 32.2626 22.125C32.3155 22.1818 32.3702 22.2412 32.4419 22.3191C32.5065 22.3893 32.596 22.4867 32.685 22.5823L47.326 8.95736C47.2528 8.87864 45.5185 6.83922 43.3796 5.46646L32.5769 22.298ZM32.685 22.5823C32.8442 22.7534 33.355 23.3077 33.9798 23.8402C34.2979 24.1113 34.9256 24.6215 35.7921 25.1028C36.5419 25.5193 38.3886 26.4398 40.9275 26.4059C44.0561 26.3641 46.8348 24.9003 48.6512 22.6738C50.1232 20.8695 50.5904 19.0368 50.7577 18.2412C51.0971 16.6278 50.993 15.1989 50.957 14.7077L31.0105 16.1702C31.009 16.15 30.9964 15.9808 31.001 15.7132C31.0048 15.4882 31.0235 14.8971 31.1859 14.1247C31.3208 13.4838 31.7416 11.7625 33.154 10.0311C34.9109 7.87755 37.6169 6.44833 40.6604 6.40768C43.1141 6.37491 44.8632 7.26314 45.5036 7.61889C46.2607 8.03942 46.7672 8.46034 46.953 8.61862C47.3132 8.92564 47.5149 9.16028 47.326 8.95736L32.685 22.5823ZM50.9569 14.7071L50.8813 13.6769L30.9349 15.1407L31.0105 16.1708L50.9569 14.7071ZM32.5743 8.88188L31.6716 10.2429L48.3394 21.2967L49.242 19.9357L32.5743 8.88188ZM31.6716 10.2429L31.515 10.4792L48.1827 21.533L48.3394 21.2968L31.6716 10.2429ZM31.5145 10.4799C32.2691 9.34188 34.7009 6.44172 39.1637 6.35943C42.9384 6.28984 45.2156 8.39053 45.612 8.75815C45.9692 9.08942 46.2011 9.36527 46.3038 9.49206C46.3624 9.56446 46.4047 9.62039 46.4297 9.65419C46.455 9.68836 46.4691 9.70873 46.4709 9.71129C46.4712 9.71175 46.4468 9.6763 46.3858 9.5806C46.3231 9.48228 46.2539 9.37115 46.1483 9.20131L29.1632 19.761C29.2456 19.8936 30.421 21.9469 32.0124 23.4227C32.7765 24.1314 35.4116 26.432 39.5324 26.356C44.3413 26.2674 47.1075 23.1545 48.1831 21.5323L31.5145 10.4799ZM35.6216 3.0951C33.8096 1.8043 29.8106 -1.12856 23.9522 -1.77719L21.7513 18.1013C22.0183 18.1309 22.3212 18.1761 24.0176 19.3846L35.6216 3.0951ZM23.9525 -1.77717C21.7303 -2.02325 17.3695 -2.17396 14.1291 -2.17396V17.826C17.1455 17.826 20.6351 17.9777 21.7511 18.1013L23.9525 -1.77717ZM14.1291 -2.17396H8.44117V17.826H14.1291V-2.17396ZM13.3493 -0.88661L11.9141 -1.6951L2.09785 15.7302L3.53304 16.5387L13.3493 -0.88661ZM11.9136 -1.69538C11.9417 -1.67956 11.7733 -1.77581 11.4295 -2.05327C11.1058 -2.3145 10.7268 -2.65542 10.3327 -3.05359C9.47801 -3.91718 8.91387 -4.68144 8.70653 -5.03704L-8.57099 5.03704C-7.27893 7.25299 -5.53921 9.34116 -3.88229 11.0153C-2.25726 12.6572 -0.162484 14.457 2.09836 15.7305L11.9136 -1.69538ZM30.2971 7.70982C31.8143 6.06103 34.2723 4.65662 37.32 4.68263C39.9014 4.70465 41.6734 5.75545 42.3604 6.21841C43.6175 7.06547 44.1629 7.95427 43.9204 7.62111L27.7504 19.3911C28.1003 19.8718 29.2952 21.5314 31.184 22.8041C32.1869 23.48 34.2703 24.6573 37.1494 24.6819C40.4947 24.7104 43.2365 23.1845 45.0144 21.2524L30.2971 7.70982ZM25.4006 7.22099C25.4748 7.16923 25.7754 6.96012 26.2284 6.72208C26.4552 6.60292 26.8822 6.39022 27.4534 6.18796C27.9103 6.0262 29.1154 5.6284 30.7261 5.6284V25.6284C33.4613 25.6284 35.4627 24.4628 35.5319 24.4264C36.1187 24.1181 36.5821 23.8063 36.8418 23.6252L25.4006 7.22099ZM30.7261 5.6284C32.1225 5.6284 34.9101 5.96457 37.3725 8.26694C39.9865 10.7109 40.5368 13.7623 40.4844 15.6906L20.4918 15.1478C20.436 17.2031 21.0214 20.3591 23.7132 22.8759C26.2536 25.2511 29.1619 25.6284 30.7261 25.6284V5.6284ZM43.5689 16.8644C44.3118 15.7924 45.0243 14.4581 45.5453 13.2933L27.2883 5.12726C27.2653 5.17885 27.2358 5.24151 27.2012 5.31073C27.1668 5.37974 27.1327 5.44479 27.102 5.50085C27.0705 5.55816 27.0502 5.59248 27.0445 5.60182C27.0351 5.61742 27.0634 5.56914 27.1304 5.47249L43.5689 16.8644ZM45.5453 13.2933C45.755 12.8243 46.2053 11.7895 46.4716 10.5836C46.5475 10.2401 46.6698 9.61546 46.71 8.8332C46.7362 8.32373 46.8291 6.39273 45.8569 4.2008C45.3018 2.94921 44.2585 1.30491 42.3892 0.0126738C40.444 -1.33203 38.3203 -1.79911 36.4969 -1.76502C33.4245 -1.70758 31.3623 -0.262634 30.9032 0.0578543L42.3513 16.4573C41.9383 16.7456 39.9138 18.1746 36.8708 18.2315C35.0621 18.2653 32.9511 17.8018 31.0164 16.4644C29.1577 15.1795 28.1229 13.5462 27.5744 12.3093C26.6152 10.1468 26.7131 8.2597 26.7363 7.80781C26.7735 7.08312 26.885 6.52976 26.9423 6.27022C27.1344 5.40048 27.3871 4.9064 27.2883 5.12723L45.5453 13.2933ZM30.9087 0.0540628C30.5341 0.315154 29.7971 0.869071 29.3088 1.24074L41.4222 17.1551C41.6568 16.9765 41.9021 16.7919 42.103 16.6421C42.2037 16.5671 42.2851 16.5069 42.3434 16.4641C42.4216 16.4068 42.4076 16.4181 42.3458 16.4611L30.9087 0.0540628ZM29.3069 1.24221C29.3361 1.21999 29.3603 1.20208 29.379 1.18851C29.3978 1.1749 29.4123 1.16465 29.4222 1.15776C29.4413 1.14445 29.4474 1.1407 29.4386 1.14636C29.4303 1.15179 29.412 1.16346 29.3831 1.18111C29.3545 1.19865 29.3183 1.2203 29.2744 1.24575L39.3176 18.5413C39.9324 18.1843 40.69 17.7127 41.4242 17.1536L29.3069 1.24221ZM39.7972 11.9088C39.7725 12.278 39.6764 13.2817 39.161 14.4961C38.5976 15.8235 37.7808 16.8329 36.9987 17.5317C36.3314 18.1279 35.7853 18.4104 35.7492 18.4295C35.6922 18.4597 35.7813 18.4098 36.1938 18.2336L28.3382 -0.159038C27.5866 0.161988 25.4493 1.0306 23.6731 2.61767C22.5319 3.63732 21.4738 4.97825 20.7505 6.68246C20.0751 8.27368 19.9004 9.69962 19.842 10.5709L39.7972 11.9088ZM36.1928 18.234C33.2251 19.5012 30.4957 18.8496 28.9634 18.1157C28.2734 17.7852 27.7978 17.4366 27.5429 17.2325C27.2795 17.0217 27.1205 16.8589 27.0712 16.8075L41.5208 2.97958C40.8638 2.29304 39.5406 1.00615 37.6035 0.0782741C35.3907 -0.981674 31.979 -1.71359 28.3392 -0.159469L36.1928 18.234ZM27.3821 17.2115C27.4984 17.3649 28.6126 18.9226 29.7184 19.9974C30.1819 20.448 31.9191 22.1397 34.7034 22.8712C36.3483 23.3034 38.4595 23.424 40.6931 22.668C42.8897 21.9244 44.4272 20.5963 45.4074 19.4116L29.9979 6.66222C30.8435 5.64015 32.2369 4.41562 34.2806 3.72385C36.3611 3.01959 38.3106 3.14018 39.7855 3.52768C42.2298 4.16988 43.5945 5.59385 43.6585 5.65606C43.965 5.95404 44.1718 6.25224 43.3172 5.12539L27.3821 17.2115ZM45.4062 19.413C45.3513 19.4793 45.157 19.7124 44.7978 20.034C44.6872 20.1331 44.1516 20.6172 43.3261 21.1004C42.9922 21.2958 41.9073 21.9193 40.3481 22.2416C38.9567 22.5292 34.3624 23.0531 30.8489 19.0642L45.857 5.84465C42.3315 1.84218 37.7177 2.3625 36.2999 2.65555C34.7144 2.98326 33.5964 3.62127 33.2236 3.83949C32.3201 4.36829 31.683 4.9312 31.4545 5.13582C30.8596 5.66865 30.3639 6.21996 29.9991 6.66078L45.4062 19.413ZM30.8652 19.0827C29.8406 17.9252 29.2986 16.7728 29.0132 16.0244C28.7185 15.2517 28.5752 14.5859 28.5001 14.143C28.3546 13.2848 28.3565 12.5994 28.3634 12.2829C28.3779 11.6185 28.4592 11.1184 28.4832 10.9726C28.5182 10.7601 28.5522 10.6042 28.5684 10.5326C28.5867 10.4514 28.6007 10.3971 28.6063 10.3756C28.6196 10.3251 28.5965 10.4151 28.5311 10.6033L47.4254 17.1612C47.6139 16.6182 47.802 16.0212 47.9511 15.4531C48.0169 15.2026 48.1305 14.7502 48.2174 14.2223C48.2544 13.9973 48.343 13.4324 48.3586 12.7197C48.366 12.3791 48.3668 11.6735 48.2187 10.7996C48.1221 10.2301 47.7259 7.9558 45.8407 5.82616L30.8652 19.0827ZM9.5525 5.29056C9.57948 5.29056 9.60792 5.29072 9.63778 5.2911L9.38803 25.2895C9.44416 25.2902 9.49901 25.2906 9.5525 25.2906V5.29056Z" fill="#100405" mask="url(#path-2-inside-1_2083_3855)"/>
<mask id="path-4-inside-2_2083_3855" fill="white">
<path d="M69.4566 4.26305C69.9066 2.24601 70.119 0.343035 69.9322 0C68.4328 2.57155 65.3245 5.70487 62.994 7.01755L61.5588 7.82604H55.8709C52.7425 7.82604 48.8173 7.97724 47.1482 8.16208C44.0856 8.50117 41.9346 9.99021 40.1804 11.2398C40.113 10.2356 39.6865 9.87121 37.734 9.03728C37.0619 8.7503 36.3695 9.19807 35.704 9.89352C35.2855 9.6505 34.9153 9.41178 34.6345 9.19791C34.1131 8.80106 33.5453 8.37785 33.3728 8.25759C33.1881 8.12872 33.2746 8.52045 33.5832 9.21028C33.921 9.9655 34.3448 10.7276 34.6503 11.1685C33.6794 12.4487 32.8356 13.6875 32.2974 13.0369C31.9874 12.6624 31.6947 12.4003 31.6471 12.4544C31.5992 12.5085 31.7679 13.151 32.0217 13.8822C31.2188 14.3976 30.5183 15.207 29.9945 15.7698L29.0919 14.4088L29.0163 15.439C28.9142 16.8306 29.2983 16.5179 29.9945 15.7698L30.1512 16.0061C30.7933 16.9745 31.5424 15.7709 32.3442 14.4811C32.8656 15.0477 33.5722 14.3199 34.1646 13.5061C34.5219 13.6345 34.8854 13.8738 35.2509 14.2555L36.3834 15.4385L38.8788 15.4231C39.0643 15.5525 39.2043 15.6284 39.2739 15.6284C39.4417 15.6284 39.5153 15.5462 39.5119 15.4192L60.4474 15.2906H60.4475C60.4608 15.2906 60.474 15.2905 60.4871 15.2903L63.1319 15.2741C66.0521 12.7178 68.534 8.39696 69.4566 4.26305Z"/>
</mask>
<path d="M69.4566 4.26305C69.9066 2.24601 70.119 0.343035 69.9322 0C68.4328 2.57155 65.3245 5.70487 62.994 7.01755L61.5588 7.82604H55.8709C52.7425 7.82604 48.8173 7.97724 47.1482 8.16208C44.0856 8.50117 41.9346 9.99021 40.1804 11.2398C40.113 10.2356 39.6865 9.87121 37.734 9.03728C37.0619 8.7503 36.3695 9.19807 35.704 9.89352C35.2855 9.6505 34.9153 9.41178 34.6345 9.19791C34.1131 8.80106 33.5453 8.37785 33.3728 8.25759C33.1881 8.12872 33.2746 8.52045 33.5832 9.21028C33.921 9.9655 34.3448 10.7276 34.6503 11.1685C33.6794 12.4487 32.8356 13.6875 32.2974 13.0369C31.9874 12.6624 31.6947 12.4003 31.6471 12.4544C31.5992 12.5085 31.7679 13.151 32.0217 13.8822C31.2188 14.3976 30.5183 15.207 29.9945 15.7698L29.0919 14.4088L29.0163 15.439C28.9142 16.8306 29.2983 16.5179 29.9945 15.7698L30.1512 16.0061C30.7933 16.9745 31.5424 15.7709 32.3442 14.4811C32.8656 15.0477 33.5722 14.3199 34.1646 13.5061C34.5219 13.6345 34.8854 13.8738 35.2509 14.2555L36.3834 15.4385L38.8788 15.4231C39.0643 15.5525 39.2043 15.6284 39.2739 15.6284C39.4417 15.6284 39.5153 15.5462 39.5119 15.4192L60.4474 15.2906H60.4475C60.4608 15.2906 60.474 15.2905 60.4871 15.2903L63.1319 15.2741C66.0521 12.7178 68.534 8.39696 69.4566 4.26305Z" fill="#100405"/>
<path d="M60.4871 15.2903L60.5495 20.2899L60.5337 20.2901L60.5179 20.2902L60.4871 15.2903ZM39.5119 15.4192L44.51 15.2835L44.6486 20.3877L39.5426 20.4191L39.5119 15.4192ZM38.8788 15.4231L38.9095 20.423L37.3213 20.4328L36.0185 19.5242L38.8788 15.4231ZM34.1646 13.5061L38.2071 16.4486L36.0012 19.4792L32.4737 18.2115L34.1646 13.5061ZM32.0217 13.8822L27.2983 15.5222L26.0066 11.8016L29.3211 9.67436L32.0217 13.8822ZM32.3442 14.4811L36.5905 17.121L33.1182 22.7063L28.665 17.8668L32.3442 14.4811ZM40.1804 11.2398L37.2794 7.16748L44.5705 1.97356L45.1692 10.9055L40.1804 11.2398ZM64.8501 7.35467L67.751 11.4271L67.7505 11.4274L64.8501 7.35467ZM59.4027 11.2319L64.4025 11.2837L64.4025 11.2845L59.4027 11.2319ZM65.717 8.48466L68.9905 12.2641L68.9897 12.2647L65.717 8.48466ZM66.3694 8.70044L61.8006 6.66913L61.8008 6.66871L66.3694 8.70044ZM66.2298 9.30579L69.9013 12.6999L69.8991 12.7023L66.2298 9.30579ZM68.0636 4.98517L63.1681 3.96824L63.1682 3.96764L68.0636 4.98517ZM68.2281 4.19391L64.5653 0.790345L76.7731 -12.3471L73.1234 5.21143L68.2281 4.19391ZM67.1908 5.31018L70.8535 8.71374L70.8531 8.71424L67.1908 5.31018ZM35.2262 11.9968L38.0978 16.09L38.0974 16.0902L35.2262 11.9968ZM36.0881 12.763L40.0692 9.73792L40.0701 9.73921L36.0881 12.763ZM38.7225 14.4295L35.9709 18.6043L35.9691 18.6031L38.7225 14.4295ZM36.5306 12.6899L33.2562 16.4686L33.2562 16.4686L36.5306 12.6899ZM35.034 11.5394L38.7078 14.9311L38.701 14.9384L35.034 11.5394ZM34.6503 11.1685L30.5407 14.0165L28.4753 11.0361L30.6666 8.14693L34.6503 11.1685ZM35.704 9.89352L32.0916 6.43655L34.8121 3.59377L38.2148 5.56963L35.704 9.89352ZM39.3149 11.5429L37.8348 16.3188L37.8334 16.3184L39.3149 11.5429ZM40.187 11.3691L45.1836 11.1835L45.1836 11.1837L40.187 11.3691ZM63.0371 12.5556L59.6421 8.88493L59.6425 8.88456L63.0371 12.5556ZM60.6922 14.3461L63.1075 18.724L63.1074 18.7241L60.6922 14.3461ZM60.9894 15.0903L56.598 17.4812L52.574 10.0903H60.9894V15.0903ZM64.033 12.1631L60.0161 9.18574L60.0162 9.18558L64.033 12.1631ZM51.4012 13.5358L51.2589 8.53778L51.2589 8.53777L51.4012 13.5358ZM60.5179 20.2902L60.4783 20.2905L60.4167 10.2907L60.4563 10.2904L60.5179 20.2902ZM39.5426 20.4191L38.9095 20.423L38.8481 10.4232L39.4812 10.4193L39.5426 20.4191ZM31.1203 14.969L31.8145 13.4075L40.9523 17.4694L40.2582 19.031L31.1203 14.969ZM32.4737 18.2115C33.0717 18.4264 33.668 18.4225 34.1291 18.3172L31.9015 8.5684C33.106 8.29318 34.4724 8.30363 35.8556 8.80071L32.4737 18.2115ZM34.1291 18.3172C34.5037 18.2316 34.7076 18.0996 34.7224 18.0901L29.3211 9.67436C29.9693 9.25828 30.8387 8.81125 31.9015 8.56841L34.1291 18.3172ZM28.098 11.8412C28.3021 11.5129 28.6001 11.0308 28.9203 10.5738L37.1103 16.3118C36.9766 16.5025 36.8266 16.7414 36.5905 17.121L28.098 11.8412ZM28.9203 10.5738C29.2605 10.0882 30.0408 9.00157 31.2413 8.23276C31.9166 7.80029 32.973 7.30566 34.3275 7.28452C35.7653 7.26208 37.0004 7.78118 37.9238 8.49156L31.826 16.4173C32.4363 16.8868 33.3583 17.3009 34.4836 17.2833C35.5255 17.267 36.2699 16.8873 36.6344 16.6538C36.9897 16.4263 37.173 16.2193 37.1893 16.2012C37.2198 16.1673 37.1957 16.1899 37.1103 16.3118L28.9203 10.5738ZM37.9237 8.49152C37.8711 8.45106 37.7331 8.35465 37.5084 8.26261C37.276 8.16738 37.0022 8.09806 36.7061 8.07582L35.9574 18.0478C34.3523 17.9272 32.965 17.2936 31.826 16.4173L37.9237 8.49152ZM36.7061 8.07582C36.4632 8.05758 36.2516 8.07448 36.0854 8.103L37.7762 17.959C37.21 18.0562 36.6 18.096 35.9574 18.0478L36.7061 8.07582ZM36.0854 8.103C35.7609 8.15867 35.6436 8.25318 35.8215 8.15545C35.8987 8.11301 36.0112 8.04586 36.1721 7.94055C36.3333 7.83501 36.517 7.70845 36.7429 7.549L42.5089 15.7193C41.684 16.3014 39.9201 17.5913 37.7761 17.959L36.0854 8.103ZM36.7429 7.54899C36.9116 7.42997 37.08 7.30951 37.2794 7.16748L43.0814 15.3122C42.9023 15.4398 42.7015 15.5833 42.5089 15.7193L36.7429 7.54899ZM67.7505 11.4274C66.7638 12.1301 65.4426 12.8559 64.3675 13.3821C63.8091 13.6553 63.2192 13.9228 62.674 14.1352C62.4051 14.2399 62.0849 14.3556 61.7484 14.4525C61.5267 14.5163 60.8526 14.7094 60.0383 14.7094V4.70936C59.645 4.70936 59.3539 4.76057 59.2414 4.78204C59.105 4.80806 59.0135 4.83366 58.983 4.84243C58.9251 4.85911 58.9389 4.8582 59.0448 4.81695C59.2492 4.73735 59.5719 4.59566 59.9719 4.39993C60.3623 4.20887 60.7717 3.99308 61.1424 3.78191C61.5271 3.56274 61.8004 3.38816 61.9496 3.28191L67.7505 11.4274ZM60.0383 14.7094C61.9942 14.7094 63.1606 13.5859 63.5241 13.1817C63.9546 12.7031 64.1496 12.2717 64.2191 12.1053C64.3708 11.7417 64.4004 11.479 64.4025 11.2837L54.403 11.1801C54.4131 10.2078 54.6023 9.18377 54.9908 8.25318C55.1786 7.80335 55.5112 7.13692 56.0892 6.49424C56.6003 5.92604 57.9242 4.70936 60.0383 4.70936V14.7094ZM64.4025 11.2845C64.4094 10.623 64.2801 9.84037 63.8873 9.05499C63.4926 8.26567 62.9336 7.67772 62.3659 7.27104C61.339 6.53541 60.3436 6.42434 60.018 6.39725C59.603 6.36273 59.2999 6.39783 59.1935 6.4117C59.0628 6.42874 58.9866 6.44738 58.9819 6.4485C58.9761 6.44989 59.0648 6.42745 59.2612 6.3566C59.4455 6.29011 59.6747 6.19908 59.9373 6.08483C60.4683 5.85381 61.0462 5.56683 61.5541 5.27791C61.8056 5.13485 62.0178 5.00387 62.1847 4.8921C62.267 4.83695 62.3309 4.79145 62.3778 4.75639C62.4257 4.72055 62.4459 4.70308 62.4442 4.70459L68.9897 12.2647C67.579 13.4861 65.445 14.594 63.927 15.2545C63.1342 15.5994 62.1953 15.9607 61.3217 16.1709C60.9782 16.2536 60.1481 16.4426 59.189 16.3628C58.7336 16.3249 57.6374 16.1849 56.5423 15.4004C55.1486 14.402 54.3858 12.8131 54.403 11.1793L64.4025 11.2845ZM62.4434 4.70524C62.7025 4.48085 63.0578 4.17898 63.4195 3.92304C63.5846 3.80614 63.9379 3.56343 64.4013 3.3507C64.6367 3.24266 65.0493 3.07238 65.5856 2.96701C66.098 2.86632 67.0533 2.75926 68.1646 3.12693C71.1475 4.11375 71.5923 6.89427 71.6278 7.7314C71.6644 8.59622 71.4685 9.28029 71.4139 9.47195C71.2676 9.98575 71.0528 10.474 70.938 10.7322L61.8008 6.66871C61.9188 6.40327 61.8643 6.49414 61.7962 6.73349C61.7807 6.78793 61.6033 7.36551 61.6367 8.15418C61.6544 8.573 61.7427 9.40256 62.2417 10.3088C62.8162 11.352 63.7849 12.211 65.0237 12.6209C66.1111 12.9806 67.0367 12.8731 67.5135 12.7794C68.0142 12.681 68.3853 12.5252 68.5731 12.4389C68.9415 12.2698 69.1756 12.1003 69.1962 12.0857C69.2686 12.0345 69.2332 12.0538 68.9905 12.2641L62.4434 4.70524ZM70.9382 10.7317C70.8532 10.9229 70.9518 10.7458 71.0403 10.3622C71.0646 10.2565 71.1344 9.94331 71.1527 9.5237C71.1618 9.31396 71.166 8.92497 71.0799 8.44507C71.0033 8.01825 70.7818 7.08885 70.0323 6.17348C69.1332 5.07554 67.7966 4.40036 66.3503 4.3492C65.1431 4.3065 64.2537 4.70986 63.8607 4.91647C63.0929 5.32023 62.6363 5.82745 62.5605 5.90925L69.8991 12.7023C69.7891 12.8211 69.3045 13.3522 68.5147 13.7675C68.1108 13.9799 67.2119 14.3859 65.9968 14.343C64.5424 14.2915 63.1994 13.6131 62.2953 12.509C61.5407 11.5875 61.3156 10.6491 61.237 10.2105C61.1488 9.71886 61.1523 9.31534 61.1622 9.08841C61.1819 8.63441 61.2589 8.27615 61.2959 8.11564C61.4349 7.51251 61.6718 6.95881 61.8006 6.66913L70.9382 10.7317ZM62.5583 5.91166C62.3295 6.15922 62.1914 6.3645 62.1562 6.41687C62.1042 6.49442 62.0762 6.54335 62.075 6.54543C62.0729 6.54904 62.1018 6.49811 62.163 6.37452C62.2819 6.13419 62.441 5.78544 62.6103 5.38671C62.7779 4.99183 62.9339 4.59853 63.0514 4.27676C63.1101 4.11586 63.1513 3.99443 63.1768 3.91348C63.2091 3.81101 63.1937 3.84524 63.1681 3.96824L72.9591 6.00209C72.7486 7.01535 72.1807 8.43319 71.8154 9.2939C71.5958 9.81124 71.3551 10.3461 71.1255 10.8099C71.0124 11.0384 70.8799 11.2947 70.7371 11.5423C70.6568 11.6814 70.3603 12.2035 69.9013 12.6999L62.5583 5.91166ZM63.1682 3.96764L63.3327 3.17638L73.1234 5.21143L72.959 6.00269L63.1682 3.96764ZM71.8908 7.59747L70.8535 8.71374L63.528 1.90662L64.5653 0.790345L71.8908 7.59747ZM70.8531 8.71424C70.041 9.58795 68.7299 10.7298 67.751 11.4271L61.9492 3.28223C62.404 2.95826 63.1998 2.2598 63.5285 1.90612L70.8531 8.71424ZM36.7452 12.2423C36.7227 12.1777 36.6695 12.0368 36.5683 11.8504C36.4678 11.6655 36.2964 11.392 36.0235 11.0955L28.665 17.8668C27.9108 17.0473 27.517 16.1519 27.2983 15.5222L36.7452 12.2423ZM30.1221 10.5636C30.197 10.4607 30.2816 10.3374 30.3828 10.1849C30.4331 10.1092 30.4828 10.0335 30.5378 9.94947C30.5896 9.87045 30.651 9.7766 30.7102 9.68748L39.0395 15.2213C38.9261 15.392 38.5609 15.9625 38.2071 16.4486L30.1221 10.5636ZM30.7102 9.68754C30.7949 9.56008 30.9318 9.35581 31.0842 9.15313C31.1076 9.12205 31.584 8.44415 32.355 7.90336L38.0974 16.0902C38.3412 15.9192 38.5205 15.7596 38.6287 15.6575C38.7424 15.5501 38.8287 15.4576 38.8844 15.3955C38.9914 15.2761 39.0595 15.186 39.0776 15.162C39.1116 15.1167 39.11 15.1152 39.0395 15.2213L30.7102 9.68754ZM32.3547 7.90362C33.8565 6.85002 35.3954 6.9348 36.1341 7.06337C36.8861 7.19424 37.4407 7.46527 37.7081 7.60822C38.2678 7.90744 38.6762 8.25391 38.8772 8.4326C39.338 8.8424 39.7445 9.31073 40.0692 9.73792L32.1071 15.7882C32.058 15.7235 32.0838 15.7735 32.2322 15.9055C32.277 15.9453 32.5463 16.188 32.9934 16.427C33.2044 16.5399 33.7093 16.7917 34.4194 16.9153C35.1162 17.0365 36.6211 17.126 38.0978 16.09L32.3547 7.90362ZM40.0701 9.73921C40.0652 9.73277 40.0667 9.73487 40.0758 9.74604C40.0847 9.75697 40.0987 9.77379 40.1184 9.79665L32.5451 16.3269C32.4043 16.1637 32.2538 15.9813 32.1061 15.7869L40.0701 9.73921ZM40.1184 9.79666C40.2974 10.0043 40.6262 10.3418 41.0123 10.6988C41.1957 10.8683 41.3674 11.0194 41.5114 11.1399C41.6673 11.2704 41.7417 11.3239 41.7391 11.322L36.0185 19.5242C34.962 18.7873 33.4482 17.3743 32.5451 16.3269L40.1184 9.79666ZM34.5137 15.5549C34.5369 16.4067 34.7856 17.0244 34.9177 17.309C35.0697 17.6361 35.2304 17.8681 35.3405 18.0103C35.5589 18.2922 35.7766 18.4763 35.9709 18.6043L41.474 10.2547C42.1438 10.6962 42.7528 11.2498 43.2454 11.8855C43.5849 12.3237 44.4628 13.5447 44.51 15.2835L34.5137 15.5549ZM35.9691 18.6031C35.3542 18.1975 34.4177 17.4497 33.7155 16.8601L40.146 9.20191C40.4498 9.45698 40.7636 9.71109 41.0316 9.92051C41.3326 10.1556 41.4758 10.2559 41.4758 10.2559L35.9691 18.6031ZM33.7155 16.8601C33.5611 16.7305 33.4068 16.599 33.2562 16.4686L39.8049 8.91115C39.9124 9.00425 40.0271 9.10203 40.1461 9.20193L33.7155 16.8601ZM33.2562 16.4686C32.9157 16.1735 32.6299 15.9406 32.4574 15.808C32.3563 15.7303 32.3648 15.7416 32.4474 15.7953C32.4612 15.8043 32.6598 15.9367 32.9551 16.0752C33.0686 16.1284 33.4802 16.3208 34.0521 16.4371C34.3367 16.495 34.9192 16.5898 35.6527 16.4992C36.4159 16.4049 37.666 16.0596 38.7078 14.9311L31.3603 8.14775C32.4046 7.0165 33.6586 6.66947 34.4268 6.57458C35.1652 6.48337 35.754 6.57852 36.0459 6.63793C36.6326 6.7573 37.0638 6.95693 37.2011 7.02132C37.5442 7.18223 37.8083 7.35296 37.9033 7.41481C38.1481 7.5742 38.3816 7.7489 38.5518 7.87968C38.9218 8.16412 39.3636 8.52877 39.8049 8.91115L33.2562 16.4686ZM38.701 14.9384C37.7849 15.9268 36.5408 16.4788 35.2646 16.5436C34.1566 16.5998 33.3099 16.2793 32.8781 16.0792C32.056 15.6983 31.5321 15.1828 31.3832 15.0359C30.979 14.6371 30.6839 14.2231 30.5407 14.0165L38.76 8.32046C38.8068 8.3881 38.6789 8.18619 38.4067 7.91762C38.3238 7.83576 37.8571 7.36491 37.0819 7.00575C36.6735 6.81655 35.8476 6.50113 34.7577 6.55644C33.4996 6.6203 32.2708 7.16536 31.367 8.14043L38.701 14.9384ZM38.2148 5.56963C39.115 6.09237 40.2303 6.59183 40.7964 6.76745L37.8334 16.3184C36.349 15.8579 34.5327 14.9952 33.1932 14.2174L38.2148 5.56963ZM40.795 6.76702C40.8379 6.78032 40.8693 6.78978 40.8919 6.79643C40.9149 6.80317 40.923 6.80531 40.9197 6.80444L38.3321 16.4638C38.1527 16.4158 37.9801 16.3638 37.8348 16.3188L40.795 6.76702ZM40.9198 6.80445C40.9186 6.80413 40.8738 6.79201 40.7991 6.77665C40.7287 6.76217 40.5819 6.73436 40.3839 6.71603C40.1176 6.69138 39.0227 6.60016 37.7976 7.23413C36.2729 8.0232 35.5909 9.35332 35.3442 10.2739C35.1535 10.9853 35.1902 11.5484 35.1905 11.5545L45.1836 11.1837C45.1899 11.3546 45.2211 12.0498 45.0033 12.8624C44.7295 13.8842 43.9987 15.2847 42.3938 16.1153C41.0885 16.7908 39.8817 16.7123 39.4622 16.6735C38.9584 16.6268 38.536 16.5185 38.332 16.4638L40.9198 6.80445ZM35.1905 11.5547C35.1905 11.5547 35.1905 11.5564 35.1907 11.5596C35.1909 11.5628 35.1911 11.5677 35.1916 11.5742L45.1692 10.9055C45.1757 11.0022 45.1803 11.0951 45.1836 11.1835L35.1905 11.5547ZM39.3164 13.3505C39.1691 13.5044 38.9633 13.756 38.6341 14.19L30.6666 8.14693C31.014 7.68892 31.5157 7.0384 32.0916 6.43655L39.3164 13.3505ZM70.0707 12.3695C70.1952 12.1409 70.4945 11.548 70.5841 10.6851C70.6215 10.3249 70.703 9.23633 70.1027 8.01736C69.7647 7.33087 69.1894 6.57216 68.2884 6.00679C67.3836 5.43899 66.439 5.24746 65.6516 5.24746V15.2475C64.8478 15.2475 63.8894 15.0521 62.9731 14.4771C62.0606 13.9046 61.4763 13.1353 61.1315 12.4351C60.5178 11.1888 60.5952 10.0607 60.6377 9.65175C60.7374 8.69127 61.0833 7.96391 61.2883 7.58733L70.0707 12.3695ZM65.6516 5.24746C64.2694 5.24746 63.3188 5.82192 63.0362 6.00064C62.6391 6.25187 62.3665 6.50695 62.2156 6.66022C61.9063 6.97435 61.686 7.29213 61.5253 7.58733L70.3077 12.3695C70.0664 12.8127 69.7463 13.265 69.3409 13.6766C69.142 13.8787 68.8224 14.1733 68.382 14.4518C68.0563 14.6579 67.0663 15.2475 65.6516 15.2475V5.24746ZM61.5253 7.58733C61.4008 7.81593 61.1016 8.40878 61.0119 9.27173C60.9745 9.63192 60.893 10.7205 61.4933 11.9395C61.8314 12.626 62.4067 13.3847 63.3076 13.95C64.2124 14.5178 65.157 14.7094 65.9445 14.7094V4.70936C66.7482 4.70936 67.7067 4.90468 68.623 5.47967C69.5354 6.05223 70.1198 6.82155 70.4646 7.52171C71.0783 8.76801 71.0009 9.89611 70.9584 10.3051C70.8586 11.2655 70.5128 11.9929 70.3077 12.3695L61.5253 7.58733ZM65.9445 14.7094C67.3266 14.7094 68.2773 14.1349 68.5598 13.9562C68.957 13.705 69.2295 13.4499 69.3804 13.2966C69.6898 12.9825 69.91 12.6647 70.0707 12.3695L61.2883 7.58733C61.5296 7.14416 61.8498 6.69185 62.2551 6.28019C62.4541 6.07816 62.7737 5.78356 63.214 5.50501C63.5397 5.29897 64.5297 4.70936 65.9445 4.70936V14.7094ZM66.4322 16.2263C65.5493 17.0429 64.1586 18.1442 63.1075 18.724L58.2769 9.96819C58.2202 9.99947 58.2439 9.98993 58.364 9.90758C58.4698 9.8351 58.6068 9.73605 58.7645 9.61565C59.0887 9.3682 59.4115 9.09827 59.6421 8.88493L66.4322 16.2263ZM63.1074 18.7241C62.9284 18.8228 62.9566 18.8205 63.0865 18.7213C63.1511 18.6719 63.3417 18.5226 63.5682 18.2734C63.7486 18.0749 64.2573 17.4867 64.5543 16.5356C64.9172 15.3738 64.9045 13.7784 63.9317 12.3442C63.1289 11.1607 62.0732 10.7009 61.6698 10.549C61.2003 10.3721 60.8312 10.3233 60.7034 10.3084C60.5455 10.29 60.4499 10.2906 60.4475 10.2906L60.4473 20.2906C60.1033 20.2906 59.1518 20.2865 58.1442 19.9069C57.6311 19.7135 56.5002 19.2024 55.6559 17.9577C54.6417 16.4624 54.6212 14.7962 55.0091 13.5541C55.3313 12.5227 55.8979 11.8447 56.1682 11.5473C56.4846 11.1992 56.797 10.942 57.0145 10.7757C57.4502 10.4428 57.9085 10.1714 58.277 9.96814L63.1074 18.7241ZM60.4247 10.2907C60.3853 10.2912 60.2898 10.2935 60.1528 10.3088C60.0461 10.3207 59.7385 10.3585 59.3409 10.4876C59.1177 10.56 57.9287 10.9373 56.9988 12.168C56.448 12.8969 56.037 13.8704 56.0052 15C55.975 16.0762 56.2984 16.9309 56.598 17.4812L65.3807 12.6994C65.7001 13.2861 66.0324 14.1741 66.0013 15.2809C65.9687 16.4411 65.5471 17.4425 64.9772 18.1967C64.0091 19.4778 62.7479 19.8953 62.4281 19.9991C61.577 20.2754 60.7985 20.2868 60.5495 20.2899L60.4247 10.2907ZM60.9894 10.0903C60.3393 10.0903 59.8365 10.2194 59.5754 10.2984C59.2885 10.385 59.0677 10.4812 58.9345 10.5439C58.6745 10.6662 58.4966 10.7808 58.4371 10.8197C58.3073 10.9046 58.2573 10.9506 58.3191 10.9C58.421 10.8166 58.6199 10.6407 58.8843 10.3864C59.1385 10.1419 59.4017 9.87461 59.6276 9.63078C59.7397 9.50978 59.8333 9.4047 59.9063 9.3193C59.9423 9.27716 59.9699 9.24372 59.9899 9.21889C60.0104 9.19342 60.0183 9.18276 60.0161 9.18574L68.0499 15.1404C67.4374 15.9667 66.5072 16.9293 65.8163 17.5938C65.4458 17.9502 65.0366 18.3244 64.6529 18.6384C64.4719 18.7865 64.2097 18.9931 63.9104 19.1889C63.7661 19.2832 63.5141 19.4408 63.1921 19.5922C63.0239 19.6714 62.1626 20.0903 60.9894 20.0903V10.0903ZM60.0162 9.18558C60.2412 8.88195 60.171 8.9472 60.0413 9.19252C59.999 9.27253 59.8892 9.48545 59.7837 9.78491C59.7306 9.9356 59.4078 10.8114 59.5429 11.9719C59.6212 12.6448 59.8838 13.6574 60.6826 14.6039C61.5222 15.5988 62.5897 16.0895 63.5035 16.2736C64.9852 16.5721 66.1239 16.0931 66.2778 16.0325C66.6363 15.8912 66.8874 15.7409 66.9762 15.6866C67.0895 15.6174 67.1663 15.5627 67.1944 15.5424C67.2488 15.5031 67.2507 15.4981 67.1785 15.5585C67.0396 15.6746 66.7996 15.8865 66.4318 16.2267L59.6425 8.88456C60.054 8.50403 60.4364 8.1606 60.7657 7.88543C60.9275 7.75017 61.125 7.59063 61.3367 7.43762C61.4439 7.3601 61.9393 6.99377 62.6107 6.72911C62.8052 6.65245 63.975 6.16765 65.4785 6.47055C66.4031 6.65683 67.4791 7.15229 68.3248 8.15441C69.1298 9.10823 69.3961 10.1306 69.4759 10.8158C69.6138 12.0011 69.2845 12.9117 69.2156 13.1074C69.0943 13.4519 68.9592 13.72 68.8824 13.8653C68.6148 14.3717 68.2576 14.8601 68.0497 15.1406L60.0162 9.18558ZM55.7499 18.414L51.5434 18.5337L51.2589 8.53777L55.4654 8.41805L55.7499 18.414ZM51.5435 18.5337C49.6955 18.5863 48.846 18.6343 48.3422 18.6989C48.1373 18.7253 48.0675 18.7456 48.0606 18.7476C48.0572 18.7485 48.0203 18.7576 47.8789 18.8201L43.8339 9.67471C46.0217 8.70701 47.7989 8.63629 51.2589 8.53778L51.5435 18.5337ZM69.9322 0L61.2935 -5.03704L70.2312 -20.3656L78.7151 -4.78131L69.9322 0ZM69.4566 4.26305L79.2166 6.44067L79.2165 6.44121L69.4566 4.26305ZM63.1319 15.2741L69.7186 22.7984L66.9169 25.251L63.1934 25.2739L63.1319 15.2741ZM60.4871 15.2903L60.3622 5.2911L60.3939 5.2907L60.4256 5.29051L60.4871 15.2903ZM60.4474 15.2906L60.3859 5.29075L60.4167 5.29056H60.4474V15.2906ZM39.5119 15.4192L29.5156 15.6906L29.2384 5.48217L39.4504 5.41941L39.5119 15.4192ZM38.8788 15.4231L38.8174 5.42331L41.9939 5.40378L44.5994 7.22099L38.8788 15.4231ZM36.3834 15.4385L36.4449 25.4383L32.1383 25.4647L29.16 22.3538L36.3834 15.4385ZM35.2509 14.2555L42.4739 7.33968L42.4742 7.34006L35.2509 14.2555ZM34.1646 13.5061L26.0796 7.62111L30.4915 1.55996L37.5465 4.09532L34.1646 13.5061ZM32.0217 13.8822L41.4689 10.6033L44.0514 18.0439L37.4231 22.298L32.0217 13.8822ZM29.0163 15.439L19.043 14.7077L19.0431 14.7071L29.0163 15.439ZM29.0919 14.4088L19.1187 13.6769L21.2595 -15.4949L37.4257 8.88188L29.0919 14.4088ZM30.1512 16.0061L38.485 10.4792L38.4855 10.4799L30.1512 16.0061ZM32.3442 14.4811L23.8517 9.20131L30.7964 -1.96917L39.7029 7.70982L32.3442 14.4811ZM40.1804 11.2398L45.9824 19.3846L31.4004 29.7722L30.2028 11.9088L40.1804 11.2398ZM47.1482 8.16208L48.2489 18.1013L48.2487 18.1013L47.1482 8.16208ZM61.5588 7.82604L66.467 16.5387L64.1817 17.826H61.5588V7.82604ZM62.994 7.01755L58.0859 -1.6951L58.0864 -1.69538L62.994 7.01755ZM34.6503 11.1685L42.8696 5.47249L47.0004 11.4333L42.6179 17.2115L34.6503 11.1685ZM33.5832 9.21028L42.7117 5.12723L42.7117 5.12726L33.5832 9.21028ZM33.3728 8.25759L27.6542 16.4611L27.6487 16.4573L33.3728 8.25759ZM34.6345 9.19791L40.6912 1.24074L40.6931 1.24221L34.6345 9.19791ZM35.704 9.89352L42.9288 16.8075L37.4878 22.493L30.6824 18.5413L35.704 9.89352ZM37.734 9.03728L41.6608 -0.159469L41.6618 -0.159038L37.734 9.03728ZM32.2974 13.0369L40.0009 6.66078L40.0021 6.66222L32.2974 13.0369ZM31.6471 12.4544L39.1511 19.0642L39.143 19.0734L39.1348 19.0827L31.6471 12.4544ZM78.7151 -4.78131C79.6586 -3.04821 79.8544 -1.45641 79.9055 -1.05092C79.989 -0.387904 80.0009 0.183172 80 0.553424C79.998 1.31213 79.9356 2.03889 79.8715 2.61263C79.7387 3.80309 79.5059 5.14424 79.2166 6.44067L59.6966 2.08543C59.8574 1.36482 59.9557 0.745962 59.9949 0.394908C60.0169 0.197903 60.0007 0.258533 60 0.500921C59.9997 0.613013 60.0011 0.963383 60.0623 1.44879C60.0937 1.6979 60.1546 2.0962 60.2803 2.58275C60.3952 3.02783 60.6386 3.84308 61.1493 4.78131L78.7151 -4.78131ZM79.2165 6.44121C77.8757 12.4493 74.3851 18.7135 69.7186 22.7984L56.5453 7.7497C57.719 6.72222 59.1924 4.34466 59.6967 2.08489L79.2165 6.44121ZM63.1934 25.2739L60.5486 25.2901L60.4256 5.29051L63.0705 5.27425L63.1934 25.2739ZM60.4475 25.2906H60.4474V5.29056H60.4475V25.2906ZM60.5088 25.2904L39.5733 25.419L39.4504 5.41941L60.3859 5.29075L60.5088 25.2904ZM38.9403 25.4229L36.4449 25.4383L36.322 5.43864L38.8174 5.42331L38.9403 25.4229ZM29.16 22.3538L28.0275 21.1708L42.4742 7.34006L43.6068 8.52306L29.16 22.3538ZM28.0278 21.1712C28.5097 21.6745 29.4083 22.423 30.7827 22.9169L37.5465 4.09532C39.6354 4.846 41.261 6.07297 42.4739 7.33968L28.0278 21.1712ZM37.4231 22.298C37.6589 22.1467 37.8119 22.0229 37.878 21.9673C37.946 21.91 37.9675 21.8864 37.9343 21.9193C37.9009 21.9523 37.8428 22.0118 37.7374 22.125C37.6845 22.1818 37.6298 22.2412 37.5581 22.3191C37.4935 22.3893 37.404 22.4867 37.315 22.5823L22.674 8.95736C22.7472 8.87864 24.4815 6.83922 26.6204 5.46646L37.4231 22.298ZM37.315 22.5823C37.1558 22.7534 36.645 23.3077 36.0202 23.8402C35.7021 24.1113 35.0744 24.6215 34.2079 25.1028C33.4581 25.5193 31.6114 26.4398 29.0725 26.4059C25.9439 26.3641 23.1652 24.9003 21.3488 22.6738C19.8768 20.8695 19.4096 19.0368 19.2423 18.2412C18.9029 16.6278 19.007 15.1989 19.043 14.7077L38.9895 16.1702C38.991 16.15 39.0036 15.9808 38.999 15.7132C38.9952 15.4882 38.9765 14.8971 38.8141 14.1247C38.6792 13.4838 38.2584 11.7625 36.846 10.0311C35.0891 7.87755 32.3831 6.44833 29.3396 6.40768C26.8859 6.37491 25.1368 7.26314 24.4964 7.61889C23.7393 8.03942 23.2328 8.46034 23.047 8.61862C22.6868 8.92564 22.4851 9.16028 22.674 8.95736L37.315 22.5823ZM19.0431 14.7071L19.1187 13.6769L39.0651 15.1407L38.9895 16.1708L19.0431 14.7071ZM37.4257 8.88188L38.3284 10.2429L21.6606 21.2967L20.758 19.9357L37.4257 8.88188ZM38.3284 10.2429L38.485 10.4792L21.8173 21.533L21.6606 21.2968L38.3284 10.2429ZM38.4855 10.4799C37.7309 9.34188 35.2991 6.44172 30.8363 6.35943C27.0616 6.28984 24.7844 8.39053 24.388 8.75815C24.0308 9.08942 23.7989 9.36527 23.6962 9.49206C23.6376 9.56446 23.5953 9.62039 23.5703 9.65419C23.545 9.68836 23.5309 9.70873 23.5291 9.71129C23.5288 9.71175 23.5532 9.6763 23.6142 9.5806C23.6769 9.48228 23.7461 9.37115 23.8517 9.20131L40.8368 19.761C40.7544 19.8936 39.579 21.9469 37.9876 23.4227C37.2235 24.1314 34.5884 26.432 30.4676 26.356C25.6587 26.2674 22.8925 23.1545 21.8169 21.5323L38.4855 10.4799ZM34.3784 3.0951C36.1904 1.8043 40.1894 -1.12856 46.0478 -1.77719L48.2487 18.1013C47.9817 18.1309 47.6788 18.1761 45.9824 19.3846L34.3784 3.0951ZM46.0475 -1.77717C48.2697 -2.02325 52.6305 -2.17396 55.8709 -2.17396V17.826C52.8545 17.826 49.3649 17.9777 48.2489 18.1013L46.0475 -1.77717ZM55.8709 -2.17396H61.5588V17.826H55.8709V-2.17396ZM56.6507 -0.88661L58.0859 -1.6951L67.9021 15.7302L66.467 16.5387L56.6507 -0.88661ZM58.0864 -1.69538C58.0583 -1.67956 58.2267 -1.77581 58.5705 -2.05327C58.8942 -2.3145 59.2732 -2.65542 59.6673 -3.05359C60.522 -3.91718 61.0861 -4.68144 61.2935 -5.03704L78.571 5.03704C77.2789 7.25299 75.5392 9.34116 73.8823 11.0153C72.2573 12.6572 70.1625 14.457 67.9016 15.7305L58.0864 -1.69538ZM39.7029 7.70982C38.1857 6.06103 35.7277 4.65662 32.68 4.68263C30.0986 4.70465 28.3266 5.75545 27.6396 6.21841C26.3825 7.06547 25.8371 7.95427 26.0796 7.62111L42.2496 19.3911C41.8997 19.8718 40.7048 21.5314 38.816 22.8041C37.8131 23.48 35.7297 24.6573 32.8506 24.6819C29.5053 24.7104 26.7635 23.1845 24.9856 21.2524L39.7029 7.70982ZM44.5994 7.22099C44.5252 7.16923 44.2246 6.96012 43.7716 6.72208C43.5448 6.60292 43.1178 6.39022 42.5466 6.18796C42.0897 6.0262 40.8846 5.6284 39.2739 5.6284V25.6284C36.5387 25.6284 34.5373 24.4628 34.4681 24.4264C33.8813 24.1181 33.4179 23.8063 33.1582 23.6252L44.5994 7.22099ZM39.2739 5.6284C37.8775 5.6284 35.0899 5.96457 32.6275 8.26694C30.0135 10.7109 29.4632 13.7623 29.5156 15.6906L49.5082 15.1478C49.564 17.2031 48.9786 20.3591 46.2868 22.8759C43.7464 25.2511 40.8381 25.6284 39.2739 25.6284V5.6284ZM26.4311 16.8644C25.6882 15.7924 24.9757 14.4581 24.4547 13.2933L42.7117 5.12726C42.7347 5.17885 42.7642 5.24151 42.7988 5.31073C42.8332 5.37974 42.8673 5.44479 42.898 5.50085C42.9295 5.55816 42.9498 5.59248 42.9555 5.60182C42.9649 5.61742 42.9366 5.56914 42.8696 5.47249L26.4311 16.8644ZM24.4547 13.2933C24.245 12.8243 23.7947 11.7895 23.5284 10.5836C23.4525 10.2401 23.3302 9.61546 23.29 8.8332C23.2638 8.32373 23.1709 6.39273 24.1431 4.2008C24.6982 2.94921 25.7415 1.30491 27.6108 0.0126738C29.556 -1.33203 31.6797 -1.79911 33.5031 -1.76502C36.5755 -1.70758 38.6377 -0.262634 39.0968 0.0578543L27.6487 16.4573C28.0617 16.7456 30.0862 18.1746 33.1292 18.2315C34.9379 18.2653 37.0489 17.8018 38.9836 16.4644C40.8423 15.1795 41.8771 13.5462 42.4256 12.3093C43.3848 10.1468 43.2869 8.2597 43.2637 7.80781C43.2265 7.08312 43.115 6.52976 43.0577 6.27022C42.8656 5.40048 42.6129 4.9064 42.7117 5.12723L24.4547 13.2933ZM39.0913 0.0540628C39.4659 0.315154 40.2029 0.869071 40.6912 1.24074L28.5778 17.1551C28.3432 16.9765 28.0979 16.7919 27.897 16.6421C27.7963 16.5671 27.7149 16.5069 27.6566 16.4641C27.5784 16.4068 27.5924 16.4181 27.6542 16.4611L39.0913 0.0540628ZM40.6931 1.24221C40.6639 1.21999 40.6397 1.20208 40.621 1.18851C40.6022 1.1749 40.5877 1.16465 40.5778 1.15776C40.5587 1.14445 40.5526 1.1407 40.5614 1.14636C40.5697 1.15179 40.588 1.16346 40.6169 1.18111C40.6455 1.19865 40.6817 1.2203 40.7256 1.24575L30.6824 18.5413C30.0676 18.1843 29.31 17.7127 28.5758 17.1536L40.6931 1.24221ZM30.2028 11.9088C30.2275 12.278 30.3236 13.2817 30.839 14.4961C31.4024 15.8235 32.2192 16.8329 33.0013 17.5317C33.6686 18.1279 34.2147 18.4104 34.2508 18.4295C34.3078 18.4597 34.2187 18.4098 33.8062 18.2336L41.6618 -0.159038C42.4134 0.161988 44.5507 1.0306 46.3269 2.61767C47.4681 3.63732 48.5262 4.97825 49.2495 6.68246C49.9249 8.27368 50.0996 9.69962 50.158 10.5709L30.2028 11.9088ZM33.8072 18.234C36.7749 19.5012 39.5043 18.8496 41.0366 18.1157C41.7266 17.7852 42.2022 17.4366 42.4571 17.2325C42.7205 17.0217 42.8795 16.8589 42.9288 16.8075L28.4792 2.97958C29.1362 2.29304 30.4594 1.00615 32.3965 0.0782741C34.6093 -0.981674 38.021 -1.71359 41.6608 -0.159469L33.8072 18.234ZM42.6179 17.2115C42.5016 17.3649 41.3874 18.9226 40.2816 19.9974C39.8181 20.448 38.0809 22.1397 35.2966 22.8712C33.6517 23.3034 31.5405 23.424 29.3069 22.668C27.1103 21.9244 25.5728 20.5963 24.5926 19.4116L40.0021 6.66222C39.1565 5.64015 37.7631 4.41562 35.7194 3.72385C33.6389 3.01959 31.6894 3.14018 30.2145 3.52768C27.7702 4.16988 26.4055 5.59385 26.3415 5.65606C26.035 5.95404 25.8282 6.25224 26.6828 5.12539L42.6179 17.2115ZM24.5938 19.413C24.6487 19.4793 24.843 19.7124 25.2022 20.034C25.3128 20.1331 25.8484 20.6172 26.6739 21.1004C27.0078 21.2958 28.0927 21.9193 29.6519 22.2416C31.0433 22.5292 35.6376 23.0531 39.1511 19.0642L24.143 5.84465C27.6685 1.84218 32.2823 2.3625 33.7001 2.65555C35.2856 2.98326 36.4036 3.62127 36.7764 3.83949C37.6799 4.36829 38.317 4.9312 38.5455 5.13582C39.1404 5.66865 39.6361 6.21996 40.0009 6.66078L24.5938 19.413ZM39.1348 19.0827C40.1594 17.9252 40.7014 16.7728 40.9868 16.0244C41.2815 15.2517 41.4248 14.5859 41.4999 14.143C41.6454 13.2848 41.6435 12.5994 41.6366 12.2829C41.6221 11.6185 41.5408 11.1184 41.5168 10.9726C41.4818 10.7601 41.4478 10.6042 41.4316 10.5326C41.4133 10.4514 41.3993 10.3971 41.3937 10.3756C41.3804 10.3251 41.4035 10.4151 41.4689 10.6033L22.5746 17.1612C22.3861 16.6182 22.198 16.0212 22.0489 15.4531C21.9831 15.2026 21.8695 14.7502 21.7826 14.2223C21.7456 13.9973 21.657 13.4324 21.6414 12.7197C21.634 12.3791 21.6332 11.6735 21.7813 10.7996C21.8779 10.2301 22.2741 7.9558 24.1593 5.82616L39.1348 19.0827ZM60.4475 5.29056C60.4205 5.29056 60.3921 5.29072 60.3622 5.2911L60.612 25.2895C60.5558 25.2902 60.501 25.2906 60.4475 25.2906V5.29056Z" fill="#100405" mask="url(#path-4-inside-2_2083_3855)"/>
<path d="M49.875 39C49.875 33.9844 46.6025 29.6925 41.96 27.8987L39.25 33V26C39.25 25.7348 39.1381 25.4804 38.9388 25.2929C38.7395 25.1054 38.4693 25 38.1875 25H31.8125C31.5307 25 31.2605 25.1054 31.0612 25.2929C30.8619 25.4804 30.75 25.7348 30.75 26V33L28.04 27.8987C23.3975 29.6925 20.125 33.9844 20.125 39V43H49.875V39ZM50.9375 45H19.0625C18.7807 45 18.5105 45.1054 18.3112 45.2929C18.1119 45.4804 18 45.7348 18 46V48C18 48.2652 18.1119 48.5196 18.3112 48.7071C18.5105 48.8946 18.7807 49 19.0625 49H50.9375C51.2193 49 51.4895 48.8946 51.6888 48.7071C51.8881 48.5196 52 48.2652 52 48V46C52 45.7348 51.8881 45.4804 51.6888 45.2929C51.4895 45.1054 51.2193 45 50.9375 45Z" fill="#FED104"/>
</svg>
