<svg width="19" height="19" viewBox="0 0 19 19" fill="none" xmlns="http://www.w3.org/2000/svg">
<path fill-rule="evenodd" clip-rule="evenodd" d="M15.5231 3.48235C13.925 1.88241 11.7998 1.00093 9.53548 1C4.87001 1 1.07281 4.7969 1.07099 9.4638C1.07033 10.9557 1.4601 12.4118 2.20085 13.6954L1 18.0816L5.48714 16.9046C6.72345 17.5789 8.11544 17.9344 9.53211 17.9349H9.53554C9.53527 17.9349 9.53582 17.9349 9.53554 17.9349C14.2005 17.9349 17.998 14.1376 18 9.47057C18.0008 7.20884 17.1212 5.08222 15.5231 3.48235ZM9.53551 16.5053H9.53266C8.2703 16.5049 7.0321 16.1657 5.95191 15.5247L5.69505 15.3722L3.03231 16.0707L3.74307 13.4746L3.57577 13.2084C2.87155 12.0883 2.49961 10.7936 2.50016 9.46428C2.50167 5.58534 5.65777 2.42958 9.53836 2.42958C11.4175 2.43017 13.1839 3.16295 14.5122 4.49275C15.8405 5.82255 16.5716 7.59016 16.5708 9.46999C16.5692 13.3492 13.4132 16.5053 9.53551 16.5053Z" fill="#009629"/>
<path fill-rule="evenodd" clip-rule="evenodd" d="M13.3944 11.2363C13.1829 11.1305 12.143 10.6189 11.9492 10.5483C11.7553 10.4777 11.6143 10.4424 11.4734 10.6541C11.3324 10.8658 10.927 11.3422 10.8037 11.4834C10.6803 11.6245 10.5569 11.6423 10.3454 11.5363C10.134 11.4304 9.45248 11.2071 8.64466 10.4866C8.01589 9.92575 7.59145 9.2332 7.46803 9.02141C7.34468 8.80973 7.45491 8.69528 7.5608 8.58979C7.65594 8.495 7.77232 8.34279 7.87807 8.21926C7.9838 8.09581 8.01905 8.00751 8.08955 7.86646C8.16006 7.72528 8.12484 7.60176 8.07193 7.49594C8.01905 7.39007 7.59609 6.34906 7.41986 5.92551C7.24813 5.51317 7.07379 5.56904 6.94395 5.56247C6.82077 5.55632 6.67959 5.55505 6.53861 5.55505C6.39764 5.55505 6.16846 5.608 5.97464 5.81969C5.78079 6.03144 5.23438 6.54316 5.23438 7.58407C5.23438 8.62512 5.99224 9.63081 6.09799 9.77192C6.20372 9.91314 7.58935 12.0493 9.71096 12.9654C10.2156 13.1834 10.6095 13.3135 10.9167 13.4109C11.4233 13.5719 11.8844 13.5492 12.2488 13.4947C12.6552 13.434 13.5001 12.9831 13.6764 12.4891C13.8526 11.9951 13.8526 11.5716 13.7997 11.4834C13.7469 11.3952 13.6059 11.3422 13.3944 11.2363Z" fill="#009629"/>
</svg>
