<svg width="19" height="19" viewBox="0 0 19 19" fill="none" xmlns="http://www.w3.org/2000/svg">
<path d="M5.18729 5.12494C5.32236 4.9972 5.77904 4.66263 5.77904 4.66263C5.85747 4.60191 5.94797 4.55666 6.04519 4.52955C6.14242 4.50244 6.2444 4.49403 6.34512 4.5048C6.44584 4.51557 6.54326 4.54532 6.63162 4.59227C6.71999 4.63923 6.79752 4.70245 6.85963 4.77821L7.90163 6.03131C8.01835 6.17452 8.07728 6.35239 8.06785 6.53299C8.05842 6.71359 7.98124 6.8851 7.85017 7.01675L7.3549 7.50947C7.28553 7.575 7.23769 7.65811 7.21715 7.74877C7.19661 7.83944 7.20424 7.93379 7.23912 8.02044C7.45289 8.56247 7.76889 9.0633 8.17177 9.49861C8.67068 9.94376 9.21836 10.3373 9.80552 10.6726C9.94249 10.7469 10.1013 10.777 10.258 10.7584C10.4147 10.7397 10.5606 10.6733 10.6739 10.5692L11.137 10.1495C11.2537 10.0296 11.4119 9.95329 11.583 9.93432C11.7541 9.91535 11.9268 9.955 12.0696 10.0461L13.4397 10.9099C13.5344 10.97 13.6152 11.0478 13.6772 11.1384C13.7392 11.229 13.781 11.3305 13.8003 11.4369C13.8195 11.5433 13.8157 11.6522 13.7891 11.7572C13.7625 11.8621 13.7136 11.9608 13.6455 12.0474L13.4011 12.3637C13.1603 12.6685 12.8147 12.8845 12.4238 12.9744C12.0329 13.0643 11.6211 13.0226 11.2592 12.8564C9.89535 12.2849 8.64628 11.4946 7.56716 10.5206C6.71941 9.60221 5.97767 8.60096 5.35452 7.5338L4.83995 6.48753C4.7525 6.30804 4.72059 6.1088 4.74791 5.91287C4.77523 5.71694 4.86066 5.53234 4.99432 5.38043C5.05102 5.29034 5.11557 5.20488 5.18729 5.12494ZM12.9058 8.45233C12.9058 8.36717 12.9058 8.28809 12.9058 8.20293C12.9058 7.40152 12.5714 6.63248 11.9752 6.06295C11.379 5.49343 10.5693 5.16945 9.72191 5.16144H9.5804C9.53661 5.16451 9.49567 5.18317 9.46583 5.21364C9.436 5.24412 9.41948 5.28415 9.4196 5.32568C9.4204 5.347 9.42575 5.36794 9.43533 5.38725C9.44491 5.40656 9.45852 5.42384 9.47535 5.43805C9.49217 5.45226 9.51186 5.4631 9.53323 5.46992C9.5546 5.47674 9.57721 5.47941 9.5997 5.47775H9.72191C10.4771 5.47936 11.2009 5.76379 11.7349 6.26881C12.2689 6.77382 12.5696 7.45832 12.5713 8.17252C12.5713 8.24551 12.5713 8.32459 12.5713 8.39759C12.5696 8.41837 12.5722 8.43928 12.579 8.4591C12.5858 8.47893 12.5967 8.49728 12.6111 8.51311C12.6254 8.52894 12.6429 8.54193 12.6626 8.55134C12.6823 8.56074 12.7037 8.56637 12.7257 8.56791C12.7632 8.56922 12.8002 8.55852 12.8305 8.53756C12.8608 8.51659 12.8828 8.48657 12.8929 8.45233H12.9058ZM11.6901 8.09344C11.6963 8.02462 11.6963 7.95543 11.6901 7.88662C11.6884 7.45797 11.5076 7.04734 11.1871 6.74424C10.8666 6.44113 10.4324 6.27014 9.97919 6.26854H9.86984C9.82553 6.27455 9.78518 6.29594 9.75664 6.32855C9.7281 6.36117 9.71342 6.40266 9.71547 6.44495C9.71787 6.46577 9.72461 6.48594 9.73531 6.50428C9.74601 6.52262 9.76046 6.53877 9.77781 6.55178C9.79517 6.5648 9.81508 6.57443 9.8364 6.5801C9.85772 6.58578 9.88002 6.5874 9.902 6.58486H9.97919C10.1596 6.58486 10.3383 6.61857 10.505 6.68406C10.6716 6.74956 10.8229 6.84554 10.9502 6.9665C11.0775 7.08746 11.1783 7.23101 11.2468 7.38891C11.3153 7.54682 11.3501 7.71596 11.3492 7.88662C11.3524 7.94132 11.3524 7.99615 11.3492 8.05086C11.3456 8.07166 11.3464 8.09294 11.3515 8.11345C11.3567 8.13396 11.3662 8.15328 11.3793 8.17028C11.3925 8.18729 11.4092 8.20162 11.4283 8.21245C11.4474 8.22328 11.4687 8.23039 11.4907 8.23335C11.5127 8.23589 11.535 8.23427 11.5563 8.22859C11.5777 8.22291 11.5976 8.21329 11.6149 8.20027C11.6323 8.18726 11.6467 8.17111 11.6574 8.15277C11.6681 8.13443 11.6749 8.11426 11.6773 8.09344H11.6901ZM13.9992 8.79298C13.9992 8.64091 13.9992 8.48275 13.9992 8.33067C13.9943 7.19827 13.52 6.11286 12.6781 5.30759C11.8363 4.50232 10.694 4.04143 9.49678 4.02392H9.2395C9.2178 4.02467 9.19649 4.02958 9.17685 4.03833C9.15721 4.04709 9.13965 4.05951 9.12522 4.07486C9.1108 4.09021 9.09981 4.10816 9.09292 4.12763C9.08603 4.1471 9.08338 4.16769 9.08513 4.18816C9.08838 4.22958 9.10811 4.26829 9.14033 4.29651C9.17255 4.32473 9.21488 4.34035 9.2588 4.34024H9.49678C10.6181 4.34023 11.6937 4.7611 12.4872 5.51042C13.2807 6.25974 13.7274 7.27626 13.7291 8.33676C13.7291 8.47667 13.7291 8.62266 13.7291 8.76865C13.7264 8.78911 13.7282 8.80987 13.7342 8.82967C13.7403 8.84947 13.7506 8.8679 13.7644 8.88383C13.7783 8.89976 13.7954 8.91286 13.8147 8.92234C13.8341 8.93182 13.8553 8.93748 13.877 8.93897C13.9106 8.9292 13.9403 8.91001 13.9621 8.88394C13.9839 8.85787 13.9969 8.82615 13.9992 8.79298ZM11.658 8.09344C11.6642 8.02462 11.6642 7.95543 11.658 7.88662C11.6563 7.45797 11.4755 7.04734 11.155 6.74424C10.8345 6.44113 10.4003 6.27014 9.94703 6.26854H9.83768C9.79337 6.27455 9.75302 6.29594 9.72448 6.32855C9.69594 6.36117 9.68126 6.40266 9.68331 6.44495C9.68571 6.46577 9.69245 6.48594 9.70315 6.50428C9.71385 6.52262 9.7283 6.53877 9.74565 6.55178C9.76301 6.5648 9.78292 6.57443 9.80424 6.5801C9.82556 6.58578 9.84786 6.5874 9.86984 6.58486H9.94703C10.1275 6.58486 10.3062 6.61857 10.4728 6.68406C10.6394 6.74956 10.7908 6.84554 10.9181 6.9665C11.0454 7.08746 11.1462 7.23101 11.2146 7.38891C11.2831 7.54682 11.3179 7.71596 11.3171 7.88662C11.3203 7.94132 11.3203 7.99615 11.3171 8.05086C11.3134 8.07166 11.3142 8.09294 11.3194 8.11345C11.3245 8.13396 11.334 8.15328 11.3472 8.17028C11.3604 8.18729 11.377 8.20162 11.3961 8.21245C11.4153 8.22328 11.4365 8.23039 11.4586 8.23335C11.4828 8.24081 11.5085 8.24295 11.5337 8.23959C11.5589 8.23623 11.583 8.22747 11.6041 8.21397C11.6252 8.20048 11.6427 8.1826 11.6554 8.16171C11.6681 8.14082 11.6756 8.11747 11.6773 8.09344H11.658ZM17.9807 6.962L17.9164 10.5206C17.9164 13.7445 14.8161 15.9101 11.4071 15.9101H8.08816L6.37722 17.7715C6.27763 17.8749 6.14755 17.9477 6.00376 17.9805C5.85998 18.0133 5.7091 18.0046 5.57061 17.9555C5.43212 17.9063 5.31238 17.8191 5.22685 17.705C5.14132 17.5908 5.09393 17.4551 5.09081 17.3152V15.4904C3.9021 15.0781 2.87414 14.3336 2.14346 13.3558C1.41278 12.3779 1.01397 11.213 1 10.0157V7.06541C1 3.68936 3.0647 1.22575 7.39349 1.01892C8.30042 0.976344 11.0341 1.01892 11.0341 1.01892C15.5494 0.982427 18 3.44604 18 6.962H17.9807ZM16.7329 7.22965C16.6943 3.95092 14.6425 2.19902 10.7832 2.19902C10.7832 2.19902 8.46765 2.19902 7.6958 2.19902C4.00378 2.36935 2.31215 4.47406 2.31215 7.27224V9.76018C2.27243 10.7632 2.57403 11.7519 3.17261 12.5807C3.77119 13.4096 4.63517 14.035 5.63753 14.365V17.3274C5.63609 17.3555 5.64406 17.3834 5.66032 17.407C5.67657 17.4306 5.70028 17.4487 5.72807 17.4588C5.75586 17.4689 5.78632 17.4705 5.8151 17.4633C5.84388 17.4561 5.86953 17.4404 5.88838 17.4187L7.29058 15.8857L8.44835 14.6205H11.1563C14.2887 14.6205 16.7071 12.7956 16.7071 10.1495L16.7329 7.22965Z" fill="#62569D"/>
</svg>
