<svg width="76" height="31" viewBox="0 0 76 31" fill="none" xmlns="http://www.w3.org/2000/svg">
<mask id="path-1-inside-1_41_5167" fill="white">
<path d="M74.0349 7.82471C74.8584 4.16314 75.247 0.708653 74.9053 0.0859375C72.1614 4.75411 66.4732 10.4421 62.2084 12.825L59.582 14.2926H49.1732C43.4482 14.2926 36.2651 14.5671 33.2107 14.9027C27.6061 15.5182 23.6698 18.2213 20.4595 20.4898C20.3363 18.6667 19.5557 18.0053 15.9827 16.4914C14.7527 15.9705 13.4857 16.7833 12.2678 18.0458C11.5019 17.6046 10.8245 17.1713 10.3106 16.783C9.35646 16.0626 8.31736 15.2944 8.00164 15.076C7.6638 14.8421 7.8221 15.5532 8.38675 16.8055C9.00492 18.1764 9.78051 19.5598 10.3396 20.3602C8.56275 22.6841 7.01873 24.933 6.03368 23.752C5.46642 23.0721 4.93083 22.5964 4.84366 22.6946C4.75606 22.7928 5.06483 23.9591 5.5293 25.2866C4.05986 26.2221 2.77802 27.6913 1.81946 28.7131L0.167648 26.2424L0.0293045 28.1125C-0.157433 30.6387 0.545479 30.0711 1.81946 28.7131L2.10621 29.142C3.28121 30.8999 4.65208 28.7151 6.11948 26.3737C7.07359 27.4023 8.36668 26.0811 9.45076 24.6037C10.1045 24.8368 10.7698 25.2711 11.4386 25.964L13.5111 28.1116L18.0777 28.0837C18.4171 28.3185 18.6734 28.4564 18.8007 28.4564C19.1078 28.4564 19.2425 28.3072 19.2362 28.0767L57.5483 27.8431C57.5725 27.8431 57.5966 27.8429 57.6206 27.8426L62.4608 27.8131C67.8046 23.1728 72.3466 15.329 74.0349 7.82471Z"/>
</mask>
<path d="M74.0349 7.82471C74.8584 4.16314 75.247 0.708653 74.9053 0.0859375C72.1614 4.75411 66.4732 10.4421 62.2084 12.825L59.582 14.2926H49.1732C43.4482 14.2926 36.2651 14.5671 33.2107 14.9027C27.6061 15.5182 23.6698 18.2213 20.4595 20.4898C20.3363 18.6667 19.5557 18.0053 15.9827 16.4914C14.7527 15.9705 13.4857 16.7833 12.2678 18.0458C11.5019 17.6046 10.8245 17.1713 10.3106 16.783C9.35646 16.0626 8.31736 15.2944 8.00164 15.076C7.6638 14.8421 7.8221 15.5532 8.38675 16.8055C9.00492 18.1764 9.78051 19.5598 10.3396 20.3602C8.56275 22.6841 7.01873 24.933 6.03368 23.752C5.46642 23.0721 4.93083 22.5964 4.84366 22.6946C4.75606 22.7928 5.06483 23.9591 5.5293 25.2866C4.05986 26.2221 2.77802 27.6913 1.81946 28.7131L0.167648 26.2424L0.0293045 28.1125C-0.157433 30.6387 0.545479 30.0711 1.81946 28.7131L2.10621 29.142C3.28121 30.8999 4.65208 28.7151 6.11948 26.3737C7.07359 27.4023 8.36668 26.0811 9.45076 24.6037C10.1045 24.8368 10.7698 25.2711 11.4386 25.964L13.5111 28.1116L18.0777 28.0837C18.4171 28.3185 18.6734 28.4564 18.8007 28.4564C19.1078 28.4564 19.2425 28.3072 19.2362 28.0767L57.5483 27.8431C57.5725 27.8431 57.5966 27.8429 57.6206 27.8426L62.4608 27.8131C67.8046 23.1728 72.3466 15.329 74.0349 7.82471Z" fill="#100405"/>
<path d="M57.6206 27.8426L57.6824 32.8423L57.6667 32.8425L57.6511 32.8426L57.6206 27.8426ZM57.5483 27.8431L57.5787 32.843L57.5635 32.8431H57.5483V27.8431ZM19.2362 28.0767L24.2344 27.9398L24.3741 33.0454L19.2667 33.0766L19.2362 28.0767ZM18.0777 28.0837L18.1082 33.0836L16.5304 33.0932L15.2329 32.1956L18.0777 28.0837ZM9.45076 24.6037L13.4819 27.5617L11.2791 30.5637L7.77182 29.3134L9.45076 24.6037ZM5.5293 25.2866L0.810018 26.9383L-0.499316 23.1974L2.84403 21.0688L5.5293 25.2866ZM6.11948 26.3737L10.3562 29.029L6.89118 34.5577L2.45378 29.7741L6.11948 26.3737ZM20.4595 20.4898L17.5741 16.4064L24.8476 11.2666L25.4482 20.1526L20.4595 20.4898ZM65.605 13.437L68.4904 17.5204L68.4899 17.5207L65.605 13.437ZM55.6364 20.4753L60.6361 20.5276L60.6361 20.5284L55.6364 20.4753ZM67.1914 15.4883L70.4498 19.2807L70.4491 19.2813L67.1914 15.4883ZM68.3853 15.88L63.8226 13.835L63.8228 13.8345L68.3853 15.88ZM68.1299 16.9789L71.7877 20.3877L71.7855 20.3901L68.1299 16.9789ZM71.4857 9.13558L66.5918 8.11077L66.592 8.11017L71.4857 9.13558ZM71.7867 7.69919L68.1376 4.28094L80.3413 -8.74669L76.6804 8.7246L71.7867 7.69919ZM69.8885 9.72557L73.5375 13.1438L73.537 13.1443L69.8885 9.72557ZM11.3935 21.8639L14.2495 25.9679L14.2491 25.9682L11.3935 21.8639ZM12.9708 23.2549L16.94 20.2143L16.941 20.2156L12.9708 23.2549ZM17.7916 26.28L15.0554 30.465L15.0536 30.4638L17.7916 26.28ZM13.7804 23.122L17.0397 19.3303L17.0397 19.3303L13.7804 23.122ZM11.0417 21.0336L14.7017 24.4402L14.6951 24.4472L11.0417 21.0336ZM10.3396 20.3602L6.2408 23.2237L4.14735 20.2271L6.36764 17.3232L10.3396 20.3602ZM12.2678 18.0458L8.66938 14.5743L11.3802 11.7643L14.7635 13.7131L12.2678 18.0458ZM18.8758 21.0399L17.4065 25.8192L17.4051 25.8188L18.8758 21.0399ZM20.4717 20.7244L25.4682 20.5373L25.4682 20.5375L20.4717 20.7244ZM62.2873 22.8783L58.9071 19.194L58.9075 19.1936L62.2873 22.8783ZM57.996 26.1286L60.3964 30.5147L60.3963 30.5148L57.996 26.1286ZM58.5399 27.4796L54.1567 29.8853L50.092 22.4796H58.5399V27.4796ZM64.1096 22.1657L60.1043 19.1729L60.1044 19.1727L64.1096 22.1657ZM40.9935 24.6576L40.8524 19.6595L40.8524 19.6595L40.9935 24.6576ZM57.6511 32.8426L57.5787 32.843L57.5178 22.8432L57.5902 22.8427L57.6511 32.8426ZM19.2667 33.0766L18.1082 33.0836L18.0472 23.0838L19.2057 23.0767L19.2667 33.0766ZM7.67804 28.9016L8.94831 26.0669L18.0739 30.1562L16.8037 32.9909L7.67804 28.9016ZM7.77182 29.3134C7.88259 29.3529 8.01616 29.3808 8.15723 29.3872C8.29465 29.3935 8.39764 29.3776 8.45276 29.3651L6.24218 19.6125C7.74874 19.271 9.42694 19.287 11.1297 19.894L7.77182 29.3134ZM8.45276 29.3651C8.50038 29.3543 8.50345 29.3481 8.45833 29.3683C8.41254 29.3887 8.3315 29.4298 8.21458 29.5043L2.84403 21.0688C3.75523 20.4887 4.89845 19.9171 6.24219 19.6125L8.45276 29.3651ZM1.88278 23.7185C2.26944 23.1015 2.75408 22.3254 3.26338 21.6043L11.4316 27.3733C11.1104 27.828 10.775 28.3607 10.3562 29.029L1.88278 23.7185ZM3.26338 21.6043C3.8569 20.7639 4.89531 19.3811 6.35458 18.4541C7.15905 17.943 8.33978 17.4085 9.8142 17.3857C11.3704 17.3616 12.7299 17.9155 13.784 18.7199L7.71703 26.6693C8.19831 27.0366 8.9849 27.3997 9.96905 27.3845C10.8715 27.3705 11.4812 27.0445 11.7169 26.8948C11.943 26.7511 11.9987 26.6618 11.8886 26.7831C11.7924 26.8891 11.6422 27.075 11.4316 27.3733L3.26338 21.6043ZM13.7839 18.7199C13.9389 18.8382 14.0051 18.8608 13.9834 18.852C13.9731 18.8478 13.948 18.8386 13.91 18.8297C13.8718 18.8206 13.8301 18.8141 13.7879 18.811L13.0452 28.7834C11.0542 28.6351 9.27295 27.8567 7.71709 26.6693L13.7839 18.7199ZM13.7879 18.811C13.7531 18.8084 13.724 18.8085 13.7025 18.8097C13.6813 18.8108 13.6712 18.8126 13.674 18.8122L15.3516 28.6704C14.6222 28.7946 13.8501 28.8433 13.0452 28.7834L13.7879 18.811ZM13.674 18.8122C13.9442 18.7662 14.6285 18.4738 16.5774 17.1095L22.3123 25.3016C20.6709 26.4507 18.1934 28.1868 15.3516 28.6704L13.674 18.8122ZM16.5774 17.1095C16.896 16.8865 17.2176 16.6583 17.5741 16.4064L23.345 24.5731C23.0089 24.8107 22.6549 25.0618 22.3123 25.3016L16.5774 17.1095ZM68.4899 17.5207C66.9456 18.6117 64.7534 19.8161 62.8834 20.7239C61.9275 21.1879 60.9594 21.6215 60.104 21.952C59.6799 22.1158 59.222 22.2783 58.771 22.407C58.4339 22.5033 57.6714 22.7115 56.7995 22.7115V12.7115C56.2076 12.7115 55.8535 12.8404 56.0262 12.7911C56.085 12.7743 56.2383 12.7251 56.5001 12.6239C57.0164 12.4245 57.7184 12.1152 58.5163 11.7279C60.1541 10.9328 61.8045 9.99994 62.72 9.3532L68.4899 17.5207ZM56.7995 22.7115C58.6736 22.7115 59.7714 21.6435 60.0796 21.3036C60.4521 20.8928 60.5927 20.5566 60.6149 20.5038C60.672 20.3681 60.6373 20.4111 60.6361 20.5276L50.6366 20.4231C50.6502 19.129 50.9075 17.7901 51.3978 16.6251C51.6366 16.0576 52.029 15.295 52.6716 14.5864C53.2499 13.9486 54.6359 12.7115 56.7995 12.7115V22.7115ZM60.6361 20.5284C60.6523 19.0042 59.9249 17.5107 58.6266 16.5881C57.6302 15.88 56.6819 15.7832 56.415 15.7612C55.83 15.7129 55.5363 15.8272 55.8462 15.7533C56.2811 15.6494 57.1361 15.3594 58.2839 14.864C60.6479 13.8437 62.9872 12.5081 63.9337 11.6952L70.4491 19.2813C68.3464 21.0872 64.9012 22.8996 62.2466 24.0454C60.885 24.633 59.4221 25.1806 58.1682 25.4799C57.6337 25.6075 56.6528 25.8148 55.5926 25.7273C55.0882 25.6857 53.9553 25.5363 52.8341 24.7395C51.411 23.7283 50.6188 22.1101 50.6367 20.4223L60.6361 20.5284ZM63.9329 11.6958C64.4004 11.2942 64.918 10.8623 65.3998 10.5241C65.6252 10.3659 66.0274 10.0954 66.5289 9.86706C66.7834 9.75118 67.2109 9.57733 67.7585 9.47061C68.2818 9.36861 69.2419 9.26328 70.3557 9.6288C73.353 10.6124 73.8238 13.4004 73.8618 14.2915C73.9003 15.194 73.6937 15.9264 73.6225 16.1744C73.4423 16.8022 73.1591 17.454 72.9478 17.9254L63.8228 13.8345C64.0376 13.3554 64.0478 13.2858 64.0106 13.4154C63.9946 13.4713 63.9597 13.5996 63.9286 13.7795C63.9006 13.9421 63.8521 14.2785 63.8709 14.7177C63.8882 15.1255 63.9754 15.9478 64.4752 16.8482C65.0509 17.8854 66.0165 18.7295 67.2376 19.1302C68.3075 19.4814 69.2133 19.3752 69.6715 19.2859C70.1539 19.1919 70.5055 19.0442 70.673 18.968C70.859 18.8833 70.9888 18.8073 71.0468 18.7721C71.1103 18.7336 71.1453 18.7088 71.1454 18.7087C71.1475 18.7073 71.1319 18.7182 71.0956 18.746C71.06 18.7732 71.0117 18.8111 70.9489 18.8619C70.8214 18.9651 70.6579 19.1019 70.4498 19.2807L63.9329 11.6958ZM72.948 17.925C72.7744 18.3121 72.818 18.2866 72.8871 17.9893C72.9066 17.9052 72.9746 17.6078 72.9926 17.1987C73.0016 16.9942 73.006 16.608 72.9195 16.1292C72.8423 15.7022 72.6187 14.7733 71.865 13.8602C70.9626 12.7671 69.6309 12.1052 68.2021 12.0551C67.0082 12.0132 66.1286 12.4089 65.7405 12.6114C64.9828 13.0066 64.5372 13.5002 64.4743 13.5676L71.7855 20.3901C71.6599 20.5247 71.163 21.0616 70.3651 21.4778C69.9569 21.6907 69.0601 22.0913 67.8515 22.0489C66.4082 21.9983 65.0646 21.3305 64.1531 20.2262C63.3902 19.302 63.1601 18.3568 63.079 17.9084C62.9886 17.4083 62.9919 16.9957 63.0022 16.7599C63.0229 16.2884 63.104 15.9093 63.1467 15.7255C63.3084 15.0298 63.605 14.3205 63.8226 13.835L72.948 17.925ZM64.472 13.57C64.1402 13.9261 64.0117 14.1935 64.1301 13.9898C64.1857 13.8942 64.281 13.7183 64.4141 13.4514C64.6771 12.9244 65.0016 12.2158 65.3319 11.4439C65.6606 10.6759 65.973 9.89628 66.2163 9.235C66.3379 8.90434 66.4343 8.62498 66.5041 8.40538C66.5809 8.16409 66.5984 8.07949 66.5918 8.11077L76.3795 10.1604C76.0884 11.5507 75.2132 13.7709 74.5256 15.3778C74.1444 16.2689 73.7372 17.1643 73.3624 17.9156C73.1767 18.2878 72.9767 18.6696 72.7747 19.0169C72.6356 19.2561 72.2872 19.8517 71.7877 20.3877L64.472 13.57ZM66.592 8.11017L66.893 6.67378L76.6804 8.7246L76.3794 10.161L66.592 8.11017ZM75.4357 11.1174L73.5375 13.1438L66.2394 6.30732L68.1376 4.28094L75.4357 11.1174ZM73.537 13.1443C72.2503 14.5175 70.0643 16.4082 68.4904 17.5204L62.7196 9.35352C63.7694 8.61169 65.4388 7.16172 66.2399 6.30683L73.537 13.1443ZM10.2486 23.6348C10.2649 23.6813 10.2528 23.6353 10.1946 23.529C10.1371 23.424 10.0109 23.2166 9.78518 22.9733L2.45378 29.7741C1.59743 28.8509 1.11013 27.7958 0.810018 26.9383L10.2486 23.6348ZM5.41959 21.6457C5.82891 21.0879 6.15943 20.5643 6.59621 19.9122L14.9048 25.477C14.6309 25.8859 14.0604 26.7733 13.4819 27.5617L5.41959 21.6457ZM6.59615 19.9122C6.7453 19.6895 6.9403 19.4026 7.14247 19.1358C7.21569 19.0392 7.7347 18.3184 8.53777 17.7596L14.2491 25.9682C14.4853 25.8038 14.6566 25.6521 14.7563 25.5587C14.8616 25.4602 14.9388 25.3778 14.9848 25.3269C15.0326 25.2739 15.0662 25.2335 15.0838 25.2119C15.1021 25.1894 15.112 25.1763 15.1125 25.1756C15.1134 25.1745 15.1087 25.1805 15.098 25.1955C15.0873 25.2102 15.0728 25.2307 15.0538 25.2579C15.015 25.3136 14.9665 25.3848 14.9048 25.4769L6.59615 19.9122ZM8.53745 17.7598C10.0452 16.7106 11.5883 16.794 12.3366 16.9232C13.1009 17.0551 13.6733 17.3303 13.9639 17.4844C14.5694 17.8055 15.0356 18.1918 15.3021 18.4269C15.8936 18.9486 16.4592 19.5866 16.94 20.2143L9.00151 26.2954C8.79843 26.0303 8.66734 25.9089 8.68708 25.9263C8.70074 25.9383 8.74758 25.9791 8.82588 26.0368C8.89575 26.0883 9.05077 26.1981 9.27871 26.3189C9.46624 26.4184 9.94768 26.6587 10.6353 26.7774C11.307 26.8934 12.7876 26.9852 14.2495 25.9679L8.53745 17.7598ZM16.941 20.2156C16.9914 20.2814 17.0726 20.3817 17.1902 20.517L9.64294 27.0774C9.4261 26.8279 9.20697 26.5638 9.00052 26.2941L16.941 20.2156ZM17.1902 20.517C18.2262 21.7088 20.1368 23.4283 20.9225 23.9719L15.2329 32.1956C13.6359 31.0907 11.1166 28.7727 9.64295 27.0774L17.1902 20.517ZM14.2381 28.2135C14.2602 29.0215 14.4962 29.5838 14.5993 29.804C14.7226 30.0672 14.8407 30.2292 14.8951 30.2988C14.9564 30.3772 14.9996 30.4185 15.0168 30.4342C15.0358 30.4515 15.0478 30.46 15.0554 30.465L20.5277 22.0951C21.3943 22.6617 22.1672 23.3638 22.776 24.1432C23.2286 24.7227 24.1836 26.0865 24.2344 27.9398L14.2381 28.2135ZM15.0536 30.4638C14.1451 29.8692 12.5892 28.6464 11.3127 27.5831L17.7129 19.8995C18.9681 20.9451 20.143 21.8434 20.5295 22.0963L15.0536 30.4638ZM11.3127 27.5831C11.0449 27.36 10.7788 27.1352 10.5212 26.9137L17.0397 19.3303C17.2542 19.5146 17.4805 19.7059 17.7129 19.8995L11.3127 27.5831ZM10.5212 26.9137C9.85632 26.3422 9.26864 25.8653 8.87112 25.5622C8.65751 25.3993 8.57272 25.3433 8.58779 25.353C8.59842 25.3599 8.6344 25.383 8.6903 25.4154C8.73831 25.4433 8.85286 25.5084 9.01346 25.5831C9.11685 25.6312 9.51807 25.8179 10.08 25.9313C10.3595 25.9878 10.9348 26.0807 11.6602 25.9918C12.4123 25.8997 13.6582 25.5613 14.7017 24.4402L7.38179 17.627C8.43001 16.5008 9.68287 16.1593 10.4441 16.0661C11.1788 15.9761 11.7654 16.0699 12.0584 16.129C12.6474 16.2479 13.0843 16.4477 13.2314 16.5161C13.5933 16.6845 13.884 16.8693 14.0128 16.9525C14.3249 17.1541 14.6518 17.3946 14.9346 17.6102C15.5299 18.0641 16.2738 18.672 17.0397 19.3303L10.5212 26.9137ZM14.6951 24.4472C13.7701 25.4372 12.5228 25.9825 11.2513 26.0465C10.1449 26.1022 9.29532 25.7847 8.85483 25.5823C8.01531 25.1965 7.46757 24.667 7.28981 24.493C6.82926 24.0423 6.46348 23.5424 6.2408 23.2237L14.4385 17.4967C14.5636 17.6758 14.5037 17.561 14.2847 17.3466C14.2277 17.2908 13.7846 16.8424 13.0309 16.496C12.6333 16.3133 11.8219 16.0051 10.7485 16.0591C9.51014 16.1215 8.29081 16.6542 7.38838 17.62L14.6951 24.4472ZM14.7635 13.7131C16.5934 14.7672 18.9268 15.8242 20.3464 16.2611L17.4051 25.8188C15.0723 25.1009 12.0409 23.6852 9.77215 22.3784L14.7635 13.7131ZM20.345 16.2607C20.5354 16.3192 20.6547 16.3535 20.729 16.3733L18.1607 26.0378C17.9076 25.9706 17.6499 25.894 17.4065 25.8192L20.345 16.2607ZM20.729 16.3733C20.8738 16.4117 20.7294 16.3625 20.4458 16.3365C20.247 16.3182 19.2066 16.2226 18.0211 16.8311C16.5317 17.5957 15.8609 18.8916 15.6205 19.7818C15.5173 20.1638 15.4896 20.4684 15.4802 20.6225C15.4704 20.7832 15.4745 20.8921 15.4752 20.9113L25.4682 20.5375C25.4772 20.7766 25.5065 21.5305 25.2744 22.3898C24.9843 23.4636 24.2243 24.8873 22.5881 25.7273C21.2558 26.4113 20.0108 26.3386 19.5314 26.2946C18.9673 26.2428 18.4665 26.1191 18.1607 26.0378L20.729 16.3733ZM15.4752 20.9116C15.4739 20.8754 15.4723 20.8476 15.4709 20.8269L25.4482 20.1526C25.4571 20.2842 25.4635 20.4127 25.4682 20.5373L15.4752 20.9116ZM15.8663 21.5172C15.4199 21.98 14.9214 22.5996 14.3116 23.3972L6.36764 17.3232C6.99597 16.5014 7.79215 15.4836 8.66938 14.5743L15.8663 21.5172ZM71.5059 20.6058C71.5984 20.4375 71.8831 19.8957 71.9701 19.0656C72.0061 18.7213 72.0899 17.6407 71.4872 16.4265C71.1475 15.7422 70.5716 14.9911 69.6759 14.4335C68.7781 13.8747 67.8449 13.6883 67.0717 13.6883V23.6883C66.2687 23.6883 65.3101 23.495 64.3913 22.9231C63.4746 22.3524 62.8821 21.5821 62.5301 20.873C61.9027 19.6091 61.9791 18.4569 62.0245 18.024C62.1299 17.0169 62.4999 16.2309 62.7398 15.7939L71.5059 20.6058ZM67.0717 13.6883C65.7141 13.6883 64.7854 14.2476 64.5195 14.4145C64.1405 14.6523 63.887 14.8893 63.7551 15.0223C63.484 15.2954 63.303 15.558 63.1735 15.7939L71.9396 20.6058C71.6627 21.1104 71.2989 21.6172 70.852 22.0673C70.6322 22.2888 70.2926 22.5976 69.8345 22.885C69.4896 23.1015 68.4889 23.6883 67.0717 23.6883V13.6883ZM63.1735 15.7939C63.0811 15.9623 62.7963 16.5041 62.7093 17.3341C62.6733 17.6785 62.5895 18.759 63.1922 19.9732C63.5319 20.6575 64.1078 21.4086 65.0035 21.9662C65.9013 22.5251 66.8345 22.7115 67.6077 22.7115V12.7115C68.4107 12.7115 69.3693 12.9047 70.2881 13.4766C71.2048 14.0473 71.7973 14.8177 72.1493 15.5268C72.7767 16.7906 72.7003 17.9429 72.655 18.3757C72.5495 19.3828 72.1795 20.1688 71.9396 20.6058L63.1735 15.7939ZM67.6077 22.7115C68.9653 22.7115 69.894 22.1521 70.1599 21.9853C70.5389 21.7475 70.7924 21.5104 70.9244 21.3775C71.1954 21.1044 71.3764 20.8418 71.5059 20.6058L62.7398 15.7939C63.0168 15.2893 63.3805 14.7825 63.8274 14.3324C64.0472 14.1109 64.3868 13.8021 64.8449 13.5147C65.1898 13.2983 66.1905 12.7115 67.6077 12.7115V22.7115ZM65.6676 26.5626C64.1757 27.9314 61.9089 29.687 60.3964 30.5147L55.5956 21.7425C56.1214 21.4547 57.7171 20.2858 58.9071 19.194L65.6676 26.5626ZM60.3963 30.5148C59.9898 30.7373 59.8393 30.8459 59.8423 30.8436C59.8434 30.8427 59.9842 30.7386 60.1747 30.5307C60.3179 30.3743 60.8086 29.8217 61.0993 28.8982C61.458 27.7586 61.4457 26.1802 60.4789 24.7668C59.6882 23.6108 58.6613 23.1772 58.3093 23.0457C57.6181 22.7874 57.1788 22.8431 57.5483 22.8431V32.8431C56.9966 32.8431 55.9023 32.8215 54.8092 32.4131C54.2563 32.2065 53.0918 31.6796 52.2252 30.4126C51.1825 28.8883 51.156 27.1812 51.5606 25.8958C51.8972 24.8266 52.4938 24.111 52.8015 23.7752C53.1565 23.3878 53.5202 23.0875 53.8012 22.8746C54.3638 22.4481 55.0005 22.0682 55.5957 21.7425L60.3963 30.5148ZM57.5588 22.843C57.7509 22.8407 57.3885 22.8136 56.8158 22.9979C56.6382 23.0551 55.4784 23.4112 54.5601 24.6165C54.0131 25.3345 53.5993 26.3015 53.5673 27.4287C53.5368 28.5018 53.8621 29.3487 54.1567 29.8853L62.9231 25.0738C63.2538 25.6764 63.5953 26.5839 63.5633 27.7125C63.5297 28.8953 63.0965 29.9129 62.5146 30.6767C61.5264 31.9738 60.2344 32.4028 59.8801 32.5169C58.9538 32.8151 58.0593 32.8376 57.6824 32.8423L57.5588 22.843ZM58.5399 22.4796C57.9026 22.4796 57.4126 22.605 57.1632 22.6798C56.8883 22.7622 56.6803 22.8525 56.5604 22.9085C56.3271 23.0174 56.1805 23.1129 56.1561 23.1287C56.0968 23.1672 56.1347 23.1468 56.2971 23.015C56.6002 22.7689 57.0512 22.3681 57.5789 21.8647C58.0964 21.371 58.6339 20.8298 59.1055 20.325C59.5976 19.7982 59.9352 19.3992 60.1043 19.1729L68.115 25.1585C67.2027 26.3795 65.6997 27.9381 64.4819 29.1C63.8476 29.7051 63.1858 30.303 62.6003 30.7783C62.3184 31.0072 61.9681 31.2783 61.5985 31.518C61.419 31.6345 61.1368 31.8081 60.79 31.9699C60.5955 32.0608 59.7191 32.4796 58.5399 32.4796V22.4796ZM60.1044 19.1727C60.5094 18.6307 60.5562 18.5237 60.4818 18.6634C60.4532 18.717 60.3523 18.9084 60.2519 19.1911C60.2049 19.3236 59.8795 20.1921 60.0156 21.3521C60.0948 22.027 60.3603 23.0393 61.1628 23.9826C62.0038 24.9711 63.0673 25.4528 63.9679 25.6328C65.4289 25.9248 66.5458 25.456 66.6832 25.4023C67.0231 25.2694 67.2525 25.1316 67.3166 25.0928C67.3641 25.064 67.3984 25.0415 67.4175 25.0288C67.437 25.0157 67.4478 25.008 67.4485 25.0074C67.4486 25.0074 67.4266 25.0233 67.3784 25.0611C67.3315 25.0979 67.2691 25.1481 67.1894 25.2141C66.8564 25.4902 66.3583 25.929 65.6672 26.5629L58.9075 19.1936C59.6425 18.5194 60.2833 17.9499 60.807 17.5157C61.0661 17.3009 61.3448 17.079 61.6219 16.8803C61.795 16.7562 62.3388 16.3637 63.0415 16.0889C63.2532 16.0062 64.427 15.5268 65.9277 15.8267C66.8482 16.0107 67.9272 16.501 68.7794 17.5028C69.5932 18.4593 69.8656 19.4894 69.9474 20.1867C70.0888 21.3915 69.7515 22.3233 69.6754 22.5375C69.546 22.9019 69.399 23.1935 69.3073 23.3656C68.9803 23.9792 68.5022 24.6404 68.1149 25.1587L60.1044 19.1727ZM48.8325 29.4382L41.1346 29.6556L40.8524 19.6595L48.5503 19.4422L48.8325 29.4382ZM41.1347 29.6556C34.3794 29.8464 33.9237 30.0594 32.8556 30.5281L28.8377 21.3707C31.9729 19.9951 34.396 19.8419 40.8524 19.6595L41.1347 29.6556ZM74.9053 0.0859375L66.2843 -4.98141L75.2037 -20.1558L83.6719 -4.72512L74.9053 0.0859375ZM74.0349 7.82471L83.7911 10.0191L83.791 10.0196L74.0349 7.82471ZM62.4608 27.8131L69.0174 35.3637L66.2228 37.7904L62.5217 37.8129L62.4608 27.8131ZM57.6206 27.8426L57.4974 17.8434L57.5285 17.843L57.5596 17.8428L57.6206 27.8426ZM57.5483 27.8431L57.4873 17.8433L57.5178 17.8431H57.5483V27.8431ZM19.2362 28.0767L9.23997 28.3502L8.96055 18.1391L19.1753 18.0768L19.2362 28.0767ZM18.0777 28.0837L18.0167 18.0839L21.1722 18.0647L23.7673 19.86L18.0777 28.0837ZM13.5111 28.1116L13.5721 38.1114L9.2896 38.1375L6.31561 35.0559L13.5111 28.1116ZM11.4386 25.964L18.6337 19.0192L18.6341 19.0196L11.4386 25.964ZM9.45076 24.6037L1.38842 18.6877L5.79403 12.6837L12.8086 15.1843L9.45076 24.6037ZM5.5293 25.2866L14.9682 21.984L17.5858 29.4653L10.8999 33.722L5.5293 25.2866ZM0.0293045 28.1125L-9.94349 27.3753L-9.94344 27.3747L0.0293045 28.1125ZM0.167648 26.2424L-9.8051 25.5046L-7.66224 -3.46202L8.48092 20.6845L0.167648 26.2424ZM2.10621 29.142L10.4195 23.5842L10.42 23.5849L2.10621 29.142ZM6.11948 26.3737L-2.35391 21.0632L4.57612 10.0058L13.4509 19.5729L6.11948 26.3737ZM20.4595 20.4898L26.2305 28.6565L11.6834 38.9361L10.4823 21.1641L20.4595 20.4898ZM33.2107 14.9027L34.3026 24.8429L34.3024 24.8429L33.2107 14.9027ZM59.582 14.2926L64.4602 23.0221L62.1865 24.2926H59.582V14.2926ZM62.2084 12.825L57.3302 4.09552L57.3307 4.09523L62.2084 12.825ZM10.3396 20.3602L18.5373 14.6332L22.7242 20.6264L18.2836 26.4341L10.3396 20.3602ZM8.38675 16.8055L-0.729383 20.916L-0.729383 20.916L8.38675 16.8055ZM8.00164 15.076L2.31409 23.3011L2.30858 23.2973L8.00164 15.076ZM10.3106 16.783L16.3363 8.8024L16.3383 8.80388L10.3106 16.783ZM12.2678 18.0458L19.4647 24.9887L14.0431 30.6087L7.27648 26.711L12.2678 18.0458ZM15.9827 16.4914L19.8828 7.28333L19.8838 7.28375L15.9827 16.4914ZM6.03368 23.752L13.712 17.3455L13.7131 17.3468L6.03368 23.752ZM4.84366 22.6946L12.3211 29.3345L12.313 29.3436L12.3049 29.3526L4.84366 22.6946ZM83.6719 -4.72512C84.6459 -2.95034 84.8589 -1.29493 84.9201 -0.812738C85.0141 -0.0728266 85.0305 0.591907 85.0292 1.06938C85.0267 2.04262 84.9444 3.04408 84.8444 3.93347C84.6395 5.75559 84.2681 7.89843 83.7911 10.0191L64.2786 5.63032C64.6252 4.08942 64.8599 2.67423 64.9697 1.69803C65.0271 1.18827 65.0294 0.980501 65.0293 1.01646C65.0293 1.02529 65.0264 1.28938 65.0795 1.70688C65.1068 1.92212 65.1629 2.29177 65.2835 2.75469C65.3932 3.17639 65.6317 3.97318 66.1387 4.89699L83.6719 -4.72512ZM83.791 10.0196C81.6775 19.4139 76.1132 29.202 69.0174 35.3637L55.9042 20.2626C59.496 17.1436 63.0156 11.2442 64.2787 5.62977L83.791 10.0196ZM62.5217 37.8129L57.6816 37.8425L57.5596 17.8428L62.3998 17.8133L62.5217 37.8129ZM57.6092 37.8429L19.2972 38.0765L19.1753 18.0768L57.4873 17.8433L57.6092 37.8429ZM18.1387 38.0835L13.5721 38.1114L13.4502 18.1117L18.0167 18.0839L18.1387 38.0835ZM6.31561 35.0559L4.24305 32.9084L18.6341 19.0196L20.7066 21.1672L6.31561 35.0559ZM4.24345 32.9088C4.42685 33.0989 5.02351 33.6419 6.0929 34.0231L12.8086 15.1843C15.1855 16.0317 17.1127 17.4434 18.6337 19.0192L4.24345 32.9088ZM10.8999 33.722C10.9945 33.6618 10.8698 33.7294 10.485 34.1068C10.3106 34.2778 10.1188 34.4763 9.88749 34.7227C9.77168 34.846 9.65611 34.9705 9.52558 35.1113C9.40222 35.2443 9.25593 35.4021 9.11255 35.5549L-5.47363 21.8713C-4.96584 21.33 -2.64749 18.6377 0.158759 16.8511L10.8999 33.722ZM9.11258 35.5549C8.80865 35.8789 8.16834 36.5617 7.43231 37.1839C7.05834 37.5001 6.38035 38.0427 5.46987 38.5444C4.674 38.9829 2.79827 39.9024 0.244123 39.8685C-2.88948 39.827 -5.69348 38.375 -7.54581 36.1227C-9.05456 34.2881 -9.54758 32.4044 -9.73143 31.5373C-10.1026 29.7867 -10.0009 28.1515 -9.94349 27.3753L10.0021 28.8496C9.9661 29.3366 10.0857 28.5778 9.8336 27.3888C9.70929 26.8026 9.30113 25.121 7.9013 23.4189C6.15789 21.299 3.48689 19.9097 0.509102 19.8703C-1.88923 19.8385 -3.58632 20.6993 -4.18197 21.0275C-4.89223 21.4189 -5.34842 21.7994 -5.48026 21.9109C-5.73202 22.1238 -5.80672 22.2263 -5.47367 21.8713L9.11258 35.5549ZM-9.94344 27.3747L-9.8051 25.5046L10.1404 26.9801L10.0021 28.8502L-9.94344 27.3747ZM8.48092 20.6845L10.1327 23.1553L-6.49381 34.2709L-8.14562 31.8002L8.48092 20.6845ZM10.1327 23.1553L10.4195 23.5842L-6.20708 34.6998L-6.49383 34.2709L10.1327 23.1553ZM10.42 23.5849C9.78199 22.6305 7.48812 19.8603 3.2055 19.782C-0.39491 19.7162 -2.51379 21.7025 -2.76714 21.9356C-3.24503 22.3752 -3.39526 22.653 -3.16435 22.3218C-2.97783 22.0543 -2.75153 21.6976 -2.35391 21.0632L14.5929 31.6842C14.179 32.3446 12.6762 34.9043 10.7735 36.6546C9.84716 37.5068 7.07354 39.8561 2.83976 39.7787C-2.07621 39.6887 -4.98207 36.5325 -6.20755 34.6991L10.42 23.5849ZM14.6886 12.323C17.9615 10.0103 23.7376 5.88295 32.1189 4.96243L34.3024 24.8429C31.4746 25.1535 29.3781 26.4323 26.2305 28.6565L14.6886 12.323ZM32.1187 4.96245C35.7219 4.56664 43.3371 4.29264 49.1732 4.29264V24.2926C43.5593 24.2926 36.8083 24.5676 34.3026 24.8429L32.1187 4.96245ZM49.1732 4.29264H59.582V24.2926H49.1732V4.29264ZM54.7038 5.56317L57.3302 4.09552L67.0865 21.5545L64.4602 23.0221L54.7038 5.56317ZM57.3307 4.09523C58.3691 3.51503 60.1215 2.18039 62.0481 0.249416C63.944 -1.65081 65.4598 -3.57869 66.2843 -4.98141L83.5263 5.15329C81.6069 8.41874 78.9067 11.6689 76.2063 14.3754C73.5366 17.0512 70.3124 19.752 67.086 21.5547L57.3307 4.09523ZM13.4509 19.5729C12.0326 18.044 9.69988 16.7147 6.80541 16.7392C4.36943 16.7598 2.73735 17.7416 2.17909 18.1148C1.18226 18.7811 0.902621 19.3498 1.38842 18.6877L17.5131 30.5197C16.9148 31.335 15.4466 33.3029 13.2937 34.7421C12.1574 35.5016 9.95536 36.7132 6.9747 36.7385C3.53557 36.7676 0.683395 35.2177 -1.21191 33.1745L13.4509 19.5729ZM23.7673 19.86C23.7483 19.8469 23.6921 19.8085 23.6038 19.7534C23.5212 19.702 23.362 19.6057 23.1412 19.4906C22.9427 19.3871 22.5424 19.1883 21.9956 18.9962C21.562 18.8439 20.3839 18.4564 18.8007 18.4564V38.4564C16.0573 38.4564 14.0248 37.2926 13.8963 37.2256C13.2552 36.8915 12.7249 36.5404 12.3881 36.3074L23.7673 19.86ZM18.8007 18.4564C17.4928 18.4564 14.7669 18.7662 12.3357 21.0211C9.73862 23.4299 9.18794 26.449 9.23997 28.3502L29.2325 27.8031C29.2908 29.9349 28.6759 33.1438 25.9363 35.6848C23.3626 38.0719 20.4158 38.4564 18.8007 38.4564V18.4564ZM2.14197 26.0872C1.14164 24.6553 0.0743378 22.6984 -0.729383 20.916L17.5029 12.695C17.6923 13.1152 17.9177 13.5617 18.1381 13.9606C18.2462 14.1562 18.3424 14.3209 18.4202 14.4485C18.5019 14.5823 18.5421 14.6401 18.5373 14.6332L2.14197 26.0872ZM-0.729383 20.916C-1.06759 20.1659 -1.60472 18.9063 -1.90521 17.5568C-1.98977 17.177 -2.11848 16.5189 -2.16049 15.7071C-2.18835 15.1688 -2.28005 13.2061 -1.28924 10.9899C-0.723357 9.72422 0.332416 8.08038 2.2079 6.79428C4.15446 5.45944 6.27143 4.99993 8.0835 5.03354C11.1448 5.09033 13.2118 6.5204 13.6947 6.85479L2.30858 23.2973C2.707 23.5732 4.70505 24.9743 7.71256 25.0301C9.49773 25.0632 11.5916 24.6102 13.5188 23.2886C15.3749 22.0158 16.415 20.3921 16.969 19.153C17.936 16.9902 17.8352 15.1072 17.8128 14.6734C17.7762 13.9662 17.6673 13.4373 17.6167 13.2101C17.4521 12.4707 17.2764 12.1928 17.5029 12.695L-0.729383 20.916ZM13.6892 6.85098C14.207 7.20901 15.4153 8.10699 16.3363 8.8024L4.28479 24.7636C3.83388 24.4232 3.36257 24.0712 2.97187 23.7823C2.77627 23.6377 2.60905 23.515 2.47966 23.4209C2.33036 23.3123 2.28814 23.2832 2.31409 23.3011L13.6892 6.85098ZM16.3383 8.80388C16.3382 8.80382 16.3442 8.80836 16.3569 8.81751C16.3696 8.82662 16.3875 8.83935 16.4111 8.85568C16.4591 8.88881 16.5241 8.93245 16.6076 8.98619C16.7769 9.09515 16.9946 9.22811 17.2592 9.38052L7.27648 26.711C6.31484 26.1571 5.25019 25.4929 4.28283 24.7621L16.3383 8.80388ZM10.4823 21.1641C10.4938 21.3344 10.5597 22.1743 11.0167 23.2424C11.5215 24.4224 12.247 25.2955 12.8819 25.8583C13.4015 26.3188 13.7497 26.471 13.522 26.3514C13.3159 26.2432 12.8996 26.0457 12.0816 25.6991L19.8838 7.28375C21.4437 7.94463 24.0725 9.0517 26.1477 10.891C27.4398 12.0363 28.6068 13.5112 29.4044 15.3753C30.1541 17.1274 30.3637 18.7336 30.4368 19.8155L10.4823 21.1641ZM12.0826 25.6995C13.2688 26.202 14.5484 26.4005 15.7821 26.3105C16.9573 26.2248 17.8554 25.8967 18.4125 25.632C19.3829 25.1709 19.7461 24.697 19.4647 24.9887L5.07092 11.1028C6.00743 10.1321 7.61313 8.62049 9.82892 7.56762C12.3156 6.38605 15.9861 5.6329 19.8828 7.28333L12.0826 25.6995ZM18.2836 26.4341C17.7664 27.1107 16.2716 29.1799 14.8308 30.5691C14.1959 31.1813 12.3064 32.9649 9.39411 33.7238C7.69019 34.1679 5.52798 34.2869 3.24551 33.5205C0.996211 32.7652 -0.602446 31.408 -1.64578 30.1571L13.7131 17.3468C12.9161 16.3912 11.5811 15.2221 9.61177 14.5608C7.60921 13.8884 5.74313 14.0073 4.35024 14.3703C3.06273 14.7058 2.1789 15.2424 1.75447 15.5297C1.30421 15.8345 1.03041 16.0929 0.9486 16.1718C0.812842 16.3027 0.865907 16.272 1.2079 15.8389C1.55644 15.3976 1.84437 15.0072 2.39565 14.2862L18.2836 26.4341ZM-1.64463 30.1585C-1.71688 30.0719 -1.64599 30.1737 -1.38315 30.4073C-1.32037 30.463 -0.826591 30.9109 -0.0343817 31.3709C0.284004 31.5557 1.3499 32.1648 2.88801 32.4802C4.24552 32.7585 8.80995 33.2885 12.3211 29.3345L-2.63377 16.0547C0.899163 12.0761 5.4994 12.5995 6.9051 12.8877C8.4914 13.213 9.61787 13.8484 10.0076 14.0747C10.9425 14.6175 11.6219 15.2084 11.9004 15.4558C12.5947 16.0726 13.217 16.7522 13.712 17.3455L-1.64463 30.1585ZM12.3049 29.3526C13.335 28.1983 13.8818 27.0464 14.1706 26.2951C14.4684 25.5205 14.6131 24.8533 14.6889 24.41C14.8356 23.5517 14.8333 22.8688 14.8265 22.5595C14.8122 21.9093 14.7326 21.4314 14.7135 21.3167C14.6624 21.0087 14.6169 20.8586 14.6468 20.9716C14.6887 21.1301 14.7984 21.4986 14.9682 21.984L-3.90961 28.5891C-4.20423 27.7471 -4.48119 26.8686 -4.68786 26.0875C-4.78226 25.7308 -4.91759 25.1877 -5.01648 24.592C-5.05941 24.3334 -5.1524 23.7379 -5.16866 22.9999C-5.17644 22.6467 -5.17682 21.9274 -5.02524 21.0406C-4.92518 20.4551 -4.5204 18.1689 -2.61762 16.0366L12.3049 29.3526ZM57.5483 17.8431C57.5326 17.8431 57.5157 17.8432 57.4974 17.8434L57.7438 37.8419C57.6776 37.8427 57.6123 37.8431 57.5483 37.8431V17.8431Z" fill="#100405" mask="url(#path-1-inside-1_41_5167)"/>
</svg>
