<svg width="26" height="45" viewBox="0 0 26 45" fill="none" xmlns="http://www.w3.org/2000/svg">
<path d="M12.772 26.9284V26.0332L11.8822 25.9345C6.74921 25.3652 2.70312 20.9972 2.70312 15.7684C2.70312 10.1532 7.32289 5.53906 12.9525 5.53906C18.5821 5.53906 23.2019 10.1532 23.2019 15.7684C23.2019 21.0122 19.2126 25.429 14.036 25.9331L13.133 26.021V26.9284V43.1883H12.772V26.9284Z" fill="#FED104" stroke="black" stroke-width="2"/>
<mask id="path-2-inside-1_2088_3829" fill="white">
<path d="M0.349389 2.79558C0.0600293 1.49631 -0.076499 0.270528 0.0435723 0.0495644C0.104522 -0.0627371 0.310534 0.141589 0.548848 0.550761C1.51292 2.20721 3.00619 3.72432 4.50465 4.56987L5.42743 5.09065H9.08457C11.0961 5.09065 13.6199 5.18805 14.693 5.30711C18.946 5.77884 20.5431 5.48752 22.6628 3.85378C23.7643 3.00476 24.4287 2.28156 25.2578 1.02891L25.9389 0L25.9875 0.663583C26.1621 3.04947 24.4863 6.98921 22.3427 9.23212L21.6145 9.99414C21.3589 9.81354 21.1077 9.63944 20.8604 9.47186C20.7072 9.63841 20.5795 9.74551 20.5 9.74551C20.1791 9.74551 19.6499 9.6484 20.1106 9.34425C20.1797 9.29858 20.272 9.23206 20.3796 9.15109C14.6964 5.42018 11.085 5.28655 5.59772 9.04197C5.74555 9.14584 5.87905 9.23214 5.98466 9.29052C6 9.5 6.14729 9.5 5.5 9.5C5.45925 9.5 5.4408 9.51289 5.43792 9.53296C5.5591 9.63422 5.65952 9.70921 5.72629 9.74551C5.7781 9.65019 5.86291 9.76988 5.79358 9.76988C5.77833 9.76988 5.75554 9.76141 5.72629 9.74551C5.68354 9.82417 5.42598 9.61643 5.43792 9.53296C5.36407 9.47124 5.28251 9.39976 5.19615 9.32134C4.94036 9.50211 4.68042 9.69107 4.41596 9.88825C2.5384 8.24168 0.942583 5.45841 0.349389 2.79558Z"/>
</mask>
<path d="M0.349389 2.79558C0.0600293 1.49631 -0.076499 0.270528 0.0435723 0.0495644C0.104522 -0.0627371 0.310534 0.141589 0.548848 0.550761C1.51292 2.20721 3.00619 3.72432 4.50465 4.56987L5.42743 5.09065H9.08457C11.0961 5.09065 13.6199 5.18805 14.693 5.30711C18.946 5.77884 20.5431 5.48752 22.6628 3.85378C23.7643 3.00476 24.4287 2.28156 25.2578 1.02891L25.9389 0L25.9875 0.663583C26.1621 3.04947 24.4863 6.98921 22.3427 9.23212L21.6145 9.99414C21.3589 9.81354 21.1077 9.63944 20.8604 9.47186C20.7072 9.63841 20.5795 9.74551 20.5 9.74551C20.1791 9.74551 19.6499 9.6484 20.1106 9.34425C20.1797 9.29858 20.272 9.23206 20.3796 9.15109C14.6964 5.42018 11.085 5.28655 5.59772 9.04197C5.74555 9.14584 5.87905 9.23214 5.98466 9.29052C6 9.5 6.14729 9.5 5.5 9.5C5.45925 9.5 5.4408 9.51289 5.43792 9.53296C5.5591 9.63422 5.65952 9.70921 5.72629 9.74551C5.7781 9.65019 5.86291 9.76988 5.79358 9.76988C5.77833 9.76988 5.75554 9.76141 5.72629 9.74551C5.68354 9.82417 5.42598 9.61643 5.43792 9.53296C5.36407 9.47124 5.28251 9.39976 5.19615 9.32134C4.94036 9.50211 4.68042 9.69107 4.41596 9.88825C2.5384 8.24168 0.942583 5.45841 0.349389 2.79558Z" fill="black"/>
<path d="M5.19615 9.32134L1.83466 13.0227L4.80505 15.7204L8.08186 13.4046L5.19615 9.32134ZM5.59772 9.04197L8.42164 13.1682L14.3716 9.09608L8.47232 4.95092L5.59772 9.04197ZM20.3796 9.15109L17.373 5.15603L11.6937 9.43015L17.6357 13.3309L20.3796 9.15109ZM20.8604 9.47186L18.0556 13.6111L21.623 16.0284L24.5404 12.8568L20.8604 9.47186ZM3.31125 4.78702L0.406846 8.85697L0.407293 8.85729L3.31125 4.78702ZM6.81373 7.28452L1.814 7.33627L1.81401 7.33701L6.81373 7.28452ZM2.75386 5.5149L-0.523067 9.29137L-0.52232 9.29202L2.75386 5.5149ZM2.33437 5.65389L6.90453 3.62567L6.90434 3.62525L2.33437 5.65389ZM2.42412 6.04383L-1.25045 9.43463L-1.24823 9.43704L2.42412 6.04383ZM1.24505 3.26073L6.14091 2.24558L6.14079 2.24498L1.24505 3.26073ZM1.1393 2.75104L4.80515 -0.64919L-7.40352 -13.8116L-3.75644 3.76679L1.1393 2.75104ZM1.80624 3.47008L-1.85961 6.87031L-1.85914 6.87081L1.80624 3.47008ZM24.6629 3.82224L29.3872 5.45949L29.3874 5.45904L24.6629 3.82224ZM22.3585 7.77722L19.4836 11.868L19.4838 11.8682L22.3585 7.77722ZM21.8044 8.2708L17.8207 5.24915L17.8197 5.25047L21.8044 8.2708ZM21.5199 8.22366L18.2421 4.4479L18.2421 4.4479L21.5199 8.22366ZM22.4821 7.48261L18.8054 10.8711L18.812 10.8783L22.4821 7.48261ZM23.415 5.98231L27.9806 8.02072L27.9806 8.02072L23.415 5.98231ZM23.5503 5.36863L26.413 9.46797L26.4158 9.46604L23.5503 5.36863ZM22.739 5.97433L19.7072 1.99841L19.7062 1.99916L22.739 5.97433ZM19.7296 7.48486L21.2122 12.26L21.2136 12.2596L19.7296 7.48486ZM19.1689 7.3729L14.1723 7.18767L14.1723 7.18784L19.1689 7.3729ZM20.7461 5.87087L18.7797 1.27379L18.7792 1.274L20.7461 5.87087ZM24.4857 3.27771L20.631 0.0931049L20.6305 0.0938114L24.4857 3.27771ZM24.9038 2.90251L21.1488 6.20408L21.1569 6.21321L24.9038 2.90251ZM4.47691 8.13718L7.87526 4.46958L7.87486 4.46921L4.47691 8.13718ZM3.83664 7.88432L7.85613 4.9105L7.85601 4.91033L3.83664 7.88432ZM11.9585 8.76853L12.1011 3.77056L12.101 3.77056L11.9585 8.76853ZM8.08186 13.4046C8.19715 13.3231 8.31038 13.2443 8.42164 13.1682L2.7738 4.91578C2.61958 5.02132 2.46514 5.12879 2.31045 5.23811L8.08186 13.4046ZM17.6357 13.3309C17.7729 13.421 17.9128 13.5144 18.0556 13.6111L23.6651 5.33263C23.4841 5.20993 23.3035 5.08944 23.1236 4.97128L17.6357 13.3309ZM26.6311 8.97211L26.1848 7.96625L17.0442 12.022L17.4905 13.0279L26.6311 8.97211ZM0.407293 8.85729C1.15408 9.39008 2.1006 9.90674 2.83362 10.2661C3.22101 10.456 3.64814 10.6509 4.05969 10.8115C4.26174 10.8903 4.52249 10.9855 4.80957 11.0683C4.98154 11.1178 5.61678 11.3038 6.40506 11.3038V1.30379C6.62359 1.30379 6.80435 1.31894 6.93265 1.33363C7.06409 1.34867 7.17313 1.36704 7.2537 1.38244C7.40997 1.41231 7.52411 1.44356 7.57957 1.45956C7.68753 1.49068 7.73353 1.5107 7.69461 1.49552C7.62421 1.46805 7.46453 1.39934 7.23571 1.28716C7.01645 1.17966 6.78639 1.05809 6.58223 0.941573C6.48143 0.884046 6.39598 0.832904 6.32784 0.790284C6.25723 0.746114 6.22161 0.721333 6.2152 0.71676L0.407293 8.85729ZM6.40506 11.3038C4.41726 11.3038 3.22203 10.1597 2.83354 9.72702C2.37744 9.21902 2.15848 8.74585 2.06836 8.52956C1.87513 8.06582 1.81744 7.6686 1.814 7.33627L11.8135 7.23276C11.8048 6.39993 11.6445 5.51234 11.2991 4.68337C11.1329 4.28446 10.8255 3.65994 10.2745 3.04626C9.79109 2.50788 8.49457 1.30379 6.40506 1.30379V11.3038ZM1.81401 7.33701C1.80699 6.66889 1.93726 5.88042 2.33204 5.08964C2.72889 4.29471 3.29156 3.70108 3.86544 3.28923C4.90499 2.54318 5.91949 2.42637 6.26939 2.39721C6.70851 2.36062 7.04062 2.39718 7.1802 2.41541C7.34413 2.43682 7.45801 2.46282 7.50402 2.47392C7.62006 2.50189 7.51888 2.48427 7.18527 2.33886C6.45077 2.0187 5.98826 1.70154 6.03005 1.73778L-0.52232 9.29202C0.590815 10.2575 2.16068 11.0574 3.18949 11.5059C3.73754 11.7447 4.45075 12.0243 5.16016 12.1954C5.42145 12.2583 6.18566 12.4389 7.09986 12.3627C7.53324 12.3266 8.6126 12.1911 9.69598 11.4136C11.0773 10.4222 11.8304 8.8459 11.8135 7.23203L1.81401 7.33701ZM6.03079 1.73843C5.86134 1.59139 5.57583 1.34646 5.26582 1.12667C5.12651 1.0279 4.7944 0.797736 4.34764 0.592284C4.12061 0.487882 3.71498 0.319647 3.1842 0.215171C2.67723 0.115381 1.72558 0.00788616 0.616822 0.375366C-2.35869 1.36155 -2.7956 4.13641 -2.83017 4.95485C-2.86607 5.80462 -2.67417 6.46865 -2.62667 6.6358C-2.49466 7.10028 -2.30885 7.51752 -2.2356 7.68254L6.90434 3.62525C6.82788 3.45302 6.91061 3.61426 6.99238 3.90196C7.01476 3.98071 7.19474 4.57615 7.16092 5.37687C7.14298 5.80145 7.05386 6.63527 6.55397 7.54476C5.97873 8.59135 5.00773 9.455 3.76287 9.86759C2.66952 10.23 1.73697 10.1222 1.25289 10.0269C0.745 9.92693 0.366035 9.76799 0.169568 9.67764C-0.216078 9.50029 -0.471533 9.31727 -0.517875 9.28441C-0.641946 9.19645 -0.676266 9.15844 -0.523067 9.29137L6.03079 1.73843ZM-2.23578 7.68211C-2.18895 7.78765 -2.31171 7.54406 -2.40883 7.12206C-2.43534 7.00684 -2.50613 6.68619 -2.52461 6.26124C-2.53385 6.04886 -2.53787 5.658 -2.45173 5.17684C-2.37513 4.74904 -2.15379 3.81877 -1.40475 2.90237C-0.506035 1.80284 0.832204 1.12434 2.28323 1.07291C3.49407 1.03 4.38653 1.43533 4.78148 1.64337C5.55354 2.05006 6.01497 2.56242 6.09647 2.65062L-1.24823 9.43704C-1.14471 9.54907 -0.665265 10.0768 0.120906 10.4909C0.522905 10.7027 1.42145 11.1097 2.63742 11.0666C4.09357 11.015 5.43598 10.3344 6.33792 9.23096C7.09018 8.31061 7.31381 7.37455 7.39176 6.93917C7.47926 6.45043 7.47567 6.05021 7.46595 5.82675C7.4465 5.37965 7.37111 5.02999 7.33646 4.87942C7.20681 4.31605 6.99513 3.82984 6.90453 3.62567L-2.23578 7.68211ZM6.0987 2.65303C6.22897 2.79421 6.32523 2.91583 6.38515 2.99489C6.44792 3.07771 6.49596 3.14717 6.52821 3.19534C6.59061 3.28854 6.63013 3.35634 6.6438 3.38009C6.67084 3.42705 6.67066 3.43072 6.64053 3.36973C6.58366 3.2546 6.49581 3.06299 6.3959 2.8272C6.29763 2.59525 6.20891 2.37063 6.14572 2.19715C6.11411 2.11039 6.09676 2.05798 6.09036 2.03765C6.08747 2.02846 6.09083 2.03854 6.098 2.06467C6.10414 2.08709 6.12135 2.15123 6.14091 2.24558L-3.65081 4.27588C-3.47469 5.12531 -3.03837 6.19349 -2.81176 6.72835C-2.66165 7.08263 -2.49241 7.46019 -2.32523 7.79864C-2.24333 7.96443 -2.13974 8.16599 -2.0222 8.37012C-1.96718 8.46567 -1.69247 8.95562 -1.25045 9.43463L6.0987 2.65303ZM6.14079 2.24498L6.03504 1.73529L-3.75644 3.76679L-3.65069 4.27647L6.14079 2.24498ZM-2.52655 6.15127L-1.85961 6.87031L5.47209 0.0698516L4.80515 -0.64919L-2.52655 6.15127ZM-1.85914 6.87081C-1.25095 7.52633 -0.316172 8.34101 0.406846 8.85697L6.21565 0.717079C6.16341 0.679801 6.01307 0.563044 5.81607 0.390662C5.72631 0.312119 5.64439 0.237311 5.57713 0.173343C5.54398 0.141809 5.51761 0.115972 5.49803 0.0963347C5.47787 0.0761197 5.46969 0.0672618 5.47162 0.069349L-1.85914 6.87081ZM19.9386 2.18498C19.8008 2.58253 19.4553 3.31503 19.083 3.95408C18.8957 4.2755 18.799 4.40455 18.8157 4.38324C18.8277 4.36788 18.8694 4.3151 18.9388 4.23946C18.9989 4.17403 19.1426 4.02203 19.3613 3.84457C19.5254 3.71143 20.0361 3.30877 20.8293 3.04212C21.6901 2.75274 23.4922 2.46282 25.2332 3.68625L19.4838 11.8682C21.2584 13.1152 23.1036 12.8275 24.0158 12.5208C24.8604 12.2369 25.431 11.7974 25.6623 11.6097C26.1724 11.1958 26.5301 10.7517 26.6918 10.545C27.0789 10.0501 27.4374 9.47907 27.7233 8.98844C28.2972 8.00342 28.9698 6.66415 29.3872 5.45949L19.9386 2.18498ZM25.2335 3.68644C23.7352 2.63344 22.2002 2.71891 21.4672 2.84672C20.7215 2.97673 20.1752 3.24516 19.9178 3.38302C19.378 3.67212 18.9944 4.00069 18.8215 4.15473C18.4166 4.5154 18.0783 4.90949 17.8207 5.24915L25.788 11.2924C25.7707 11.3153 25.6772 11.4399 25.4732 11.6216C25.4007 11.6862 25.1065 11.9479 24.6392 12.1983C24.418 12.3167 23.9036 12.5728 23.1849 12.6981C22.4788 12.8212 20.9657 12.9097 19.4836 11.868L25.2335 3.68644ZM17.8197 5.25047C17.7348 5.36242 17.6432 5.48462 17.5693 5.58297C17.4899 5.68848 17.4208 5.78001 17.3565 5.86363C17.2919 5.94765 17.2426 6.01006 17.2055 6.05555C17.1657 6.10443 17.1594 6.10974 17.1804 6.08696L24.5404 12.8568C25.0289 12.3256 25.6179 11.5169 25.789 11.2911L17.8197 5.25047ZM23.3862 13.1461C23.8076 12.829 24.3466 12.3909 24.7976 11.9994L18.2421 4.4479C17.9427 4.70782 17.5848 4.99665 17.373 5.15603L23.3862 13.1461ZM24.7976 11.9994C24.9986 11.8249 25.1546 11.6985 25.2302 11.6402C25.2829 11.5996 25.2342 11.6402 25.1227 11.7129C25.0944 11.7314 24.884 11.8709 24.5799 12.0137C24.4622 12.069 24.0465 12.2634 23.4711 12.3806C23.1848 12.439 22.6001 12.5341 21.8645 12.4431C21.0984 12.3483 19.8471 12.0013 18.8055 10.8711L26.1588 4.09407C25.1155 2.96207 23.8617 2.61399 23.0924 2.5188C22.3536 2.42738 21.7649 2.5228 21.4738 2.58214C20.8889 2.70136 20.4607 2.90032 20.3277 2.96284C19.9929 3.12014 19.7403 3.28439 19.6599 3.33689C19.444 3.47769 19.2506 3.62349 19.1289 3.7172C18.8557 3.92757 18.5438 4.186 18.2421 4.4479L24.7976 11.9994ZM18.812 10.8783C20.0907 12.2603 21.8143 12.6319 23.1873 12.442C24.2817 12.2907 25.0331 11.8185 25.3133 11.6309C25.9237 11.2222 26.3115 10.7658 26.4175 10.6415C26.7237 10.2825 26.9593 9.91796 27.0936 9.70197C27.4002 9.20897 27.7179 8.60915 27.9806 8.02072L18.8493 3.94389C18.7598 4.14452 18.6524 4.33957 18.6013 4.4218C18.5567 4.49344 18.6304 4.36161 18.8089 4.15228C18.8511 4.1028 19.1837 3.70043 19.7497 3.32145C20.0077 3.14876 20.7396 2.68535 21.8174 2.5363C23.1738 2.34872 24.8839 2.7161 26.1522 4.08694L18.812 10.8783ZM27.9806 8.02072C28.1075 7.7365 28.3462 7.18059 28.4843 6.55422C28.5234 6.37662 28.5851 6.0597 28.6054 5.66511C28.6186 5.40685 28.6646 4.43975 28.1791 3.34305C27.9021 2.71712 27.3808 1.89359 26.4456 1.24589C25.4719 0.571524 24.4078 0.336687 23.493 0.353821C21.952 0.382684 20.917 1.10877 20.6847 1.27123L26.4158 9.46604C26.2132 9.60775 25.2024 10.3236 23.6803 10.3521C22.775 10.369 21.719 10.1365 20.7521 9.46683C19.8237 8.82385 19.308 8.00744 19.0351 7.39097C18.5579 6.3132 18.6071 5.37439 18.6185 5.15321C18.6368 4.7957 18.6916 4.52467 18.7188 4.40119C18.8091 3.99133 18.9208 3.78376 18.8493 3.94389L27.9806 8.02072ZM20.6875 1.2693C20.4755 1.41732 20.0259 1.75541 19.7072 1.99841L25.7708 9.95026C25.9254 9.83241 26.087 9.71053 26.2201 9.61112C26.2868 9.56131 26.3423 9.5202 26.3837 9.48979C26.4351 9.45206 26.4377 9.45071 26.413 9.46797L20.6875 1.2693ZM19.7062 1.99916C19.7515 1.96459 19.7175 1.99403 19.5716 2.0803C19.4407 2.1577 19.2722 2.24983 19.0821 2.34522C18.8929 2.44019 18.7063 2.52634 18.5424 2.59562C18.3695 2.66867 18.2698 2.70264 18.2457 2.71015L21.2136 12.2596C22.6024 11.8279 24.5834 10.8562 25.7718 9.94951L19.7062 1.99916ZM18.2471 2.70971C18.1383 2.7435 18.2263 2.7122 18.3886 2.67757C18.4169 2.67153 19.2151 2.47297 20.2393 2.67755C20.8561 2.80076 21.6476 3.0862 22.3958 3.70426C23.1516 4.32859 23.5943 5.07003 23.8393 5.69658C24.0662 6.27645 24.1288 6.76689 24.1509 7.02003C24.1741 7.28489 24.1681 7.4858 24.1655 7.55797L14.1723 7.18784C14.1688 7.28158 14.1023 8.25506 14.5264 9.33923C14.7849 10.0001 15.2462 10.7689 16.0273 11.4141C16.8007 12.053 17.624 12.3527 18.2805 12.4838C19.3841 12.7043 20.2932 12.4963 20.4746 12.4576C20.79 12.3903 21.0732 12.3032 21.2122 12.26L18.2471 2.70971ZM24.1654 7.55814C24.1633 7.61483 24.1493 8.04816 23.9473 8.60962C23.7134 9.25977 23.3355 9.79504 22.925 10.186C22.7451 10.3573 22.5884 10.4729 22.4893 10.5402C22.3914 10.6067 22.3275 10.6411 22.3217 10.6442C22.3149 10.6479 22.3394 10.6345 22.4109 10.6013C22.4813 10.5686 22.5783 10.5254 22.713 10.4677L18.7792 1.274C18.2657 1.49371 17.0158 2.00439 16.0289 2.94422C14.4893 4.4103 14.211 6.14367 14.1723 7.18767L24.1654 7.55814ZM22.7125 10.468C23.7654 10.0176 24.8247 9.39436 25.7098 8.78063C26.5363 8.2075 27.5685 7.39692 28.3409 6.46161L20.6305 0.0938114C20.707 0.00111864 20.7034 0.0229315 20.5533 0.151007C20.4215 0.263527 20.237 0.4066 20.0114 0.563052C19.5341 0.894046 19.0679 1.1505 18.7797 1.27379L22.7125 10.468ZM28.3403 6.46232C28.3352 6.46851 28.2598 6.56224 28.0972 6.70811C28.0504 6.75006 27.7899 6.98691 27.3826 7.22573C27.2186 7.32193 26.6779 7.63359 25.8991 7.79487C25.2026 7.93908 22.9045 8.2008 21.1489 6.20407L28.6588 -0.399063C26.8955 -2.4045 24.5848 -2.14513 23.8714 -1.9974C23.0756 -1.83262 22.5137 -1.5116 22.3245 -1.40071C21.8671 -1.1325 21.5413 -0.844895 21.4188 -0.734952C21.1047 -0.45308 20.8355 -0.154325 20.631 0.0931049L28.3403 6.46232ZM21.1569 6.21321C20.6456 5.63451 20.3754 5.05883 20.2334 4.68562C20.0866 4.30011 20.0154 3.96822 19.9781 3.74773C19.9058 3.32053 19.9068 2.97986 19.9102 2.82367C19.9173 2.49561 19.9573 2.25068 19.9683 2.18368C19.9848 2.0833 20.0004 2.01228 20.0067 1.98424C20.0141 1.95141 20.019 1.9329 20.0193 1.93158C20.0197 1.93011 20.0129 1.95576 19.9968 2.008C19.9814 2.05774 19.9616 2.11853 19.9384 2.18543L29.3874 5.45904C29.4997 5.13494 29.6087 4.78714 29.6928 4.466C29.7305 4.32216 29.7907 4.08062 29.8359 3.80566C29.8553 3.6876 29.9 3.40095 29.9078 3.04174C29.9115 2.86998 29.9119 2.51639 29.8379 2.07907C29.7897 1.79426 29.592 0.657112 28.6507 -0.408195L21.1569 6.21321ZM-1.6151 8.86481C-1.75365 8.60991 -2.06013 7.99399 -2.15126 7.11523C-2.18942 6.74728 -2.27 5.65347 -1.66915 4.43108C-1.3309 3.74293 -0.754932 2.9816 0.148166 2.41385C1.05552 1.84343 2.00386 1.6504 2.79592 1.6504V11.6504C3.59845 11.6504 4.55571 11.4549 5.47044 10.8799C6.38091 10.3075 6.96271 9.53931 7.30529 8.84236C7.9148 7.60237 7.83681 6.4831 7.7954 6.08374C7.69775 5.14216 7.36133 4.43959 7.17098 4.08937L-1.6151 8.86481ZM2.79592 1.6504C4.18639 1.6504 5.14535 2.2296 5.43528 2.41333C5.8402 2.66993 6.12101 2.93247 6.28029 3.09452C6.6064 3.42629 6.84398 3.76808 7.0186 4.08937L-1.76748 8.86481C-1.54104 9.28141 -1.23924 9.70986 -0.85138 10.1045C-0.661226 10.2979 -0.350161 10.5859 0.082541 10.8601C0.400245 11.0614 1.3845 11.6504 2.79592 11.6504V1.6504ZM7.0186 4.08937C7.15714 4.34427 7.46363 4.96019 7.55476 5.83895C7.59292 6.2069 7.6735 7.30071 7.07264 8.52311C6.73439 9.21127 6.15842 9.9726 5.25532 10.5403C4.34797 11.1108 3.39963 11.3038 2.60758 11.3038V1.30379C1.80505 1.30379 0.847804 1.49925 -0.0669283 2.07431C-0.977403 2.64669 -1.55921 3.41486 -1.90179 4.11181C-2.5113 5.35181 -2.43331 6.47108 -2.3919 6.87044C-2.29425 7.81203 -1.95783 8.5146 -1.76748 8.86481L7.0186 4.08937ZM2.60758 11.3038C1.21712 11.3038 0.258164 10.7246 -0.0317667 10.5409C-0.436694 10.2843 -0.717504 10.0217 -0.876783 9.85967C-1.2029 9.5279 -1.44047 9.1861 -1.6151 8.86481L7.17098 4.08937C6.94454 3.67276 6.64274 3.24431 6.25487 2.84972C6.06472 2.65626 5.75365 2.36826 5.32095 2.09406C5.00324 1.89273 4.01899 1.30379 2.60758 1.30379V11.3038ZM1.07857 11.8048C1.58427 12.2733 2.19577 12.7625 2.72312 13.133L8.47232 4.95092C8.29294 4.82488 8.03391 4.61659 7.87526 4.46958L1.07857 11.8048ZM8.55765 5.61994C8.42149 5.49628 8.23893 5.31851 8.06819 5.1393C7.98524 5.05222 7.91894 4.97932 7.87207 4.92557C7.81828 4.86389 7.82012 4.86182 7.85613 4.9105L-0.18286 10.8582C0.386762 11.6281 1.27034 12.5102 1.83466 13.0227L8.55765 5.61994ZM7.85601 4.91033C7.70829 4.71069 7.82933 4.85116 7.98318 5.14278C8.03149 5.23435 8.14549 5.45686 8.25347 5.76397C8.30926 5.92262 8.632 6.80306 8.49689 7.96589C8.41865 8.63934 8.15647 9.65281 7.35796 10.6007C6.51818 11.5976 5.44898 12.0908 4.53136 12.276C3.04304 12.5764 1.89678 12.0946 1.73571 12.0309C1.36961 11.8864 1.10941 11.731 1.00997 11.6702C0.885958 11.5942 0.79685 11.5311 0.754763 11.5006C0.672287 11.4409 0.635469 11.4083 0.665939 11.4338C0.721307 11.4802 0.85026 11.5933 1.07897 11.8051L7.87486 4.46921C7.60248 4.21689 7.33126 3.9722 7.08563 3.76653C6.9656 3.66603 6.80307 3.53387 6.61946 3.40092C6.54044 3.3437 6.06611 2.98952 5.40863 2.72989C5.22147 2.65598 4.05519 2.17043 2.55293 2.47363C1.62833 2.66025 0.553672 3.15647 -0.290048 4.15804C-1.0925 5.11062 -1.35712 6.13041 -1.43629 6.81182C-1.57324 7.99056 -1.24631 8.89346 -1.18033 9.0811C-1.06215 9.4172 -0.931955 9.67524 -0.86146 9.80887C-0.618881 10.2687 -0.313408 10.6817 -0.182739 10.8583L7.85601 4.91033ZM9.11135 13.6894L11.816 13.7665L12.101 3.77056L9.39638 3.69344L9.11135 13.6894ZM11.816 13.7665C12.3861 13.7828 12.8031 13.7979 13.1251 13.815C13.4506 13.8323 13.6167 13.8487 13.6969 13.859C13.7603 13.8672 13.7159 13.8648 13.6182 13.8371C13.517 13.8085 13.4593 13.7811 13.498 13.7982L17.5492 4.65561C15.7701 3.86724 14.2721 3.83249 12.1011 3.77056L11.816 13.7665ZM0.0435723 0.0495644L8.83011 4.82416L8.83256 4.81965L0.0435723 0.0495644ZM0.349389 2.79558L-9.41147 4.96942L-9.41135 4.96997L0.349389 2.79558ZM4.41596 9.88825L-2.17748 17.4067L3.90619 22.7419L10.3933 17.9052L4.41596 9.88825ZM5.19615 9.32134L11.9192 1.91856L5.9784 -3.4767L-0.575233 1.15487L5.19615 9.32134ZM5.59772 9.04197L-0.0501047 0.789573L-11.9501 8.93373L-0.151476 17.2241L5.59772 9.04197ZM20.3796 9.15109L26.3927 17.1412L37.7514 8.59301L25.8675 0.791485L20.3796 9.15109ZM20.8604 9.47186L26.4699 1.19342L19.335 -3.64132L13.5003 2.7021L20.8604 9.47186ZM21.6145 9.99414L15.8431 18.1606L22.8859 23.138L28.8442 16.9029L21.6145 9.99414ZM22.3427 9.23212L15.1134 2.3229L15.113 2.32331L22.3427 9.23212ZM25.9875 0.663583L35.9608 -0.0663584L35.9608 -0.0669511L25.9875 0.663583ZM25.9389 0L35.9122 -0.730534L33.7719 -29.949L17.6004 -5.51991L25.9389 0ZM25.2578 1.02891L16.9193 -4.491L16.9188 -4.49029L25.2578 1.02891ZM22.6628 3.85378L28.7675 11.7742L28.7676 11.7741L22.6628 3.85378ZM14.693 5.30711L13.5904 15.2461L13.5906 15.2462L14.693 5.30711ZM5.42743 5.09065L0.512509 13.7995L2.80037 15.0907H5.42743V5.09065ZM4.50465 4.56987L9.41957 -4.13895L9.41906 -4.13923L4.50465 4.56987ZM0.548848 0.550761L9.1916 -4.47944L9.19004 -4.48212L0.548848 0.550761ZM20.1106 9.34425L25.6207 17.6892L25.6243 17.6868L20.1106 9.34425ZM5.98466 9.29052L15.958 8.56035L15.5625 3.15846L10.822 0.538377L5.98466 9.29052ZM-8.74297 -4.72503C-9.67561 -3.00871 -9.8646 -1.44283 -9.9115 -1.06991C-9.99077 -0.439506 -10.0008 0.0914713 -9.99996 0.415343C-9.99821 1.08127 -9.9442 1.68879 -9.89561 2.12508C-9.79366 3.04052 -9.62017 4.03233 -9.41147 4.96942L10.1103 0.621737C10.0296 0.259564 9.99013 -0.0111535 9.9815 -0.0886625C9.97479 -0.148854 9.9991 0.0295903 9.99998 0.362935C10.0004 0.520515 9.99712 0.909326 9.93224 1.42533C9.89899 1.68971 9.83574 2.10118 9.70747 2.59878C9.5899 3.05485 9.3437 3.87901 8.83011 4.82416L-8.74297 -4.72503ZM-9.41135 4.96997C-8.40145 9.50336 -5.80012 14.2297 -2.17748 17.4067L11.0094 2.36983C11.0548 2.40964 10.8479 2.22272 10.5763 1.74905C10.3148 1.29306 10.1653 0.868906 10.1101 0.621191L-9.41135 4.96997ZM10.3933 17.9052C10.595 17.7548 10.7862 17.6159 10.9675 17.4878L-0.575233 1.15487C-0.905498 1.38828 -1.23418 1.62736 -1.56134 1.87128L10.3933 17.9052ZM11.2455 17.2944C13.1973 15.9586 13.424 16.2967 12.7832 16.2883C12.2628 16.2814 12.65 16.039 14.8917 17.5107L25.8675 0.791485C22.426 -1.46777 18.1658 -3.64242 13.0471 -3.70997C7.80805 -3.77912 3.4854 -1.63008 -0.0501047 0.789573L11.2455 17.2944ZM15.2508 17.7503C15.4396 17.8782 15.6368 18.0148 15.8431 18.1606L27.3859 1.82771C27.0811 1.61227 26.7757 1.40063 26.4699 1.19342L15.2508 17.7503ZM28.8442 16.9029L29.5724 16.1409L15.113 2.32331L14.3848 3.08534L28.8442 16.9029ZM29.572 16.1413C31.6481 13.969 33.2078 11.3341 34.2365 8.91574C35.188 6.67888 36.214 3.39326 35.9608 -0.0663584L16.0142 1.39352C15.9872 1.02564 16.0049 0.769136 16.0164 0.651347C16.0285 0.527497 16.0418 0.476854 16.0358 0.503882C16.0209 0.570106 15.9639 0.777922 15.8323 1.08719C15.7042 1.38848 15.5467 1.68833 15.3851 1.94432C15.2172 2.21033 15.1091 2.32737 15.1134 2.3229L29.572 16.1413ZM35.9608 -0.0669511L35.9122 -0.730534L15.9656 0.730534L16.0142 1.39412L35.9608 -0.0669511ZM17.6004 -5.51991L16.9193 -4.491L33.5963 6.54882L34.2774 5.51991L17.6004 -5.51991ZM16.9188 -4.49029C16.6962 -4.15395 16.6441 -4.11353 16.6981 -4.17231C16.7213 -4.19761 16.7378 -4.21247 16.7332 -4.20833C16.7241 -4.20023 16.675 -4.15669 16.5581 -4.06655L28.7676 11.7741C30.8081 10.2014 32.2088 8.64515 33.5967 6.5481L16.9188 -4.49029ZM16.5582 -4.06665C16.388 -3.93552 16.4777 -4.0253 16.7538 -4.15935C16.8944 -4.22762 17.0569 -4.2947 17.2338 -4.35232C17.4098 -4.40966 17.5642 -4.44594 17.6839 -4.46776C17.911 -4.50918 17.9363 -4.48403 17.6073 -4.48972C17.2635 -4.49566 16.7084 -4.53067 15.7955 -4.63194L13.5906 15.2462C15.8582 15.4977 18.5519 15.7038 21.2719 15.2078C24.4577 14.6268 26.8331 13.2651 28.7675 11.7742L16.5582 -4.06665ZM15.7957 -4.63191C14.1685 -4.81244 11.2083 -4.90935 9.08457 -4.90935V15.0907C9.94615 15.0907 10.9504 15.1119 11.855 15.1468C12.3043 15.1641 12.7044 15.1839 13.0304 15.204C13.1927 15.2141 13.3254 15.2235 13.4286 15.2318C13.4796 15.2358 13.5193 15.2393 13.5485 15.242C13.5782 15.2448 13.5915 15.2463 13.5904 15.2461L15.7957 -4.63191ZM9.08457 -4.90935H5.42743V15.0907H9.08457V-4.90935ZM10.3423 -3.61817L9.41957 -4.13895L-0.410272 13.2787L0.512509 13.7995L10.3423 -3.61817ZM9.41906 -4.13923C9.53279 -4.07506 9.57714 -4.03805 9.56313 -4.04904C9.55147 -4.0582 9.51125 -4.09147 9.4533 -4.15035C9.39597 -4.20859 9.33837 -4.27455 9.28693 -4.34137C9.23511 -4.40869 9.20411 -4.45793 9.1916 -4.47944L-8.0939 5.58096C-6.34021 8.5941 -3.62679 11.4637 -0.409769 13.279L9.41906 -4.13923ZM9.19004 -4.48212C8.90732 -4.96753 8.27853 -5.99674 7.27194 -6.99517C6.95976 -7.30482 5.49687 -8.78129 3.0641 -9.53221C1.65121 -9.96832 -0.706749 -10.34 -3.36013 -9.37013C-6.13558 -8.35562 -7.84144 -6.38611 -8.74541 -4.72052L8.83256 4.81965C7.94382 6.45717 6.25773 8.40849 3.50615 9.41428C0.876628 10.3755 -1.45337 10.0045 -2.83465 9.57812C-5.20421 8.84672 -6.58927 7.42585 -6.81254 7.20439C-7.64131 6.38234 -8.04794 5.65988 -8.09234 5.58364L9.19004 -4.48212ZM13.5003 2.7021C13.5742 2.62176 13.9316 2.23126 14.5016 1.7866C14.7898 1.56178 15.3477 1.15226 16.1322 0.763985C16.8325 0.417321 18.3885 -0.254493 20.5 -0.254493V19.7455C22.6513 19.7455 24.253 19.0603 25.0044 18.6884C25.8399 18.2748 26.4543 17.8281 26.8035 17.5557C27.4955 17.0158 27.9933 16.4885 28.2204 16.2416L13.5003 2.7021ZM20.5 -0.254493C20.8709 -0.254493 21.3059 -0.230043 21.8024 -0.151447C22.0998 -0.104382 23.3452 0.0903017 24.7809 0.86918C25.5182 1.26918 26.9732 2.1779 28.1809 3.93053C29.59 5.97526 30.2917 8.66637 29.7458 11.4558C29.2725 13.8742 28.0401 15.4536 27.3684 16.1897C26.6518 16.9749 25.9713 17.4577 25.6207 17.6892L14.6004 0.999275C14.1347 1.30681 13.3699 1.85922 12.5954 2.70791C11.8657 3.50753 10.6015 5.14442 10.1181 7.61468C8.80995 14.2992 13.9696 17.7576 15.2435 18.4487C16.794 19.2899 18.2032 19.5278 18.6756 19.6026C19.3472 19.7089 19.9687 19.7455 20.5 19.7455V-0.254493ZM25.6243 17.6868C25.9444 17.4753 26.2247 17.2677 26.3927 17.1412L14.3665 1.16096C14.3576 1.16762 14.3683 1.1594 14.3958 1.13969C14.4102 1.12933 14.4334 1.11281 14.4642 1.09142C14.4943 1.07054 14.5394 1.03963 14.5968 1.00165L25.6243 17.6868ZM-0.151476 17.2241C0.130534 17.4222 0.594059 17.7369 1.14731 18.0427L10.822 0.538377C11.0179 0.646637 11.1556 0.73355 11.2178 0.773609C11.288 0.818716 11.3319 0.849325 11.3469 0.859872L-0.151476 17.2241ZM-3.98864 10.0207C-3.92599 10.8764 -3.58298 12.4623 -3.80197 11.3598C-3.8261 11.2383 -4.20691 9.58411 -3.80559 7.53071C-3.25176 4.69702 -1.53296 2.37455 0.715829 0.978256C2.39713 -0.0656824 3.94565 -0.317965 4.34105 -0.382088C4.89965 -0.472676 5.33016 -0.490164 5.42613 -0.494245C5.61658 -0.502343 5.77237 -0.5 5.5 -0.5V19.5C5.55128 19.5 5.93138 19.5023 6.27578 19.4877C6.44874 19.4803 6.93863 19.4579 7.54264 19.36C7.98346 19.2885 9.56342 19.0264 11.2658 17.9694C13.5357 16.56 15.2652 14.2211 15.823 11.367C16.2284 9.29315 15.8448 7.61441 15.8148 7.46346C15.5841 6.30203 15.903 7.80935 15.958 8.56035L-3.98864 10.0207ZM5.5 -0.5C4.64429 -0.5 2.6505 -0.401573 0.507251 0.818602C-2.13059 2.32035 -4.01257 4.9812 -4.46123 8.11634L15.3371 10.9496C14.8913 14.0646 13.02 16.709 10.4023 18.1993C8.27914 19.408 6.31495 19.5 5.5 19.5V-0.5ZM-4.46121 8.11622C-4.83963 10.7604 -4.06666 12.7865 -3.69904 13.617C-3.26616 14.5949 -2.76439 15.3077 -2.44552 15.721C-1.79901 16.5589 -1.11366 17.1812 -0.538636 17.6239C-0.0607333 17.9918 1.01466 18.7631 2.57723 19.2697C3.3146 19.5088 5.02407 19.9794 7.20036 19.6494C9.84159 19.2489 12.8011 17.6697 14.5126 14.5205L-3.06001 4.97047C-1.35922 1.84094 1.5829 0.272541 4.20191 -0.124596C6.35598 -0.45123 8.03841 0.0153815 8.7458 0.244745C10.2484 0.731952 11.2522 1.46082 11.6618 1.7762C12.1686 2.16635 12.7891 2.72594 13.3894 3.50392C13.6851 3.88724 14.1684 4.57066 14.5893 5.52155C14.945 6.32501 15.7125 8.32641 15.3371 10.9497L-4.46121 8.11622ZM14.5124 14.5209C13.5931 16.2123 11.3603 18.9649 7.29271 19.5922C3.46848 20.1821 0.517669 18.4872 -1.07111 16.9824C-2.35995 15.7617 -4.55375 12.9215 -4.1292 8.74207C-3.87303 6.22018 -2.60356 3.53367 -0.0957231 1.69707C2.16943 0.0381961 4.48814 -0.230119 5.79358 -0.230119V19.7699C7.11636 19.7699 9.44758 19.4978 11.7212 17.8328C14.2374 15.99 15.5112 13.2949 15.7684 10.7633C16.1949 6.5644 13.9897 3.70018 12.6818 2.4615C11.074 0.938739 8.09665 -0.768226 4.24411 -0.174039C0.148203 0.457682 -2.11462 3.2311 -3.05979 4.97007L14.5124 14.5209ZM5.79358 -0.230119C7.45337 -0.230119 8.69898 0.189374 9.19078 0.368697C9.79466 0.588882 10.2506 0.822903 10.5021 0.95961L0.950515 18.5314C0.989634 18.5527 3.00123 19.7699 5.79358 19.7699V-0.230119ZM10.5022 0.959683C10.812 1.12812 11.0501 1.28001 11.1944 1.37564C11.3475 1.47707 11.468 1.56386 11.5489 1.62363C11.7057 1.73964 11.8113 1.82692 11.8504 1.85963L-0.974573 17.2063C-0.836877 17.3213 -0.0719633 17.9756 0.95038 18.5313L10.5022 0.959683ZM11.8504 1.85962C11.8801 1.88441 11.8999 1.90164 11.9092 1.90974C11.9188 1.91818 11.9222 1.92129 11.9192 1.91856L-1.52686 16.7241C-1.36427 16.8718 -1.17717 17.037 -0.974556 17.2063L11.8504 1.85962Z" fill="black" mask="url(#path-2-inside-1_2088_3829)"/>
</svg>
