<svg width="255" height="55" viewBox="0 0 255 55" fill="none" xmlns="http://www.w3.org/2000/svg">
<path fill-rule="evenodd" clip-rule="evenodd" d="M0.0696979 0.0704217C-0.122367 0.38437 0.0960225 2.12598 0.55888 3.972C1.50775 7.75538 4.06041 11.7099 7.06375 14.0494L8.46524 15.1412L8.45841 25.0375L8.45159 34.9342L7.70381 35.6729C6.54532 36.8174 6.17314 37.7205 6.20068 39.3201C6.25016 42.184 8.09281 44.5959 10.9743 45.5685C12.0665 45.9371 13.2791 45.9982 19.6772 46.0058C26.8301 46.0144 27.1485 46.0349 28.099 46.549C29.2207 47.1555 29.6704 47.9513 29.6704 49.3285C29.6704 50.8965 28.3718 51.7283 25.2103 52.1843L24.0403 52.3532L24.2102 51.6699C24.3718 51.0196 24.3452 50.9935 23.6659 51.1307C22.8899 51.2875 19.6772 52.7322 19.6772 52.9245C19.6772 53.0917 23.6377 54.9975 23.9908 55C24.2104 55.0017 24.2187 54.8163 24.0235 54.2509C23.8809 53.8378 23.8132 53.4504 23.8726 53.3901C23.9323 53.33 24.5207 53.2126 25.1805 53.1296C27.3532 52.8558 28.9109 52.2875 29.7937 51.4463C30.5798 50.6975 30.6454 50.523 30.6454 49.1822C30.6454 47.3032 29.9132 46.1508 28.1378 45.2356C26.8789 44.5863 26.8038 44.5789 19.799 44.3969C15.9114 44.296 12.3438 44.1096 11.8712 43.9827C10.702 43.669 9.31735 42.7176 8.83865 41.8989C8.62123 41.5271 8.39553 40.6389 8.33703 39.9253C8.24124 38.7599 8.25977 38.6966 8.51667 39.3048L8.80306 39.9819H15.0386C18.4682 39.9819 22.1808 39.8672 23.2886 39.7268C28.9311 39.012 33.11 36.0954 35.485 31.2146C37.7047 26.6528 37.6248 20.3044 35.2883 15.6289L34.5744 14.1998L35.7392 13.1171C39.1681 9.93036 41.8488 4.33273 41.5694 0.942828L41.4917 0L40.4022 1.46189C39.076 3.24167 38.0133 4.2692 36.2513 5.4755C32.8607 7.79674 30.3058 8.21066 23.5029 7.54041C21.7862 7.37125 17.7492 7.23287 14.5316 7.23287H8.68168L7.2056 6.49293C4.80869 5.29156 2.42006 3.13603 0.877934 0.782529C0.496728 0.201171 0.167193 -0.0891377 0.0696979 0.0704217ZM5.29665 6.80147C6.67913 7.67757 9.61592 8.9565 10.2455 8.9565C10.5709 8.9565 10.8909 9.63882 10.8992 10.3499C10.907 11.0098 6.11878 9.15595 4.40506 7.83565C3.37283 7.04007 3.2551 7.07478 3.73405 8.03313C3.9539 8.47315 4.01849 8.72258 3.87761 8.58715C3.50055 8.2242 2.18729 5.47131 1.99157 4.63288L1.82242 3.90871L2.88925 4.93034C3.47593 5.492 4.55935 6.33411 5.29665 6.80147ZM39.4506 5.43068C38.5624 7.70711 36.1938 11.3179 35.7646 11.05C35.6612 10.9855 35.2625 11.3011 34.8781 11.7513C34.1101 12.6512 31.9579 14.3736 31.6015 14.3736C31.0882 14.3736 31.4319 13.7086 32.1687 13.2764C32.6045 13.0206 33.6189 12.3043 34.423 11.6843C35.2271 11.0643 35.9198 10.5905 35.9622 10.6314C36.0946 10.7584 36.8909 9.62084 37.4544 8.49974C37.7718 7.8684 37.8607 7.50988 37.6708 7.62783C37.4934 7.73789 36.9094 8.12522 36.3732 8.48841C35.3115 9.20791 33.0079 10.2347 31.5594 10.6346C30.7665 10.8532 30.6476 10.8321 30.6624 10.4755C30.7046 9.46522 31.0933 9.1365 33.1853 8.34141C35.3305 7.52638 38.0657 5.84165 39.1672 4.65702C39.486 4.31426 39.787 4.07443 39.836 4.12392C39.8852 4.17341 39.7117 4.76142 39.4506 5.43068ZM4.44357 9.20274C4.52644 9.33817 4.53936 9.44897 4.47233 9.44897C4.40531 9.44897 4.2827 9.33817 4.19983 9.20274C4.11696 9.06731 4.10404 8.9565 4.17107 8.9565C4.2381 8.9565 4.3607 9.06731 4.44357 9.20274ZM7.16124 11.5614C7.91488 12.1817 9.00025 12.9189 9.57303 13.2001C10.6991 13.7529 10.8007 14.3736 9.76534 14.3736C9.42898 14.3736 9.2335 14.266 9.31832 14.1274C9.40119 13.992 9.37828 13.8812 9.26738 13.8812C8.96977 13.8812 6.87583 12.0891 6.13706 11.2022C5.24644 10.133 5.55818 10.2423 7.16124 11.5614ZM24.8315 13.1097C26.3856 13.7211 28.2116 15.2303 29.0806 16.621C30.2829 18.5451 30.7421 20.4283 30.7538 23.4843C30.7638 26.0729 30.3872 28.4828 29.9283 28.7694C29.8388 28.8253 28.4554 29.0516 26.854 29.2723C23.4068 29.7472 18.7458 30.6748 16.4476 31.3431L14.8024 31.8215V22.0852V12.3489L19.1288 12.4584C22.8414 12.5525 23.6503 12.6448 24.8315 13.1097ZM92.4328 17.654C89.2552 18.4757 86.7484 20.6868 85.1251 24.0999C83.7694 26.9498 83.4233 28.453 83.4214 31.4975C83.4199 33.8039 83.4745 34.0827 84.2318 35.6369C84.797 36.7964 85.3522 37.5297 86.0574 38.0475C87.8859 39.3905 88.5557 39.5823 91.4706 39.5981C94.1054 39.6124 94.2048 39.5924 96.015 38.6885C100.447 36.4758 103.229 31.1092 102.995 25.2234C102.916 23.2496 102.787 22.6175 102.222 21.4509C101.425 19.8063 100.017 18.4998 98.4368 17.9401C96.9244 17.4043 93.9469 17.2625 92.4328 17.654ZM41.7951 28.3474C40.6491 34.1369 39.7619 38.9569 39.8238 39.0586C39.8854 39.1603 42.9819 39.2432 46.7042 39.2432H53.4724L53.7583 37.676C53.9155 36.8139 54.0442 35.9829 54.0442 35.8292C54.0442 35.6305 52.7046 35.5497 49.4131 35.5497C46.8661 35.5497 44.7821 35.5066 44.7821 35.4537C44.7821 35.401 45.0015 34.2807 45.2696 32.9643C45.5377 31.6479 45.7571 30.5305 45.7571 30.481C45.7571 30.4318 47.4803 30.3609 49.5862 30.3234L53.4153 30.2557L53.719 28.7783C54.244 26.2259 54.5565 26.4391 50.2921 26.4391H46.5402L46.7367 25.5157C46.8449 25.008 47.0599 23.9578 47.2144 23.1819L47.4957 21.7717L51.9261 21.7045L56.3567 21.6375L56.6395 20.4064C56.795 19.7292 56.9327 18.8704 56.9456 18.4981L56.969 17.8209H50.4242H43.8793L41.7951 28.3474ZM59.1005 28.3474C57.9544 34.1369 57.0672 38.9569 57.1292 39.0586C57.1908 39.1603 58.1555 39.2432 59.2726 39.2432C61.1759 39.2432 61.3119 39.2085 61.4392 38.6892C61.514 38.3844 62.0785 35.4806 62.6942 32.2362C63.3096 28.9918 63.8402 26.3098 63.8736 26.2763C63.9068 26.2428 64.2972 28.8418 64.7416 32.0522C65.1859 35.2624 65.6066 38.1938 65.6768 38.5661C65.7996 39.2176 65.8613 39.2432 67.3071 39.2432H68.8098L70.4138 36.35C71.2962 34.7588 72.8256 31.9281 73.8127 30.0597C74.7999 28.1915 75.6305 26.7511 75.6588 26.8587C75.6871 26.9665 75.1299 29.714 74.4206 32.9643C73.7113 36.2146 73.1754 38.9569 73.2295 39.0586C73.2838 39.1603 74.2519 39.2432 75.3809 39.2432C77.3084 39.2432 77.4417 39.2095 77.5648 38.6892C77.8851 37.3362 81.5865 18.421 81.5865 18.1373C81.5865 17.8982 80.9118 17.8209 78.8225 17.8209H76.0588L73.1171 23.2996C71.4992 26.313 69.7952 29.551 69.3304 30.4956L68.4851 32.2125L68.3169 30.6187C68.0788 28.3602 66.7239 18.7687 66.5701 18.2518C66.4584 17.8761 66.1055 17.8209 63.8132 17.8209H61.1847L59.1005 28.3474ZM106.631 28.3383C105.484 34.1329 104.596 38.9569 104.658 39.0586C104.72 39.1603 105.687 39.2432 106.807 39.2432H108.845L109.09 38.0736C109.224 37.4302 109.797 34.4663 110.363 31.4869C110.928 28.5075 111.44 25.9035 111.5 25.7004C111.56 25.4973 111.918 26.1067 112.297 27.0547C112.675 28.0027 114.019 31.1052 115.284 33.9492L117.583 39.1201L119.693 39.1913C120.854 39.2304 121.803 39.2268 121.803 39.1832C121.803 39.1393 122.734 34.4119 123.871 28.6779C125.008 22.9436 125.878 18.1548 125.806 18.0364C125.733 17.9179 124.762 17.8209 123.648 17.8209H121.621L120.379 24.2846C119.696 27.8397 119.094 30.9698 119.04 31.2407C118.966 31.6169 118.837 31.4773 118.493 30.648C118.246 30.0508 116.884 26.9483 115.467 23.7534L112.892 17.944L110.805 17.8734L108.717 17.8029L106.631 28.3383ZM128.756 18.3749C128.273 20.5221 128.149 21.3297 128.272 21.5304C128.35 21.657 129.722 21.7607 131.323 21.7607C133.542 21.7607 134.234 21.8365 134.234 22.0793C134.234 22.2544 133.521 25.9892 132.65 30.3788C131.778 34.7684 131.065 38.5629 131.065 38.8111C131.065 39.2196 131.267 39.2556 133.189 39.1913L135.313 39.1201L137.024 30.4404L138.734 21.7607H141.842C144.865 21.7607 144.952 21.7456 145.074 21.2066C145.557 19.0595 145.681 18.2518 145.558 18.0511C145.475 17.9157 142.015 17.8209 137.149 17.8209H128.881L128.756 18.3749ZM152.673 18.8674C151.101 21.642 142.033 38.8234 142.033 39.0278C142.033 39.1635 143.025 39.2317 144.406 39.1906L146.778 39.1201L148.078 36.5962L149.378 34.0723H152.648C156.363 34.0723 155.897 33.7522 156.414 36.6578C156.925 39.5306 156.627 39.2432 159.1 39.2432C160.304 39.2432 161.289 39.1674 161.289 39.0746C161.289 38.817 157.386 18.7436 157.24 18.2518C157.132 17.8886 156.81 17.8209 155.189 17.8209H153.266L152.673 18.8674ZM167.754 18.3749C167.271 20.5221 167.147 21.3297 167.27 21.5304C167.349 21.6597 169.381 21.7607 171.906 21.7607C174.378 21.7607 176.4 21.8217 176.4 21.8963C176.4 21.9709 173.741 25.2119 170.49 29.0987C167.239 32.9852 164.442 36.3426 164.275 36.5596C164.107 36.7762 163.9 37.4704 163.815 38.102L163.659 39.2501L171.665 39.1851L179.671 39.1201L179.975 37.6427C180.142 36.8302 180.284 36.0292 180.289 35.8625C180.298 35.6347 179.072 35.5433 175.331 35.4931L170.361 35.4266L176.651 27.9177C182.262 21.2185 182.965 20.2833 183.169 19.2427C183.294 18.6012 183.34 18.0189 183.27 17.9487C183.201 17.8785 179.709 17.8209 175.511 17.8209H167.879L167.754 18.3749ZM185.6 28.3474C184.454 34.1369 183.567 38.9569 183.629 39.0586C183.735 39.2334 187.856 39.3341 187.856 39.1617C187.856 39.1169 188.24 37.1591 188.709 34.811C189.178 32.463 189.562 30.5052 189.562 30.4603C189.562 30.4155 191.319 30.3788 193.467 30.3788H197.371L197.241 30.9329C196.994 31.9887 195.656 38.8286 195.656 39.0354C195.656 39.1497 196.626 39.2432 197.813 39.2432H199.971L202.055 28.7168C203.201 22.9273 204.088 18.107 204.026 18.0056C203.919 17.8286 199.799 17.7313 199.799 17.9056C199.799 18.025 198.371 25.2131 198.213 25.8851C198.086 26.4307 198.026 26.4391 194.222 26.4391H190.361L191.177 22.3477C191.626 20.0976 191.934 18.1585 191.86 18.0386C191.787 17.9189 190.817 17.8209 189.706 17.8209H187.684L185.6 28.3474ZM206.807 28.3383C205.66 34.1329 204.772 38.9569 204.834 39.0586C204.896 39.1603 205.863 39.2432 206.984 39.2432H209.021L209.266 38.0736C209.401 37.4302 209.973 34.4663 210.539 31.4869C211.104 28.5075 211.616 25.9035 211.676 25.7004C211.736 25.4973 212.095 26.1067 212.473 27.0547C212.851 28.0027 214.195 31.1052 215.46 33.9492L217.759 39.1201L219.869 39.1913C221.03 39.2304 221.979 39.2268 221.979 39.1832C221.979 39.1393 222.91 34.4119 224.047 28.6779C225.184 22.9436 226.055 18.1548 225.982 18.0364C225.91 17.9179 224.939 17.8209 223.824 17.8209H221.798L220.555 24.2846C219.872 27.8397 219.27 30.9698 219.216 31.2407C219.142 31.6169 219.013 31.4773 218.669 30.648C218.422 30.0508 217.06 26.9483 215.644 23.7534L213.068 17.944L210.981 17.8734L208.893 17.8029L206.807 28.3383ZM228.742 28.3474C227.596 34.1369 226.709 38.9569 226.77 39.0586C226.872 39.2258 230.998 39.3381 230.998 39.1736C230.998 39.1352 231.928 34.4119 233.065 28.6779C234.202 22.9436 235.073 18.1548 235.001 18.0364C234.928 17.9179 233.959 17.8209 232.847 17.8209H230.826L228.742 28.3474ZM237.76 28.3474C236.614 34.1369 235.727 38.9569 235.789 39.0586C235.895 39.2334 240.016 39.3341 240.016 39.1617C240.016 38.932 241.732 30.533 241.791 30.4731C241.829 30.4347 243.042 32.392 244.485 34.8231L247.11 39.2432H249.398C250.657 39.2432 251.743 39.1507 251.813 39.0374C251.882 38.9241 250.565 36.5856 248.886 33.8411C247.206 31.0964 245.882 28.7237 245.942 28.5683C246.002 28.4129 248.096 26.0363 250.596 23.2866C253.095 20.5369 255.076 18.1824 254.998 18.0541C254.919 17.9258 253.774 17.8209 252.452 17.8209H250.049L246.436 21.8902C244.449 24.1282 242.794 25.8696 242.757 25.7595C242.721 25.6497 243.02 23.9172 243.423 21.9094C243.826 19.9016 244.095 18.1605 244.021 18.0401C243.947 17.9194 242.977 17.8209 241.866 17.8209H239.844L237.76 28.3474ZM97.0151 21.9461C98.1689 22.6308 98.6486 23.8071 98.6452 25.9427C98.6401 29.2932 97.466 32.3445 95.492 34.1373C93.6423 35.8174 91.6282 36.2212 89.7295 35.2927C88.2449 34.5668 87.7945 33.5183 87.8293 30.8713C87.8888 26.3859 90.1743 22.5011 93.321 21.5378C94.383 21.2128 96.0989 21.4024 97.0151 21.9461ZM154.669 26.7469C154.835 27.864 155.035 29.0832 155.112 29.4555L155.252 30.1326H153.375C152.343 30.1326 151.535 30.0408 151.58 29.9287C151.929 29.0526 154.127 24.7482 154.232 24.7337C154.306 24.7238 154.503 25.6297 154.669 26.7469ZM27.2067 32.8269C26.4072 33.4994 24.7822 34.2624 23.526 34.5552C22.2579 34.8509 14.8024 34.8943 14.8024 34.6062C14.8024 34.1039 27.0337 31.8976 27.6942 32.281C27.7466 32.3115 27.5272 32.557 27.2067 32.8269Z" fill="black"/>
</svg>
