<svg width="18" height="18" viewBox="0 0 18 18" fill="none" xmlns="http://www.w3.org/2000/svg">
<path d="M15.9701 1.75275C15.4993 1.34147 13.5939 0.0303111 9.34572 0.0127352C9.34572 0.0127352 4.33757 -0.271995 1.89837 1.85118C0.541606 3.13773 0.0634038 5.02539 0.0115059 7.36298C-0.0403921 9.70058 -0.103411 14.0805 4.34869 15.2686H4.3524L4.34869 17.0825C4.34869 17.0825 4.31904 17.8171 4.8306 17.9648C5.44596 18.1476 5.80925 17.5886 6.39866 16.9876C6.72117 16.6571 7.16601 16.172 7.50335 15.8029C10.5505 16.0455 12.8896 15.4901 13.1565 15.4092C13.7719 15.2194 17.2527 14.7976 17.8162 10.4177C18.4019 5.89715 17.5345 3.04282 15.9701 1.75275ZM16.4854 10.0872C16.0072 13.743 13.1862 13.975 12.6672 14.1332C12.4448 14.2 10.3874 14.6851 7.80361 14.5269C7.80361 14.5269 5.87597 16.7309 5.27544 17.3039C5.07897 17.4902 4.86396 17.4727 4.86767 17.1036C4.86767 16.861 4.8825 14.091 4.8825 14.091C4.87879 14.091 4.87879 14.091 4.8825 14.091C1.10878 13.0998 1.3312 9.37015 1.37197 7.41923C1.41275 5.4683 1.80199 3.86889 2.95115 2.79325C5.01595 1.01808 9.26788 1.28172 9.26788 1.28172C12.86 1.29578 14.58 2.32221 14.9804 2.6667C16.3038 3.74234 16.9784 6.31546 16.4854 10.0872ZM11.3327 7.24698C11.3475 7.54929 10.8693 7.57038 10.8545 7.26807C10.8137 6.49473 10.4319 6.11861 9.64599 6.07643C9.32719 6.05885 9.35684 5.60539 9.67194 5.62297C10.7062 5.6757 11.2808 6.23812 11.3327 7.24698ZM12.0852 7.6442C12.1223 6.15376 11.1399 4.98672 9.27529 4.85666C8.96019 4.83557 8.99356 4.38211 9.30865 4.4032C11.4587 4.55084 12.6042 5.95339 12.5634 7.65474C12.5597 7.95705 12.0778 7.94299 12.0852 7.6442ZM13.8275 8.11523C13.8312 8.41754 13.3493 8.42105 13.3493 8.11875C13.327 5.25387 11.3141 3.69313 8.87123 3.67556C8.55613 3.67204 8.55613 3.2221 8.87123 3.2221C11.6033 3.23967 13.8015 5.0289 13.8275 8.11523ZM13.4086 11.5636V11.5707C13.0082 12.2385 12.2594 12.9767 11.4884 12.7412L11.481 12.7307C10.6988 12.5233 8.8564 11.6234 7.6924 10.7446C7.09187 10.2946 6.54323 9.76385 6.12064 9.25415C5.73881 8.80069 5.35329 8.26287 4.97888 7.61608C4.18929 6.26273 4.01506 5.65812 4.01506 5.65812C3.76669 4.92696 4.54146 4.21689 5.24949 3.83725H5.25691C5.59795 3.66853 5.92416 3.72477 6.14288 3.97435C6.14288 3.97435 6.60255 4.49459 6.79902 4.7512C6.98437 4.99023 7.23273 5.37339 7.36248 5.58782C7.58861 5.97097 7.44774 6.36116 7.22532 6.52285L6.78048 6.86031C6.55435 7.03256 6.58401 7.35244 6.58401 7.35244C6.58401 7.35244 7.24386 9.71816 9.70901 10.3157C9.70901 10.3157 10.0463 10.3439 10.228 10.1294L10.5839 9.70761C10.7544 9.4967 11.1659 9.36312 11.5699 9.57755C12.1148 9.86931 12.8081 10.3228 13.2677 10.734C13.5272 10.9344 13.5865 11.2402 13.4086 11.5636Z" fill="#1C1C1C"/>
</svg>
