<svg width="44" height="44" viewBox="0 0 44 44" fill="none" xmlns="http://www.w3.org/2000/svg">
<path d="M32.6612 13.3032C32.6612 13.3032 33.1901 13.8353 33.5629 13.3043L34.2746 12.2845C34.5232 11.9258 34.202 11.6778 34.1692 11.6532L29.8535 8.63779H29.8525C29.5867 8.45295 29.4102 8.56521 29.3178 8.66912L29.2405 8.78034L28.5831 9.72126C28.58 9.72491 28.2124 10.3055 28.8004 10.6126V10.6131C29.641 11.0266 31.183 11.8986 32.6601 13.3064L32.6612 13.3032Z" fill="#FED104"/>
<path d="M25.3975 5H18.597C18.0691 5 17.6367 5.42399 17.6367 5.96024V6.75287C17.6367 7.2886 18.0691 7.72095 18.597 7.72095H18.9332V8.2807C18.9337 9.08534 19.4418 9.15217 19.6966 9.13494C19.74 9.12867 19.7849 9.12189 19.8324 9.11562L19.8392 9.11405H19.8386C20.7441 8.9903 22.2432 8.87177 23.9626 9.09056L23.9637 9.08899C23.9637 9.08899 25.0649 9.29315 25.0618 8.28017V7.72042H25.398C25.9264 7.72042 26.3583 7.2886 26.3583 6.75235V5.96024C26.3577 5.42451 25.9254 5 25.3975 5Z" fill="#FED104"/>
<path d="M22 10.3434C14.2679 10.3434 8 16.6119 8 24.345C8 32.0765 14.2679 38.345 22 38.345C29.7326 38.345 36 32.076 36 24.345C36 16.6119 29.7326 10.3434 22 10.3434ZM22.8965 24.3408C22.0741 24.3418 22.0042 23.7696 22 23.6046V13.9223C22.024 13.5855 22.1989 12.9511 23.1738 13.115C23.1931 13.1176 23.2114 13.1197 23.2318 13.1223C23.2944 13.1328 23.3534 13.1411 23.3989 13.1448C26.2394 13.5437 32.4702 15.3911 33.2488 23.767C33.2268 23.9998 33.0947 24.3392 32.5115 24.3429C27.4978 24.3288 24.3257 24.3351 22.8965 24.3408Z" fill="#FED104"/>
</svg>
