<svg width="44" height="44" viewBox="0 0 44 44" fill="none" xmlns="http://www.w3.org/2000/svg">
<path d="M34.0417 6H9.95833C8.6473 6.01287 7.39362 6.53728 6.46654 7.46063C5.53946 8.38397 5.01292 9.63259 5 10.9383V29.2807C5.04991 30.6309 5.531 31.9301 6.37332 32.9893C7.21563 34.0485 8.37524 34.8124 9.6835 35.17L25.4921 38.8681C26.0937 39.0232 26.7227 39.0418 27.3325 38.9224C27.9423 38.8029 28.5174 38.5486 29.0153 38.1782C29.4968 37.7856 29.8811 37.288 30.1386 36.7238C30.396 36.1596 30.5197 35.5439 30.5 34.9245V21.2496C30.4977 19.9373 30.0647 18.6618 29.267 17.6174C28.4693 16.573 27.3506 15.817 26.0814 15.4647L10.746 11.253C10.6115 11.2159 10.4856 11.1528 10.3756 11.0673C10.2656 10.9818 10.1735 10.8756 10.1047 10.7546C10.0359 10.6337 9.99172 10.5005 9.97462 10.3625C9.95752 10.2246 9.96788 10.0846 10.0051 9.95066C10.0423 9.8167 10.1056 9.69135 10.1915 9.58176C10.2773 9.47218 10.384 9.38051 10.5054 9.31198C10.6268 9.24346 10.7606 9.19943 10.8991 9.1824C11.0376 9.16537 11.1782 9.17568 11.3127 9.21274L16.3192 10.5884H16.3362H34.0417C34.3235 10.5884 34.5937 10.6999 34.793 10.8984C34.9922 11.0968 35.1042 11.366 35.1042 11.6466C35.1042 11.9273 34.9922 12.1964 34.793 12.3949C34.5937 12.5934 34.3235 12.7048 34.0417 12.7048H26.6254C26.5397 12.7047 26.4567 12.7355 26.3921 12.7916C26.3274 12.8477 26.2854 12.9253 26.2738 13.0099C26.2622 13.0945 26.2818 13.1805 26.329 13.2518C26.3762 13.3231 26.4478 13.3749 26.5305 13.3976L26.6523 13.4315C28.2662 13.8779 29.7015 14.8115 30.7607 16.1038C30.7943 16.1439 30.8363 16.1761 30.8838 16.1983C30.9313 16.2205 30.9831 16.2321 31.0355 16.2322H34.0417C34.3235 16.2322 34.5937 16.3437 34.793 16.5422C34.9922 16.7406 35.1042 17.0098 35.1042 17.2904C35.1042 17.5711 34.9922 17.8402 34.793 18.0387C34.5937 18.2372 34.3235 18.3486 34.0417 18.3486H32.5712C32.5152 18.3483 32.4599 18.3612 32.4099 18.3864C32.36 18.4115 32.3167 18.4481 32.2838 18.4932C32.2508 18.5383 32.2291 18.5905 32.2205 18.6456C32.2118 18.7007 32.2165 18.7571 32.234 18.81C32.4944 19.5983 32.6288 20.4225 32.6321 21.2524V31.0472C32.6321 31.1408 32.6694 31.2305 32.7358 31.2966C32.8022 31.3628 32.8923 31.3999 32.9862 31.3999H34.0417C35.3567 31.3999 36.6179 30.8797 37.5477 29.9535C38.4776 29.0274 39 27.7713 39 26.4616V10.9412C39.0004 10.2924 38.8724 9.64994 38.6234 9.05047C38.3744 8.451 38.0092 7.90627 37.5487 7.4474C37.0883 6.98854 36.5415 6.62453 35.9398 6.37618C35.338 6.12783 34.693 6 34.0417 6ZM26.9583 27.1643C26.9583 27.7224 26.7922 28.268 26.4808 28.732C26.1695 29.1961 25.727 29.5578 25.2093 29.7714C24.6915 29.985 24.1219 30.0408 23.5722 29.932C23.0226 29.8231 22.5178 29.5543 22.1215 29.1597C21.7253 28.765 21.4554 28.2622 21.3461 27.7148C21.2368 27.1674 21.2929 26.6 21.5073 26.0844C21.7218 25.5687 22.0849 25.128 22.5509 24.8179C23.0168 24.5079 23.5646 24.3424 24.125 24.3424C24.8764 24.3424 25.5971 24.6397 26.1285 25.1689C26.6598 25.6981 26.9583 26.4159 26.9583 27.1643Z" fill="#FED104"/>
</svg>
