<svg width="44" height="44" viewBox="0 0 44 44" fill="none" xmlns="http://www.w3.org/2000/svg">
<path d="M37.9895 29.7899H36.7594V28.1497H39.6297C39.8564 28.1497 40.0398 27.9663 40.0398 27.7396V22.8191C40.0398 22.5924 39.8564 22.409 39.6297 22.409H31.0187V18.7194C31.0187 18.1716 30.8056 17.6566 30.4181 17.269C30.0304 16.8821 29.5163 16.6691 28.9693 16.6691H28.9676L22.2203 16.6732C22.2067 16.6732 22.1955 16.6814 22.1822 16.6827C20.7867 15.1575 13.8937 7.61878 13.4475 7.07784C12.5481 5.98621 11.684 5.99342 10.5003 6.0095C10.1759 6.01352 9.81473 6.01753 9.40468 6.00072C8.84324 5.98547 8.55252 6.21452 8.38834 6.41397C8.02692 6.85362 8.04742 7.50651 8.09531 7.87366C7.66837 9.18697 4.75169 18.5905 4.07404 21.0781L4.08282 21.0804C4.02484 21.2541 3.98793 21.4363 3.98031 21.6274C2.96248 21.896 1.5 22.7336 1.5 24.5307C1.5 26.2838 1.5 29.2182 5.3306 30.0727C5.80552 30.1785 6.266 30.2305 6.70812 30.2305C7.71799 30.2305 8.63182 29.9574 9.39902 29.4185C10.4939 28.6496 11.205 27.3763 11.402 25.8329C11.4173 25.7144 11.3796 25.5943 11.2987 25.5062C11.2186 25.4173 11.1025 25.3692 10.9839 25.3709C10.8458 25.3709 7.9641 25.4175 7.23601 23.2257C7.51911 22.9883 7.73258 22.6768 7.84953 22.318L7.85806 22.3219L11.7375 13.8756L18.0124 23.8101C17.9432 24.0153 17.897 24.2311 17.897 24.4594V27.7398C17.897 27.9665 18.0804 28.1499 18.3071 28.1499H21.1774V29.7901H20.7674C18.2807 29.7901 16.2569 31.8139 16.2569 34.3006C16.2569 36.7873 18.2807 38.8111 20.7674 38.8111H37.9895C40.4762 38.8111 42.5 36.7873 42.5 34.3006C42.5 31.8139 40.4762 29.7899 37.9895 29.7899ZM10.5122 26.1796C10.2783 27.2856 9.72575 28.1866 8.92812 28.7472C8.01831 29.3855 6.83786 29.5681 5.5084 29.2718C2.56039 28.6142 2.3201 26.7354 2.3201 24.5306C2.3201 23.1468 3.50809 22.6211 4.11718 22.442C4.41102 23.176 5.12647 23.6976 5.96404 23.6976C6.15717 23.6976 6.34022 23.6613 6.51695 23.6097C7.21625 25.4576 9.18604 26.0861 10.5122 26.1796ZM7.68813 20.7275C7.34501 20.1256 6.70484 19.7141 5.96404 19.7141C5.72244 19.7141 5.49363 19.7639 5.27918 19.843C6.20458 16.6839 7.93884 11.1153 8.61952 8.93889L11.2152 13.0485L7.68813 20.7275ZM11.3676 9.30334C10.9811 9.30334 10.6678 8.99006 10.6678 8.60355C10.6678 8.21704 10.9812 7.90376 11.3676 7.90376C11.754 7.90376 12.0674 8.21712 12.0674 8.60355C12.0674 8.98998 11.7541 9.30334 11.3676 9.30334ZM22.4438 17.4933L28.9677 17.4892H28.9694C29.2969 17.4892 29.6061 17.6173 29.8383 17.8497C30.0706 18.082 30.1988 18.3911 30.1988 18.7194V22.409H20.0135C20.3236 21.5041 21.0492 19.6678 22.4438 17.4933ZM21.9977 28.1497H35.9394V29.7899H21.9977V28.1497ZM37.9896 37.9909H20.7675C18.7325 37.9909 17.077 36.3354 17.077 34.3004C17.077 32.2654 18.7325 30.61 20.7675 30.61H37.9895C40.0245 30.61 41.68 32.2654 41.68 34.3004C41.68 36.3354 40.0246 37.9909 37.9896 37.9909ZM23.2278 34.3004C23.2278 35.6593 22.1264 36.7607 20.7676 36.7607C19.4087 36.7607 18.3073 35.6593 18.3073 34.3004C18.3073 32.9416 19.4087 31.8401 20.7676 31.8401C22.1264 31.8401 23.2278 32.9416 23.2278 34.3004ZM31.8389 34.3004C31.8389 35.6593 30.7374 36.7607 29.3786 36.7607C28.0198 36.7607 26.9183 35.6593 26.9183 34.3004C26.9183 32.9416 28.0198 31.8401 29.3786 31.8401C30.7374 31.8401 31.8389 32.9416 31.8389 34.3004ZM40.4499 34.3004C40.4499 35.6593 39.3484 36.7607 37.9896 36.7607C36.6308 36.7607 35.5293 35.6593 35.5293 34.3004C35.5293 32.9416 36.6308 31.8401 37.9896 31.8401C39.3484 31.8401 40.4499 32.9416 40.4499 34.3004Z" fill="#FED104"/>
</svg>
