<svg width="44" height="44" viewBox="0 0 44 44" fill="none" xmlns="http://www.w3.org/2000/svg">
<path d="M20.0821 8.09455L28.2051 6L29.6154 11.8182H32.1538L32.8683 14.766L44 17.6364L42.3077 24.6182L39.2991 25.394L38.359 29.2727L30.3362 31.3414L31.5897 33.9273H35.5385V35.6727L31.0256 36.2545L29.3333 38L27.0769 37.4182V35.6727L24.8205 34.5091V33.3455L27.0769 32.7636V31.6L21.2368 30.0941L18.0513 33.9273L15.5128 35.0909L14.3846 33.9273L15.2308 30.4364H17.2051L15.7949 24.6182L10.5299 23.2606L5.64103 25.7818L1.12821 24.6182L0 19.9636L3.33484 14.231L2.25641 9.78182L7.89744 8.32727L19.3122 11.2706L20.0821 8.09455Z" fill="#FED104"/>
</svg>
