<svg width="42" height="42" viewBox="0 0 42 42" fill="none" xmlns="http://www.w3.org/2000/svg">
<circle cx="21" cy="21" r="21" fill="black"/>
<path d="M21.3977 14H23.7199C23.7448 14.102 23.7642 14.2053 23.7779 14.3094C23.8487 15.1216 24.2182 15.878 24.814 16.4307C25.4099 16.9835 26.1893 17.293 27 17.2986V19.4996C26.8914 19.5351 26.7774 19.5509 26.6633 19.5463C26.1231 19.4863 25.5877 19.3888 25.061 19.2544C24.6063 19.0784 24.1641 18.8717 23.7373 18.6355V18.9274C23.7373 20.0951 23.7373 21.2977 23.7373 22.4829C23.7431 22.9653 23.7121 23.4474 23.6444 23.9249C23.5426 24.7221 23.2394 25.4797 22.7638 26.1257C22.2882 26.7716 21.656 27.2842 20.9274 27.6147C20.4993 27.773 20.0609 27.9017 19.6154 28H18.8084C18.7746 27.9839 18.7397 27.9702 18.7039 27.9591C17.886 27.8545 17.1177 27.507 16.4972 26.9611C15.8768 26.4151 15.4323 25.6954 15.2206 24.8941C15.1232 24.5453 15.0495 24.1903 15 23.8315V23.1485C15.0639 22.8274 15.1103 22.5063 15.2032 22.191C15.4648 21.3492 15.9704 20.605 16.655 20.0538C17.3397 19.5025 18.1724 19.1693 19.0464 19.0967C19.3077 19.0559 19.5689 19.0442 19.8476 19.0209C19.8476 19.7798 19.8476 20.4804 19.8476 21.1868C19.8476 21.3561 19.7605 21.3795 19.6212 21.4203C19.1761 21.523 18.7394 21.6596 18.3149 21.829C17.9881 21.9529 17.7072 22.1753 17.5108 22.4658C17.3144 22.7563 17.212 23.1008 17.2177 23.452C17.1931 23.8504 17.2857 24.2472 17.4839 24.5929C17.6821 24.9387 17.9772 25.218 18.3324 25.3962C18.6571 25.5981 19.0343 25.6982 19.4159 25.6836C19.7974 25.6691 20.166 25.5405 20.4746 25.3144C20.7057 25.1481 20.8995 24.9348 21.0435 24.6884C21.1875 24.442 21.2785 24.168 21.3106 23.8841C21.38 23.303 21.4091 22.7178 21.3977 22.1326C21.3977 19.5405 21.3977 16.9463 21.3977 14.3503C21.4151 14.2277 21.4035 14.1168 21.3977 14Z" fill="white"/>
</svg>
