<svg width="42" height="42" viewBox="0 0 42 42" fill="none" xmlns="http://www.w3.org/2000/svg">
<circle cx="21" cy="21" r="21" fill="url(#paint0_linear_2007_3930)"/>
<path d="M21 16.5C18.5391 16.5 16.5 18.5039 16.5 21C16.5 23.4961 18.5039 25.5 21 25.5C23.4961 25.5 25.5 23.4609 25.5 21C25.5 18.5391 23.4609 16.5 21 16.5ZM21 23.8828C19.418 23.8828 18.1172 22.582 18.1172 21C18.1172 19.418 19.418 18.1172 21 18.1172C22.582 18.1172 23.8828 19.418 23.8828 21C23.8828 22.582 22.582 23.8828 21 23.8828Z" fill="white"/>
<path d="M25.5 17.5C26.0523 17.5 26.5 17.0523 26.5 16.5C26.5 15.9477 26.0523 15.5 25.5 15.5C24.9477 15.5 24.5 15.9477 24.5 16.5C24.5 17.0523 24.9477 17.5 25.5 17.5Z" fill="white"/>
<path d="M28.129 13.9052C27.2379 12.9798 25.9698 12.5 24.5302 12.5H17.4698C14.4879 12.5 12.5 14.4879 12.5 17.4698V24.496C12.5 25.9698 12.9798 27.2379 13.9395 28.1633C14.8649 29.0544 16.0988 29.5 17.504 29.5H24.496C25.9698 29.5 27.2036 29.0202 28.0948 28.1633C29.0202 27.2722 29.5 26.004 29.5 24.5302V17.4698C29.5 16.0302 29.0202 14.7964 28.129 13.9052ZM27.9919 24.5302C27.9919 25.5927 27.6149 26.4496 26.998 27.0323C26.381 27.6149 25.5242 27.9234 24.496 27.9234H17.504C16.4758 27.9234 15.619 27.6149 15.002 27.0323C14.3851 26.4153 14.0766 25.5585 14.0766 24.496V17.4698C14.0766 16.4415 14.3851 15.5847 15.002 14.9677C15.5847 14.3851 16.4758 14.0766 17.504 14.0766H24.5645C25.5927 14.0766 26.4496 14.3851 27.0665 15.002C27.6492 15.619 27.9919 16.4758 27.9919 17.4698V24.5302Z" fill="white"/>
<defs>
<linearGradient id="paint0_linear_2007_3930" x1="21" y1="0" x2="21" y2="42" gradientUnits="userSpaceOnUse">
<stop stop-color="#8D00F5"/>
<stop offset="0.38" stop-color="#FF00A8"/>
<stop offset="0.72" stop-color="#FF005C"/>
<stop offset="1" stop-color="#FFCC00"/>
</linearGradient>
</defs>
</svg>
