<svg width="21" height="21" viewBox="0 0 21 21" fill="none" xmlns="http://www.w3.org/2000/svg">
<path d="M20.9692 15.8725L20.0155 20.0067C19.8815 20.5911 19.3678 21 18.766 21C8.4172 20.9992 0 12.5832 0 2.23548C0 1.63422 0.408923 1.11991 0.993492 0.986617L5.12826 0.0330523C5.73042 -0.106476 6.34572 0.206047 6.59594 0.776218L8.50416 5.22619C8.72723 5.75034 8.57677 6.36103 8.13581 6.72113L5.92732 8.49415C7.32116 11.3331 9.62974 13.6413 12.4699 15.0358L14.2781 12.8293C14.6344 12.3872 15.2498 12.2342 15.774 12.4612L20.2247 14.3687C20.76 14.6503 21.1086 15.2737 20.9692 15.8725Z" fill="#FED104"/>
</svg>
